<?xml version="1.0" encoding="UTF-8"?>
<!DOCTYPE svg PUBLIC "-//W3C//DTD SVG 1.1//EN" "http://www.w3.org/Graphics/SVG/1.1/DTD/svg11.dtd">
<svg xmlns="http://www.w3.org/2000/svg" version="1.1" width="1500px" height="1500px" style="shape-rendering:geometricPrecision; text-rendering:geometricPrecision; image-rendering:optimizeQuality; fill-rule:evenodd; clip-rule:evenodd" xmlns:xlink="http://www.w3.org/1999/xlink">
<g><path style="opacity:0.995" fill="#eac454" d="M 721.5,416.5 C 723.129,418.196 722.796,419.196 720.5,419.5C 701.586,409.039 682.586,398.539 663.5,388C 621.649,347.132 596.649,297.632 588.5,239.5C 570.082,292.242 548.249,343.576 523,393.5C 509.511,422.799 499.178,453.133 492,484.5C 487.881,504.149 488.881,523.482 495,542.5C 504.901,556.575 517.401,567.575 532.5,575.5C 531.975,576.192 531.308,576.692 530.5,577C 520.727,577.511 511.393,575.844 502.5,572C 488.516,563.85 476.182,553.684 465.5,541.5C 466.515,562.192 468.182,583.025 470.5,604C 470.612,605.662 469.946,606.829 468.5,607.5C 467.515,605.228 466.681,602.895 466,600.5C 465.06,589.991 463.893,579.658 462.5,569.5C 462.218,563.979 461.551,558.646 460.5,553.5C 460.136,545.993 459.47,538.659 458.5,531.5C 458.259,526.306 457.593,521.306 456.5,516.5C 456.5,511.167 456.5,505.833 456.5,500.5C 456.279,497.721 456.612,495.054 457.5,492.5C 461.522,504.019 468.189,513.852 477.5,522C 478.332,522.688 478.998,522.521 479.5,521.5C 478.178,509.843 478.345,498.176 480,486.5C 482.24,469.926 486.74,454.093 493.5,439C 493.043,438.586 492.709,438.086 492.5,437.5C 508.972,396.607 526.805,356.94 546,318.5C 557.536,290.754 568.536,262.754 579,234.5C 580.5,232.333 582,230.167 583.5,228C 585.902,227.186 588.235,227.353 590.5,228.5C 599.096,243.43 606.263,259.097 612,275.5C 624.14,301.126 638.807,325.126 656,347.5C 660.325,353.827 664.658,360.161 669,366.5C 676.648,374.536 683.815,382.869 690.5,391.5C 696.043,396.88 701.709,402.046 707.5,407C 712.752,409.448 717.419,412.614 721.5,416.5 Z"/></g>
<g><path style="opacity:0.998" fill="#e9c354" d="M 1014.5,453.5 C 1014.42,456.781 1015.09,459.781 1016.5,462.5C 1018.59,469.347 1019.92,476.347 1020.5,483.5C 1020.72,486.067 1021.39,488.401 1022.5,490.5C 1024.74,500.767 1025.58,511.1 1025,521.5C 1027,518.669 1029.17,516.003 1031.5,513.5C 1034.32,510.574 1037.15,507.574 1040,504.5C 1041.47,500.514 1043.64,497.18 1046.5,494.5C 1046.56,495.609 1046.89,496.609 1047.5,497.5C 1042.72,519.886 1040.22,542.552 1040,565.5C 1037.79,579.168 1035.45,592.835 1033,606.5C 1032.59,606.957 1032.09,607.291 1031.5,607.5C 1031.17,605.333 1030.83,603.167 1030.5,601C 1032.28,590.236 1033.62,579.403 1034.5,568.5C 1035.4,562.334 1036.06,556 1036.5,549.5C 1037.32,546.446 1037.32,543.446 1036.5,540.5C 1031.68,545.492 1027.01,550.658 1022.5,556C 1013.38,564.896 1002.71,571.23 990.5,575C 983.858,576.09 977.192,576.923 970.5,577.5C 970.33,576.178 970.663,575.011 971.5,574C 984.824,567.007 995.991,557.507 1005,545.5C 1008.4,539.567 1010.73,533.234 1012,526.5C 1012.67,516.167 1012.67,505.833 1012,495.5C 1004.74,455.382 992.072,417.049 974,380.5C 954.604,342.31 937.938,302.977 924,262.5C 922.657,254.132 921.157,245.798 919.5,237.5C 914.859,252.382 910.359,267.382 906,282.5C 900.105,300.532 892.105,317.532 882,333.5C 869.157,352.335 854.99,370.168 839.5,387C 822.889,395.767 806.556,405.101 790.5,415C 782.843,419.125 774.843,422.625 766.5,425.5C 763.505,425.294 760.838,425.96 758.5,427.5C 757.167,427.5 755.833,427.5 754.5,427.5C 756.261,426.687 757.928,425.687 759.5,424.5C 767.621,423.047 775.288,420.214 782.5,416C 783.823,415.184 784.489,414.017 784.5,412.5C 788.256,411.455 791.589,409.622 794.5,407C 814.531,389.962 831.364,370.129 845,347.5C 857.244,332.014 868.244,315.681 878,298.5C 888.704,277.428 899.037,256.095 909,234.5C 910.333,232.5 911.667,230.5 913,228.5C 915.711,227.074 918.211,227.408 920.5,229.5C 922.916,232.663 925.082,235.996 927,239.5C 933.701,258.327 940.701,276.994 948,295.5C 964.749,331.879 981.416,368.212 998,404.5C 1004.19,420.58 1009.69,436.913 1014.5,453.5 Z"/></g>
<g><path style="opacity:1" fill="#0b1719" d="M 1036.5,549.5 C 1035.71,550.609 1035.21,551.942 1035,553.5C 1034.5,558.489 1034.33,563.489 1034.5,568.5C 1033.62,579.403 1032.28,590.236 1030.5,601C 1030.83,603.167 1031.17,605.333 1031.5,607.5C 1032.09,607.291 1032.59,606.957 1033,606.5C 1035.45,592.835 1037.79,579.168 1040,565.5C 1040.22,542.552 1042.72,519.886 1047.5,497.5C 1048.15,497.196 1048.82,496.863 1049.5,496.5C 1052.7,523.34 1056.86,550.006 1062,576.5C 1063.17,590.52 1064.5,604.52 1066,618.5C 1073.08,719.662 1043.08,807.662 976,882.5C 968.469,889.697 961.302,897.197 954.5,905C 943.54,913.624 932.874,922.624 922.5,932C 917.167,935.333 911.833,938.667 906.5,942C 885.097,952.015 863.764,962.015 842.5,972C 839.443,974.723 836.11,977.056 832.5,979C 820.598,992.759 806.598,1003.59 790.5,1011.5C 790.167,1011.17 789.833,1010.83 789.5,1010.5C 793.968,1007.86 798.302,1005.03 802.5,1002C 811.204,992.964 819.538,983.631 827.5,974C 838.548,965.472 850.548,958.472 863.5,953C 881.449,946.358 899.116,939.358 916.5,932C 926.301,922.274 930.801,910.441 930,896.5C 927.815,889.132 924.815,882.132 921,875.5C 918.642,871.642 915.475,868.642 911.5,866.5C 924.759,859.534 937.759,852.034 950.5,844C 960.026,835.139 969.526,826.305 979,817.5C 983.561,810.814 987.561,803.814 991,796.5C 992.798,791.311 993.631,785.978 993.5,780.5C 990.675,780.162 988.508,781.162 987,783.5C 981.123,801.022 971.623,816.188 958.5,829C 946.827,838.837 934.161,847.17 920.5,854C 903.232,860.645 885.899,866.979 868.5,873C 841.838,884.662 822.005,903.496 809,929.5C 803.061,949.46 798.728,969.793 796,990.5C 793.202,1001.3 786.369,1008.13 775.5,1011C 760.841,1012.93 746.174,1012.93 731.5,1011C 718.518,1008.61 710.351,1001.11 707,988.5C 704.154,968.604 699.154,949.27 692,930.5C 677.817,902.32 655.984,882.487 626.5,871C 611.868,865.672 597.202,860.338 582.5,855C 548.217,839.887 524.884,814.721 512.5,779.5C 511.675,778.614 510.675,778.281 509.5,778.5C 508.888,782.163 508.721,785.83 509,789.5C 511.128,794.87 513.461,800.204 516,805.5C 529.212,825.712 546.045,842.212 566.5,855C 573.69,858.761 581.023,862.261 588.5,865.5C 575.159,880.042 570.659,897.042 575,916.5C 577.387,922.095 580.887,926.928 585.5,931C 600.075,940.118 615.741,946.784 632.5,951C 644.959,957.063 657.292,963.396 669.5,970C 680.869,979.701 691.202,990.368 700.5,1002C 705.105,1006.27 710.439,1009.27 716.5,1011C 712.262,1011.82 708.262,1011.16 704.5,1009C 695.203,1001.37 686.203,993.371 677.5,985C 666.804,976.984 655.47,969.984 643.5,964C 601.645,949.502 565.478,926.336 535,894.5C 511.937,870.781 491.937,844.781 475,816.5C 445.54,760.632 432.207,700.965 435,637.5C 438.764,590.463 445.264,543.796 454.5,497.5C 455.176,498.602 455.842,499.602 456.5,500.5C 456.5,505.833 456.5,511.167 456.5,516.5C 456.189,521.766 456.855,526.766 458.5,531.5C 459.47,538.659 460.136,545.993 460.5,553.5C 460.156,559.098 460.822,564.432 462.5,569.5C 463.893,579.658 465.06,589.991 466,600.5C 466.681,602.895 467.515,605.228 468.5,607.5C 469.946,606.829 470.612,605.662 470.5,604C 468.182,583.025 466.515,562.192 465.5,541.5C 476.182,553.684 488.516,563.85 502.5,572C 511.393,575.844 520.727,577.511 530.5,577C 531.308,576.692 531.975,576.192 532.5,575.5C 517.401,567.575 504.901,556.575 495,542.5C 488.881,523.482 487.881,504.149 492,484.5C 499.178,453.133 509.511,422.799 523,393.5C 548.249,343.576 570.082,292.242 588.5,239.5C 596.649,297.632 621.649,347.132 663.5,388C 682.586,398.539 701.586,409.039 720.5,419.5C 728.703,424.679 737.703,427.679 747.5,428.5C 749.921,428.44 752.254,428.107 754.5,427.5C 755.833,427.5 757.167,427.5 758.5,427.5C 761.428,427.435 764.095,426.768 766.5,425.5C 774.843,422.625 782.843,419.125 790.5,415C 806.556,405.101 822.889,395.767 839.5,387C 854.99,370.168 869.157,352.335 882,333.5C 892.105,317.532 900.105,300.532 906,282.5C 910.359,267.382 914.859,252.382 919.5,237.5C 921.157,245.798 922.657,254.132 924,262.5C 937.938,302.977 954.604,342.31 974,380.5C 992.072,417.049 1004.74,455.382 1012,495.5C 1012.67,505.833 1012.67,516.167 1012,526.5C 1010.73,533.234 1008.4,539.567 1005,545.5C 995.991,557.507 984.824,567.007 971.5,574C 970.663,575.011 970.33,576.178 970.5,577.5C 977.192,576.923 983.858,576.09 990.5,575C 1002.71,571.23 1013.38,564.896 1022.5,556C 1027.01,550.658 1031.68,545.492 1036.5,540.5C 1037.32,543.446 1037.32,546.446 1036.5,549.5 Z"/></g>
<g><path style="opacity:1" fill="#8a231b" d="M 586.5,260.5 C 591.359,292.551 602.859,322.218 621,349.5C 630.619,361.786 640.952,373.453 652,384.5C 653.92,387.339 655.587,390.339 657,393.5C 666.646,428.407 666.98,463.407 658,498.5C 653.343,513.658 644.843,526.158 632.5,536C 628.372,538.808 623.872,540.641 619,541.5C 613.975,540.492 609.975,537.825 607,533.5C 586.089,500.195 575.256,463.862 574.5,424.5C 569.446,429.939 565.946,436.272 564,443.5C 561.627,467.64 564.961,490.973 574,513.5C 580.737,527.233 590.57,538.066 603.5,546C 605.025,547.009 606.692,547.509 608.5,547.5C 606.541,551.981 603.541,555.815 599.5,559C 580.754,571.247 560.088,576.913 537.5,576C 530.129,568.96 522.462,562.294 514.5,556C 502.567,545.966 496.734,533.133 497,517.5C 495.78,494.82 499.113,472.82 507,451.5C 526.834,403.335 547.834,355.668 570,308.5C 576.01,292.637 581.51,276.637 586.5,260.5 Z"/></g>
<g><path style="opacity:1" fill="#8a231b" d="M 918.5,258.5 C 921.782,274.335 926.282,290.001 932,305.5C 953.825,353.483 974.825,401.816 995,450.5C 1002.17,470.36 1006.01,490.86 1006.5,512C 1008,524.851 1004.83,536.351 997,546.5C 987.631,555.537 977.965,564.204 968,572.5C 967.506,574.134 967.34,575.801 967.5,577.5C 945.077,578.495 924.743,572.662 906.5,560C 902.686,557.353 899.353,554.187 896.5,550.5C 900.207,545.482 904.874,541.649 910.5,539C 921.737,528.36 929.237,515.526 933,500.5C 938.537,478.224 938.87,455.89 934,433.5C 932.591,430.418 930.758,427.585 928.5,425C 927.551,424.383 926.718,424.549 926,425.5C 926.781,445.591 924.448,465.257 919,484.5C 914.431,499.631 908.764,514.298 902,528.5C 899.167,532.667 895.667,536.167 891.5,539C 886.303,539.867 881.303,539.2 876.5,537C 860.292,524.098 849.458,507.598 844,487.5C 836.422,455.744 836.756,424.077 845,392.5C 847.748,387.334 850.748,382.334 854,377.5C 886.974,344.229 908.474,304.563 918.5,258.5 Z"/></g>
<g><path style="opacity:0.29" fill="#dbb088" d="M 724.5,417.5 C 727.989,418.658 731.322,419.991 734.5,421.5C 730.349,421.901 727.015,420.567 724.5,417.5 Z"/></g>
<g><path style="opacity:0.709" fill="#d7b258" d="M 721.5,416.5 C 722.609,416.557 723.609,416.89 724.5,417.5C 727.015,420.567 730.349,421.901 734.5,421.5C 742.49,425.317 750.823,426.317 759.5,424.5C 757.928,425.687 756.261,426.687 754.5,427.5C 752.254,428.107 749.921,428.44 747.5,428.5C 737.703,427.679 728.703,424.679 720.5,419.5C 722.796,419.196 723.129,418.196 721.5,416.5 Z"/></g>
<g><path style="opacity:0.533" fill="#deb876" d="M 784.5,412.5 C 784.489,414.017 783.823,415.184 782.5,416C 775.288,420.214 767.621,423.047 759.5,424.5C 768.139,421.279 776.473,417.279 784.5,412.5 Z"/></g>
<g><path style="opacity:1" fill="#57532d" d="M 766.5,425.5 C 764.095,426.768 761.428,427.435 758.5,427.5C 760.838,425.96 763.505,425.294 766.5,425.5 Z"/></g>
<g><path style="opacity:0.078" fill="#d69d71" d="M 1014.5,453.5 C 1015.91,456.219 1016.58,459.219 1016.5,462.5C 1015.09,459.781 1014.42,456.781 1014.5,453.5 Z"/></g>
<g><path style="opacity:0.004" fill="#d9a68a" d="M 1020.5,483.5 C 1021.12,483.611 1021.62,483.944 1022,484.5C 1022.5,486.473 1022.66,488.473 1022.5,490.5C 1021.39,488.401 1020.72,486.067 1020.5,483.5 Z"/></g>
<g><path style="opacity:0.992" fill="#8a241c" d="M 457.5,492.5 C 456.612,495.054 456.279,497.721 456.5,500.5C 455.842,499.602 455.176,498.602 454.5,497.5C 445.264,543.796 438.764,590.463 435,637.5C 432.207,700.965 445.54,760.632 475,816.5C 491.937,844.781 511.937,870.781 535,894.5C 565.478,926.336 601.645,949.502 643.5,964C 655.47,969.984 666.804,976.984 677.5,985C 686.203,993.371 695.203,1001.37 704.5,1009C 708.262,1011.16 712.262,1011.82 716.5,1011C 710.439,1009.27 705.105,1006.27 700.5,1002C 691.202,990.368 680.869,979.701 669.5,970C 657.292,963.396 644.959,957.063 632.5,951C 615.741,946.784 600.075,940.118 585.5,931C 580.887,926.928 577.387,922.095 575,916.5C 570.659,897.042 575.159,880.042 588.5,865.5C 581.023,862.261 573.69,858.761 566.5,855C 546.045,842.212 529.212,825.712 516,805.5C 513.461,800.204 511.128,794.87 509,789.5C 508.721,785.83 508.888,782.163 509.5,778.5C 510.675,778.281 511.675,778.614 512.5,779.5C 524.884,814.721 548.217,839.887 582.5,855C 597.202,860.338 611.868,865.672 626.5,871C 655.984,882.487 677.817,902.32 692,930.5C 699.154,949.27 704.154,968.604 707,988.5C 710.351,1001.11 718.518,1008.61 731.5,1011C 746.174,1012.93 760.841,1012.93 775.5,1011C 786.369,1008.13 793.202,1001.3 796,990.5C 798.728,969.793 803.061,949.46 809,929.5C 822.005,903.496 841.838,884.662 868.5,873C 885.899,866.979 903.232,860.645 920.5,854C 934.161,847.17 946.827,838.837 958.5,829C 971.623,816.188 981.123,801.022 987,783.5C 988.508,781.162 990.675,780.162 993.5,780.5C 993.631,785.978 992.798,791.311 991,796.5C 987.561,803.814 983.561,810.814 979,817.5C 969.526,826.305 960.026,835.139 950.5,844C 937.759,852.034 924.759,859.534 911.5,866.5C 915.475,868.642 918.642,871.642 921,875.5C 924.815,882.132 927.815,889.132 930,896.5C 930.801,910.441 926.301,922.274 916.5,932C 899.116,939.358 881.449,946.358 863.5,953C 850.548,958.472 838.548,965.472 827.5,974C 819.538,983.631 811.204,992.964 802.5,1002C 798.302,1005.03 793.968,1007.86 789.5,1010.5C 789.833,1010.83 790.167,1011.17 790.5,1011.5C 806.598,1003.59 820.598,992.759 832.5,979C 836.11,977.056 839.443,974.723 842.5,972C 863.764,962.015 885.097,952.015 906.5,942C 911.833,938.667 917.167,935.333 922.5,932C 932.874,922.624 943.54,913.624 954.5,905C 961.302,897.197 968.469,889.697 976,882.5C 1043.08,807.662 1073.08,719.662 1066,618.5C 1064.5,604.52 1063.17,590.52 1062,576.5C 1056.86,550.006 1052.7,523.34 1049.5,496.5C 1048.82,496.863 1048.15,497.196 1047.5,497.5C 1046.89,496.609 1046.56,495.609 1046.5,494.5C 1046.78,492.037 1047.78,489.87 1049.5,488C 1051.37,487.289 1052.87,487.789 1054,489.5C 1056.39,499.033 1057.89,508.7 1058.5,518.5C 1064.33,549.143 1068.99,579.809 1072.5,610.5C 1072.48,621.041 1073.15,631.541 1074.5,642C 1073.21,662.167 1071.71,682.334 1070,702.5C 1063.14,748.699 1047.47,791.699 1023,831.5C 1012.1,847.731 1000.44,863.398 988,878.5C 971.571,896.765 954.071,913.765 935.5,929.5C 926.162,935.841 917.162,942.675 908.5,950C 894.381,957.724 879.714,964.39 864.5,970C 859.5,973.503 854.166,976.503 848.5,979C 836.474,989.695 824.474,1000.36 812.5,1011C 803.549,1015.2 794.549,1019.2 785.5,1023C 755.371,1028.04 726.037,1025.04 697.5,1014C 691.316,1008.16 684.316,1003.49 676.5,1000C 668.666,991.413 660,983.746 650.5,977C 637.425,970.4 624.091,964.4 610.5,959C 601.261,954.238 592.595,949.404 584.5,944.5C 573.543,935.888 562.543,927.221 551.5,918.5C 541.479,908.812 531.479,899.145 521.5,889.5C 521.5,888.833 521.167,888.5 520.5,888.5C 520.5,887.833 520.167,887.5 519.5,887.5C 505.538,870.934 492.038,853.934 479,836.5C 473.025,824.886 466.692,813.552 460,802.5C 449.862,779.75 441.529,756.416 435,732.5C 428.285,689.831 426.285,646.831 429,603.5C 432.629,570.599 437.795,537.932 444.5,505.5C 446.805,499.618 448.805,493.618 450.5,487.5C 451.968,485.667 453.635,485.334 455.5,486.5C 456.747,488.323 457.414,490.323 457.5,492.5 Z"/></g>
<g><path style="opacity:0.004" fill="#b8c8e9" d="M 1032.5,508.5 C 1035,508.511 1035.17,509.178 1033,510.5C 1032.54,509.906 1032.37,509.239 1032.5,508.5 Z"/></g>
<g><path style="opacity:0.004" fill="#cccde2" d="M 1031.5,513.5 C 1030.47,513.103 1030.31,512.437 1031,511.5C 1031.46,512.094 1031.63,512.761 1031.5,513.5 Z"/></g>
<g><path style="opacity:1" fill="#453e2f" d="M 456.5,516.5 C 457.593,521.306 458.259,526.306 458.5,531.5C 456.855,526.766 456.189,521.766 456.5,516.5 Z"/></g>
<g><path style="opacity:0.29" fill="#ab5345" d="M 1058.5,518.5 C 1059.67,522.109 1060.83,525.776 1062,529.5C 1064.25,544.994 1066.92,560.328 1070,575.5C 1071.5,587.124 1072.33,598.79 1072.5,610.5C 1068.99,579.809 1064.33,549.143 1058.5,518.5 Z"/></g>
<g><path style="opacity:1" fill="#434235" d="M 460.5,553.5 C 461.551,558.646 462.218,563.979 462.5,569.5C 460.822,564.432 460.156,559.098 460.5,553.5 Z"/></g>
<g><path style="opacity:1" fill="#62593b" d="M 1036.5,549.5 C 1036.06,556 1035.4,562.334 1034.5,568.5C 1034.33,563.489 1034.5,558.489 1035,553.5C 1035.21,551.942 1035.71,550.609 1036.5,549.5 Z"/></g>
<g><path style="opacity:1" fill="#e8bf51" d="M 617.5,606.5 C 614.686,605.835 611.686,605.502 608.5,605.5C 602.932,605.429 597.599,606.096 592.5,607.5C 584.445,608.805 576.612,610.805 569,613.5C 564.746,612.769 563.58,610.435 565.5,606.5C 571.715,601.728 578.715,598.561 586.5,597C 601.006,594.442 615.339,595.109 629.5,599C 639.274,603.633 647.107,610.466 653,619.5C 654.307,623.061 655.14,626.727 655.5,630.5C 655.635,632.808 654.969,634.808 653.5,636.5C 647.201,619.525 635.201,609.525 617.5,606.5 Z"/></g>
<g><path style="opacity:1" fill="#e8c051" d="M 903.5,606.5 C 896.11,605.148 888.777,605.481 881.5,607.5C 866.133,610.689 855.8,619.689 850.5,634.5C 849.675,635.386 848.675,635.719 847.5,635.5C 849.756,613.733 861.756,600.566 883.5,596C 901.325,593.633 918.325,596.3 934.5,604C 938.729,606.329 939.396,609.329 936.5,613C 925.665,610.379 914.665,608.212 903.5,606.5 Z"/></g>
<g><path style="opacity:1" fill="#4d4840" d="M 617.5,606.5 C 609.149,606.482 600.816,606.815 592.5,607.5C 597.599,606.096 602.932,605.429 608.5,605.5C 611.686,605.502 614.686,605.835 617.5,606.5 Z"/></g>
<g><path style="opacity:1" fill="#48453c" d="M 903.5,606.5 C 896.151,606.549 888.817,606.882 881.5,607.5C 888.777,605.481 896.11,605.148 903.5,606.5 Z"/></g>
<g><path style="opacity:1" fill="#8a241c" d="M 1003.5,621.5 C 1012.72,621.114 1021.05,623.614 1028.5,629C 1030.15,630.47 1031.15,632.303 1031.5,634.5C 1022.75,677.443 1006.58,717.443 983,754.5C 966.05,768.38 948.216,780.88 929.5,792C 925.527,792.998 921.527,793.331 917.5,793C 915.596,789.429 912.763,786.929 909,785.5C 900.098,791.371 890.932,796.871 881.5,802C 863.068,808.698 845.068,816.365 827.5,825C 810.392,836.611 795.392,850.444 782.5,866.5C 775.965,817.152 787.132,772.152 816,731.5C 828.72,718.551 843.554,708.718 860.5,702C 881.475,693.142 903.142,686.809 925.5,683C 945.427,676.787 963.594,667.287 980,654.5C 988.334,643.823 996.167,632.823 1003.5,621.5 Z"/></g>
<g><path style="opacity:1" fill="#8a241c" d="M 483.5,622.5 C 490.835,621.22 496.669,623.553 501,629.5C 510.167,648 524,661.833 542.5,671C 562.383,679.514 583.05,685.847 604.5,690C 624.46,695.646 643.794,702.979 662.5,712C 667.923,715.419 672.756,719.585 677,724.5C 689.798,740.758 699.464,758.758 706,778.5C 714.006,807.704 717.84,837.37 717.5,867.5C 705.261,850.765 690.261,836.931 672.5,826C 652.286,816.481 631.952,807.147 611.5,798C 605.156,794.496 599.156,790.496 593.5,786C 592.167,785.333 590.833,785.333 589.5,786C 584.182,793.513 577.182,795.513 568.5,792C 551.517,781.024 535.684,768.524 521,754.5C 511.627,740.419 503.293,725.753 496,710.5C 486.87,689.577 478.87,668.243 472,646.5C 471.333,641.5 471.333,636.5 472,631.5C 474.577,626.742 478.41,623.742 483.5,622.5 Z"/></g>
<g><path style="opacity:1" fill="#e7c051" d="M 928.5,655.5 C 936.892,655.394 938.558,658.561 933.5,665C 923.339,669.125 913.005,672.791 902.5,676C 879.607,680.854 857.273,687.521 835.5,696C 831.007,698.079 826.674,700.412 822.5,703C 818.912,703.611 817.746,702.111 819,698.5C 839.032,684.567 860.532,673.4 883.5,665C 898.597,661.637 913.597,658.471 928.5,655.5 Z"/></g>
<g><path style="opacity:1" fill="#e8c051" d="M 565.5,656.5 C 587.627,658.759 609.294,663.259 630.5,670C 644.001,675.916 657.001,682.582 669.5,690C 673.916,692.412 677.749,695.578 681,699.5C 681.49,700.793 681.657,702.127 681.5,703.5C 679.801,703.66 678.134,703.494 676.5,703C 655.978,691.27 633.978,683.937 610.5,681C 598.007,677.127 585.674,672.793 573.5,668C 569.581,666.46 566.081,664.293 563,661.5C 563.058,659.565 563.891,657.898 565.5,656.5 Z"/></g>
<g><path style="opacity:1" fill="#f8f2f2" d="M 536.5,705.5 C 539.614,706.091 542.114,707.758 544,710.5C 548.944,718.443 554.277,726.109 560,733.5C 566.204,745.737 571.704,758.237 576.5,771C 576.355,771.772 576.022,772.439 575.5,773C 571.316,774.165 568.483,772.665 567,768.5C 558.339,748.179 548.339,728.512 537,709.5C 536.51,708.207 536.343,706.873 536.5,705.5 Z"/></g>
<g><path style="opacity:1" fill="#f7f2f2" d="M 961.5,706.5 C 965.071,706.408 966.238,708.074 965,711.5C 952.862,730.633 942.029,750.467 932.5,771C 927.333,772.5 925.5,770.667 927,765.5C 931.465,755.117 936.132,744.784 941,734.5C 946.892,724.447 953.725,715.113 961.5,706.5 Z"/></g>
<g><path style="opacity:1" fill="#f9f4f3" d="M 553.5,709.5 C 572.186,709.291 590.853,709.791 609.5,711C 623.077,712.181 636.077,715.514 648.5,721C 658.341,729.477 667.175,738.977 675,749.5C 682.333,759.5 689.667,769.5 697,779.5C 697.494,781.134 697.66,782.801 697.5,784.5C 696.127,784.657 694.793,784.49 693.5,784C 681.25,771.088 669.75,757.588 659,743.5C 653.833,737 648,731.167 641.5,726C 616.906,719.607 591.906,716.774 566.5,717.5C 574.312,732.116 580.145,747.449 584,763.5C 590.249,766.245 596.749,768.411 603.5,770C 624.771,774.654 645.771,780.321 666.5,787C 668.555,787.687 670.221,788.854 671.5,790.5C 665.863,791.663 660.196,791.83 654.5,791C 629.601,786.69 605.267,780.023 581.5,771C 576.318,759.447 571.484,747.614 567,735.5C 564,729.833 561,724.167 558,718.5C 556.333,716.833 554.667,715.167 553,713.5C 552.421,712.072 552.588,710.738 553.5,709.5 Z"/></g>
<g><path style="opacity:1" fill="#f7f4f3" d="M 908.5,709.5 C 918.839,709.334 929.172,709.5 939.5,710C 940.804,710.804 941.471,711.971 941.5,713.5C 932.817,731.546 925.651,750.213 920,769.5C 919.167,770.333 918.333,771.167 917.5,772C 913.469,772.481 909.469,773.147 905.5,774C 882.279,782.605 858.279,788.772 833.5,792.5C 833.178,790.278 833.845,788.444 835.5,787C 858.478,780.837 881.478,774.504 904.5,768C 908.418,766.844 912.418,766.344 916.5,766.5C 918.95,757.567 921.45,748.567 924,739.5C 926.473,733.221 929.473,727.221 933,721.5C 933.667,720.167 933.667,718.833 933,717.5C 913.833,717.137 894.666,718.303 875.5,721C 867.996,722.752 861.33,726.085 855.5,731C 836.5,750.667 817.5,770.333 798.5,790C 797.056,790.781 795.723,790.614 794.5,789.5C 812.878,764.621 833.544,741.788 856.5,721C 860.888,718.139 865.554,715.806 870.5,714C 883.185,711.383 895.852,709.883 908.5,709.5 Z"/></g>
<g><path style="opacity:1" fill="#143034" d="M 578.5,723.5 C 592.803,725.464 607.136,727.297 621.5,729C 627.363,729.587 633.03,730.92 638.5,733C 651.425,744.59 662.925,757.423 673,771.5C 679.708,778.375 686.541,785.042 693.5,791.5C 693.167,791.833 692.833,792.167 692.5,792.5C 679.903,788.196 667.57,783.363 655.5,778C 639.918,773.618 624.252,769.618 608.5,766C 602.662,764.458 596.995,762.458 591.5,760C 589.622,758.457 588.122,756.624 587,754.5C 584.662,743.993 581.829,733.659 578.5,723.5 Z"/></g>
<g><path style="opacity:1" fill="#143034" d="M 918.5,722.5 C 920.665,722.116 922.332,722.783 923.5,724.5C 919.329,735.846 915.662,747.346 912.5,759C 885.93,768.044 858.93,775.71 831.5,782C 824.045,785.227 816.712,788.727 809.5,792.5C 809.167,792.167 808.833,791.833 808.5,791.5C 821.873,776.795 834.873,761.795 847.5,746.5C 854.819,738.004 863.819,732.171 874.5,729C 889.379,727.296 904.046,725.13 918.5,722.5 Z"/></g>
<g><path style="opacity:0.137" fill="#ac5654" d="M 519.5,887.5 C 520.167,887.5 520.5,887.833 520.5,888.5C 521.167,888.5 521.5,888.833 521.5,889.5C 521.611,891.648 520.944,891.981 519.5,890.5C 518.224,889.386 518.224,888.386 519.5,887.5 Z"/></g>
<g><path style="opacity:0.004" fill="#b0a091" d="M 539.5,909.5 C 541.337,909.639 541.67,910.306 540.5,911.5C 539.702,911.043 539.369,910.376 539.5,909.5 Z"/></g>
<g><path style="opacity:0.004" fill="#eac1c0" d="M 935.5,929.5 C 936.773,930.077 936.773,930.743 935.5,931.5C 934.537,931.03 934.537,930.363 935.5,929.5 Z"/></g>
<g><path style="opacity:1" fill="#88221b" d="M 744.5,941.5 C 763.087,937.265 774.087,944.265 777.5,962.5C 777.237,967.66 775.903,972.494 773.5,977C 770.525,979.004 767.192,980.004 763.5,980C 752.734,980.976 742.067,980.476 731.5,978.5C 727.866,974.779 725.866,970.279 725.5,965C 725.559,951.799 731.892,943.966 744.5,941.5 Z"/></g>
<g><path style="opacity:0.004" fill="#b5adca" d="M 584.5,944.5 C 584.489,947.001 583.822,947.168 582.5,945C 583.094,944.536 583.761,944.369 584.5,944.5 Z"/></g>
<g><path style="opacity:0.035" fill="#975b65" d="M 599.5,955.5 C 599.897,954.475 600.563,954.308 601.5,955C 600.906,955.464 600.239,955.631 599.5,955.5 Z"/></g>
<g><path style="opacity:0.974" fill="#0d191b" d="M 663.5,1056.5 C 671.322,1055.58 676.989,1058.58 680.5,1065.5C 693.724,1059.12 707.057,1058.95 720.5,1065C 726.904,1069.02 729.571,1074.85 728.5,1082.5C 727.042,1104.85 727.209,1127.18 729,1149.5C 729.488,1154.61 730.488,1159.61 732,1164.5C 732.782,1167.08 734.282,1169.08 736.5,1170.5C 736.337,1151.55 735.17,1132.55 733,1113.5C 732.333,1103.5 732.333,1093.5 733,1083.5C 733.576,1079.51 734.909,1075.85 737,1072.5C 740.883,1068.95 745.049,1065.78 749.5,1063C 762.27,1058.78 774.27,1060.28 785.5,1067.5C 789.275,1064.28 793.609,1062.11 798.5,1061C 805.833,1060.33 813.167,1060.33 820.5,1061C 829.901,1063.42 834.401,1069.59 834,1079.5C 837.286,1075.76 840.453,1071.93 843.5,1068C 849.974,1064.68 856.64,1061.84 863.5,1059.5C 869.589,1061.47 875.089,1064.47 880,1068.5C 883.481,1065.25 887.648,1063.41 892.5,1063C 911.167,1062.33 929.833,1062.33 948.5,1063C 953.372,1064.1 958.038,1065.77 962.5,1068C 964.894,1069.95 966.394,1072.45 967,1075.5C 967.707,1093.34 967.541,1111.17 966.5,1129C 966.845,1139.56 967.678,1150.06 969,1160.5C 970,1163.17 971,1165.83 972,1168.5C 975.416,1170.79 978.916,1172.96 982.5,1175C 985.097,1178.72 988.263,1181.89 992,1184.5C 996.941,1199.01 993.108,1210.51 980.5,1219C 954.998,1223 936.165,1213.5 924,1190.5C 924.341,1204.05 919.508,1215.21 909.5,1224C 904.563,1225.44 899.563,1226.1 894.5,1226C 889.833,1224.33 885.167,1222.67 880.5,1221C 878.951,1219.79 877.785,1218.29 877,1216.5C 874.321,1221.84 869.987,1224.84 864,1225.5C 854.138,1226.25 845.472,1223.25 838,1216.5C 834.134,1204.94 830.801,1193.28 828,1181.5C 825.494,1194.69 820.827,1207.02 814,1218.5C 807.963,1223.6 801.13,1227.27 793.5,1229.5C 788.124,1227.98 783.124,1225.65 778.5,1222.5C 771.588,1224.96 764.588,1225.46 757.5,1224C 735.202,1226.76 715.202,1221.43 697.5,1208C 695.041,1205.55 692.708,1203.05 690.5,1200.5C 686.302,1215.88 676.302,1223.38 660.5,1223C 643.526,1217.76 629.026,1208.6 617,1195.5C 615.309,1201.6 613.309,1207.6 611,1213.5C 606.374,1219.13 600.874,1223.63 594.5,1227C 585.255,1227.15 577.088,1224.32 570,1218.5C 559.241,1224.26 548.741,1223.76 538.5,1217C 535.913,1214.09 533.746,1210.92 532,1207.5C 529.343,1210.15 527.177,1213.15 525.5,1216.5C 523.972,1217.86 522.305,1219.03 520.5,1220C 495.833,1224.35 483.666,1213.85 484,1188.5C 481.666,1201.01 475.832,1211.51 466.5,1220C 458.132,1223.91 449.466,1224.91 440.5,1223C 438.082,1219.95 435.082,1217.62 431.5,1216C 425.572,1207.79 424.405,1198.96 428,1189.5C 432.198,1183.84 433.865,1177.51 433,1170.5C 422.353,1200.59 401.186,1218.09 369.5,1223C 362.833,1223.67 356.167,1223.67 349.5,1223C 345.512,1222.42 341.845,1221.09 338.5,1219C 336.015,1215.19 333.182,1211.69 330,1208.5C 327.214,1198.27 328.547,1188.6 334,1179.5C 335.938,1176.89 338.438,1175.06 341.5,1174C 348.42,1172.26 355.42,1170.93 362.5,1170C 365.376,1169.56 368.043,1168.56 370.5,1167C 349.689,1156.17 336.189,1139.34 330,1116.5C 325.266,1101.05 325.599,1085.71 331,1070.5C 333.836,1065 338.336,1061.83 344.5,1061C 368.833,1060.33 393.167,1060.33 417.5,1061C 420.637,1061.6 423.637,1062.6 426.5,1064C 429.06,1066.97 431.727,1069.8 434.5,1072.5C 448.47,1059.88 464.137,1057.38 481.5,1065C 483.758,1067.58 485.591,1070.42 487,1073.5C 500.245,1059.54 515.745,1056.71 533.5,1065C 535.57,1065.95 537.07,1067.45 538,1069.5C 541.212,1065.64 545.379,1063.48 550.5,1063C 558.675,1062.08 566.675,1062.91 574.5,1065.5C 590.385,1058.39 606.051,1058.89 621.5,1067C 623.617,1068.73 625.117,1070.9 626,1073.5C 627.836,1085.52 629.836,1097.52 632,1109.5C 633.601,1115.64 635.601,1121.64 638,1127.5C 637.522,1106.51 640.855,1086.17 648,1066.5C 651.173,1060 656.34,1056.67 663.5,1056.5 Z M 431.5,1107.5 C 432.824,1112.18 433.824,1117.01 434.5,1122C 434.167,1122.33 433.833,1122.67 433.5,1123C 428.192,1122.35 422.859,1121.35 417.5,1120C 410.5,1119.67 403.5,1119.33 396.5,1119C 394.668,1118.25 393.001,1117.25 391.5,1116C 400.861,1115.19 410.195,1114.19 419.5,1113C 424.176,1112.4 428.176,1110.56 431.5,1107.5 Z M 868.5,1121.5 C 869.654,1127.99 869.821,1134.65 869,1141.5C 866.5,1137.83 864,1134.17 861.5,1130.5C 864.084,1127.65 866.417,1124.65 868.5,1121.5 Z"/></g>
<g><path style="opacity:0.968" fill="#0d191b" d="M 1072.5,1059.5 C 1082.38,1058.71 1091.71,1060.54 1100.5,1065C 1108.17,1065.67 1115.83,1065.67 1123.5,1065C 1135.42,1058.41 1147.75,1057.75 1160.5,1063C 1167.83,1067.59 1170.83,1074.25 1169.5,1083C 1168.74,1098.84 1167.91,1114.67 1167,1130.5C 1166.52,1158.65 1156.68,1182.82 1137.5,1203C 1121.18,1216.06 1102.51,1223.56 1081.5,1225.5C 1072.57,1223.62 1063.74,1221.29 1055,1218.5C 1042.39,1224.88 1030.73,1223.55 1020,1214.5C 1017.26,1209.9 1015.6,1204.9 1015,1199.5C 1013.22,1167.52 1011.72,1135.52 1010.5,1103.5C 1010.27,1093.08 1012.1,1083.08 1016,1073.5C 1028.83,1061.62 1043.33,1059.29 1059.5,1066.5C 1063.21,1062.83 1067.55,1060.5 1072.5,1059.5 Z M 1104.5,1120.5 C 1106.83,1120.5 1109.17,1120.5 1111.5,1120.5C 1111.81,1129.55 1111.31,1138.55 1110,1147.5C 1109.06,1152.05 1107.06,1156.05 1104,1159.5C 1103.87,1146.5 1104.03,1133.5 1104.5,1120.5 Z"/></g>
<g><path style="opacity:1" fill="#f3f0f0" d="M 684.5,1160.5 C 684.002,1157.51 683.502,1154.51 683,1151.5C 682.5,1165.16 682.333,1178.83 682.5,1192.5C 683.297,1203.41 678.63,1210.91 668.5,1215C 660.093,1215.98 652.426,1213.98 645.5,1209C 632.418,1200.59 621.251,1190.09 612,1177.5C 610.162,1187.86 607.829,1198.19 605,1208.5C 601.527,1211.97 598.027,1215.47 594.5,1219C 585.94,1219.59 578.773,1216.76 573,1210.5C 572.08,1207.9 571.413,1205.23 571,1202.5C 569.013,1206.15 566.847,1209.65 564.5,1213C 555.598,1216.09 547.764,1214.59 541,1208.5C 537.655,1191.35 536.155,1174.01 536.5,1156.5C 534.194,1156.99 531.861,1157.33 529.5,1157.5C 529.469,1172.61 528.302,1187.61 526,1202.5C 523.287,1206.09 520.453,1209.59 517.5,1213C 508.553,1215.26 501.053,1213.1 495,1206.5C 492.018,1191.33 490.851,1176 491.5,1160.5C 487.833,1160.5 484.167,1160.5 480.5,1160.5C 479.982,1175.89 476.482,1190.55 470,1204.5C 467.537,1207.96 464.704,1211.13 461.5,1214C 456.914,1214.89 452.414,1216.06 448,1217.5C 443.845,1215.09 439.845,1212.42 436,1209.5C 433.275,1204.01 432.942,1198.35 435,1192.5C 436.586,1190.33 437.92,1188 439,1185.5C 440.6,1178.56 441.767,1171.56 442.5,1164.5C 441.127,1164.66 439.793,1164.49 438.5,1164C 436.473,1161.32 433.807,1159.65 430.5,1159C 429.299,1158.1 428.465,1156.93 428,1155.5C 425.855,1176.96 415.688,1193.46 397.5,1205C 381.046,1215.07 363.379,1218.07 344.5,1214C 343.107,1212.83 342.273,1211.33 342,1209.5C 340.045,1208.55 338.378,1207.21 337,1205.5C 335.968,1198.58 336.635,1191.91 339,1185.5C 341.1,1182.53 343.934,1180.7 347.5,1180C 358.622,1179.51 368.955,1176.51 378.5,1171C 380.874,1168.96 382.874,1166.63 384.5,1164C 357.832,1155.32 341.665,1137.16 336,1109.5C 333.465,1097.27 334.131,1085.27 338,1073.5C 339.5,1072 341,1070.5 342.5,1069C 368.882,1068.04 395.216,1068.37 421.5,1070C 431.566,1079.98 432.899,1090.98 425.5,1103C 419.371,1105.23 413.038,1106.56 406.5,1107C 396.833,1107.33 387.167,1107.67 377.5,1108C 380.407,1117.24 386.407,1123.57 395.5,1127C 403.5,1127.33 411.5,1127.67 419.5,1128C 423.953,1128.36 427.12,1130.53 429,1134.5C 432.706,1130.73 437.206,1128.73 442.5,1128.5C 441.997,1121.13 441.163,1113.8 440,1106.5C 439.333,1097.5 439.333,1088.5 440,1079.5C 442.894,1077.5 445.394,1075 447.5,1072C 457.022,1067.77 466.689,1067.43 476.5,1071C 477.701,1071.9 478.535,1073.07 479,1074.5C 480.377,1090.14 481.211,1105.8 481.5,1121.5C 484.86,1121.38 488.193,1121.05 491.5,1120.5C 491.333,1108.16 491.5,1095.83 492,1083.5C 492.511,1081.12 493.178,1078.79 494,1076.5C 498.107,1074.5 501.94,1072 505.5,1069C 511.167,1068.33 516.833,1068.33 522.5,1069C 525.895,1070.11 529.061,1071.61 532,1073.5C 532.661,1085.68 532.494,1097.84 531.5,1110C 531.667,1112.5 531.833,1115 532,1117.5C 532.383,1118.06 532.883,1118.39 533.5,1118.5C 533.56,1119.04 533.893,1119.38 534.5,1119.5C 535.806,1116.02 535.806,1112.69 534.5,1109.5C 534.006,1099.38 534.839,1089.38 537,1079.5C 540.922,1076.79 544.756,1073.96 548.5,1071C 558.28,1069.27 567.446,1070.77 576,1075.5C 578.727,1071.47 582.561,1069.3 587.5,1069C 596.851,1067.68 605.851,1068.68 614.5,1072C 616.286,1072.78 617.786,1073.95 619,1075.5C 620.423,1104.56 628.923,1131.23 644.5,1155.5C 644.783,1156.29 645.283,1156.96 646,1157.5C 646.5,1150.84 646.666,1144.17 646.5,1137.5C 646.172,1122.8 646.672,1108.13 648,1093.5C 650.845,1086.48 652.845,1079.14 654,1071.5C 656.268,1066.11 660.434,1063.77 666.5,1064.5C 671.13,1064.46 673.464,1066.8 673.5,1071.5C 676.624,1071.94 678.957,1073.61 680.5,1076.5C 683.457,1072.44 687.457,1069.94 692.5,1069C 701.092,1067.88 709.426,1068.88 717.5,1072C 718.333,1072.83 719.167,1073.67 720,1074.5C 719.507,1095.49 719.507,1116.49 720,1137.5C 720.1,1150.12 722.767,1162.12 728,1173.5C 732.983,1177.9 738.816,1179.9 745.5,1179.5C 744.514,1157.47 743.014,1135.47 741,1113.5C 740.065,1101.76 740.398,1090.09 742,1078.5C 743.171,1077.11 744.671,1076.27 746.5,1076C 748.329,1072.17 751.329,1069.84 755.5,1069C 761.882,1068.31 768.215,1068.64 774.5,1070C 776.848,1070.35 778.681,1071.51 780,1073.5C 780.615,1091.18 781.449,1108.84 782.5,1126.5C 783.736,1125.75 785.07,1125.42 786.5,1125.5C 785.803,1110.17 785.636,1094.84 786,1079.5C 786.273,1077.67 787.107,1076.17 788.5,1075C 791.228,1072.61 794.228,1070.61 797.5,1069C 804.433,1067.49 811.433,1067.16 818.5,1068C 821.196,1068.69 823.363,1070.19 825,1072.5C 825.714,1081.5 826.381,1090.5 827,1099.5C 835.25,1091.25 842.75,1082.42 849.5,1073C 854.471,1071.84 859.138,1070.01 863.5,1067.5C 870.305,1069.31 875.305,1073.31 878.5,1079.5C 881.804,1075.7 885.804,1072.86 890.5,1071C 909.833,1070.33 929.167,1070.33 948.5,1071C 952.451,1071.54 955.951,1073.04 959,1075.5C 959.052,1103.53 959.718,1131.53 961,1159.5C 962.073,1169.56 967.239,1176.39 976.5,1180C 979.097,1183.72 982.263,1186.89 986,1189.5C 987.274,1210.54 977.774,1217.7 957.5,1211C 943.833,1205.33 934.167,1195.67 928.5,1182C 924.179,1181.5 919.846,1181.33 915.5,1181.5C 915.868,1190.61 915.035,1199.61 913,1208.5C 910.618,1211.43 908.118,1214.26 905.5,1217C 901.878,1218.11 898.211,1218.44 894.5,1218C 891.861,1216.05 888.861,1215.05 885.5,1215C 884.667,1214.17 883.833,1213.33 883,1212.5C 881.015,1205.65 879.682,1198.65 879,1191.5C 878.065,1160.16 877.065,1128.83 876,1097.5C 868.349,1109.3 859.849,1120.46 850.5,1131C 870.043,1151.96 878.209,1176.8 875,1205.5C 872.938,1207.9 871.271,1210.57 870,1213.5C 868.786,1215.05 867.286,1216.22 865.5,1217C 857.198,1218.9 850.032,1217.07 844,1211.5C 841.131,1199.5 838.131,1187.5 835,1175.5C 832.768,1169.7 829.102,1165.03 824,1161.5C 822.108,1171.19 820.108,1180.85 818,1190.5C 815.907,1199.52 812.074,1207.68 806.5,1215C 802.282,1217.38 797.949,1219.55 793.5,1221.5C 790.317,1219.86 786.984,1218.36 783.5,1217C 782.167,1214.42 780.334,1212.25 778,1210.5C 777.208,1212.59 776.041,1214.42 774.5,1216C 770.822,1216.42 767.155,1216.92 763.5,1217.5C 761.933,1217.52 760.6,1217.02 759.5,1216C 716.224,1221.73 691.224,1203.23 684.5,1160.5 Z M 431.5,1107.5 C 428.176,1110.56 424.176,1112.4 419.5,1113C 410.195,1114.19 400.861,1115.19 391.5,1116C 393.001,1117.25 394.668,1118.25 396.5,1119C 403.5,1119.33 410.5,1119.67 417.5,1120C 422.859,1121.35 428.192,1122.35 433.5,1123C 433.833,1122.67 434.167,1122.33 434.5,1122C 433.824,1117.01 432.824,1112.18 431.5,1107.5 Z M 868.5,1121.5 C 866.417,1124.65 864.084,1127.65 861.5,1130.5C 864,1134.17 866.5,1137.83 869,1141.5C 869.821,1134.65 869.654,1127.99 868.5,1121.5 Z"/></g>
<g><path style="opacity:1" fill="#f4f1f0" d="M 1070.5,1067.5 C 1076.18,1067.33 1081.84,1067.5 1087.5,1068C 1091.34,1068.72 1094.68,1070.39 1097.5,1073C 1106.5,1073.67 1115.5,1073.67 1124.5,1073C 1134.91,1066.74 1145.91,1065.74 1157.5,1070C 1158.67,1071.17 1159.83,1072.33 1161,1073.5C 1161.04,1098.56 1159.7,1123.56 1157,1148.5C 1150.66,1185.04 1129.5,1207.54 1093.5,1216C 1087.89,1217.38 1082.22,1217.72 1076.5,1217C 1070.93,1215.23 1065.26,1213.56 1059.5,1212C 1058.67,1211.17 1057.83,1210.33 1057,1209.5C 1056.67,1206.83 1056.33,1204.17 1056,1201.5C 1053.36,1205.28 1050.86,1209.11 1048.5,1213C 1039.6,1216.09 1031.76,1214.59 1025,1208.5C 1024.33,1205.83 1023.67,1203.17 1023,1200.5C 1021.09,1166.86 1019.59,1133.19 1018.5,1099.5C 1018.35,1092.71 1019.19,1086.04 1021,1079.5C 1024.92,1076.79 1028.76,1073.96 1032.5,1071C 1038.17,1070.33 1043.83,1070.33 1049.5,1071C 1053.16,1071.83 1056.49,1073.33 1059.5,1075.5C 1063.75,1073.58 1067.41,1070.91 1070.5,1067.5 Z M 1104.5,1120.5 C 1104.03,1133.5 1103.87,1146.5 1104,1159.5C 1107.06,1156.05 1109.06,1152.05 1110,1147.5C 1111.31,1138.55 1111.81,1129.55 1111.5,1120.5C 1109.17,1120.5 1106.83,1120.5 1104.5,1120.5 Z"/></g>
<g><path style="opacity:1" fill="#8b251c" d="M 602.5,1200.5 C 601.778,1200.08 601.278,1199.42 601,1198.5C 600.062,1200.49 599.228,1202.49 598.5,1204.5C 597.149,1208.54 594.815,1211.87 591.5,1214.5C 589.104,1212.93 586.437,1212.1 583.5,1212C 582.228,1210.69 581.228,1209.19 580.5,1207.5C 579.833,1207.83 579.167,1208.17 578.5,1208.5C 578.167,1206.67 577.833,1204.83 577.5,1203C 578.878,1184.69 579.545,1166.36 579.5,1148C 579.021,1125.48 578.021,1102.98 576.5,1080.5C 578.201,1080.03 579.701,1080.03 581,1080.5C 581.807,1078.42 582.974,1076.59 584.5,1075C 591.459,1073.67 598.459,1073.34 605.5,1074C 605.957,1074.41 606.291,1074.91 606.5,1075.5C 609.027,1076.21 611.527,1076.88 614,1077.5C 615.494,1103.47 622.494,1127.8 635,1150.5C 639.238,1157.41 644.238,1163.74 650,1169.5C 651.032,1145.17 652.032,1120.84 653,1096.5C 653.333,1102.17 653.667,1107.83 654,1113.5C 653.969,1098.86 655.969,1084.52 660,1070.5C 660.45,1073.11 661.95,1074.44 664.5,1074.5C 664.343,1073.13 664.51,1071.79 665,1070.5C 666.418,1073 667.418,1072.67 668,1069.5C 669.455,1073.41 670.622,1077.41 671.5,1081.5C 672.806,1080.09 673.64,1078.42 674,1076.5C 675.232,1079.3 675.899,1082.3 676,1085.5C 677.582,1123.82 677.915,1162.15 677,1200.5C 674.695,1206.47 670.362,1209.8 664,1210.5C 654.631,1208.07 646.131,1203.9 638.5,1198C 626.846,1187.69 616.679,1176.19 608,1163.5C 606.121,1175.82 604.288,1188.15 602.5,1200.5 Z"/></g>
<g><path style="opacity:1" fill="#8b241c" d="M 1086.5,1211.5 C 1085.76,1211.63 1085.09,1211.46 1084.5,1211C 1085.5,1210.67 1086.5,1210.33 1087.5,1210C 1085.29,1209.21 1083.29,1209.38 1081.5,1210.5C 1074.65,1210.3 1067.98,1209.14 1061.5,1207C 1064.17,1205 1064.17,1203 1061.5,1201C 1062.09,1197.99 1063.75,1195.83 1066.5,1194.5C 1065.91,1193.2 1064.91,1192.37 1063.5,1192C 1075.95,1188.13 1088.28,1183.8 1100.5,1179C 1114.67,1171.47 1122.5,1159.64 1124,1143.5C 1124.5,1131.5 1124.67,1119.5 1124.5,1107.5C 1113.65,1106.86 1102.98,1107.86 1092.5,1110.5C 1090.98,1126.44 1090.31,1142.44 1090.5,1158.5C 1089.72,1161.18 1088.72,1163.85 1087.5,1166.5C 1086.6,1169.96 1084.94,1172.96 1082.5,1175.5C 1079.97,1174.21 1077.47,1174.21 1075,1175.5C 1073.11,1173.35 1070.94,1172.68 1068.5,1173.5C 1067.03,1172.62 1066.2,1171.29 1066,1169.5C 1063.3,1139.21 1062.47,1108.88 1063.5,1078.5C 1065.2,1078.03 1066.7,1078.03 1068,1078.5C 1068.98,1076.55 1070.15,1074.72 1071.5,1073C 1078.59,1072.34 1085.59,1072.84 1092.5,1074.5C 1092.33,1075.82 1092.66,1076.99 1093.5,1078C 1106.61,1079.04 1119.61,1078.54 1132.5,1076.5C 1132.36,1074.88 1133.03,1073.71 1134.5,1073C 1136.83,1072.83 1139.17,1072.67 1141.5,1072.5C 1146.63,1072.29 1151.46,1073.29 1156,1075.5C 1155.88,1100.93 1154.22,1126.27 1151,1151.5C 1143.15,1186.19 1121.65,1206.19 1086.5,1211.5 Z M 1104.5,1120.5 C 1104.03,1133.5 1103.87,1146.5 1104,1159.5C 1107.06,1156.05 1109.06,1152.05 1110,1147.5C 1111.31,1138.55 1111.81,1129.55 1111.5,1120.5C 1109.17,1120.5 1106.83,1120.5 1104.5,1120.5 Z"/></g>
<g><path style="opacity:1" fill="#8b241c" d="M 412.5,1073.5 C 413.5,1074.17 414.5,1074.83 415.5,1075.5C 418.484,1076.75 421.318,1078.41 424,1080.5C 424.733,1086.6 424.233,1092.6 422.5,1098.5C 418.981,1099.93 415.314,1100.77 411.5,1101C 398.856,1102.06 386.19,1102.73 373.5,1103C 372.643,1103.69 371.977,1104.52 371.5,1105.5C 374.196,1118.77 381.862,1127.6 394.5,1132C 402.833,1132.33 411.167,1132.67 419.5,1133C 428.136,1171 413.469,1196.33 375.5,1209C 366.861,1210.25 358.194,1210.58 349.5,1210C 351.167,1209.67 352.833,1209.33 354.5,1209C 349.048,1208.37 344.714,1205.87 341.5,1201.5C 342.131,1198.81 342.131,1196.31 341.5,1194C 342.833,1192.67 344.167,1191.33 345.5,1190C 344.833,1189.33 344.167,1188.67 343.5,1188C 344.716,1186.26 346.382,1185.26 348.5,1185C 364.22,1185.3 377.387,1179.8 388,1168.5C 390.209,1165.86 390.709,1163.03 389.5,1160C 363.934,1153.43 348.1,1137.27 342,1111.5C 338.834,1100.16 338.834,1088.83 342,1077.5C 342.465,1076.07 343.299,1074.9 344.5,1074C 367.164,1073.5 389.831,1073.33 412.5,1073.5 Z"/></g>
<g><path style="opacity:1" fill="#8b241c" d="M 465.5,1200.5 C 465.44,1199.96 465.107,1199.62 464.5,1199.5C 462.525,1202.8 460.191,1205.8 457.5,1208.5C 454.728,1209.59 451.895,1210.59 449,1211.5C 447.369,1209.37 445.202,1208.04 442.5,1207.5C 441.926,1204.82 441.259,1202.16 440.5,1199.5C 439.096,1201 438.43,1200.67 438.5,1198.5C 445.023,1186.39 448.023,1173.39 447.5,1159.5C 444.941,1159.8 442.607,1159.47 440.5,1158.5C 446.728,1158.18 446.395,1157.51 439.5,1156.5C 436.821,1156.33 434.487,1155.33 432.5,1153.5C 432.987,1152.55 433.32,1151.55 433.5,1150.5C 431.177,1147.05 431.511,1143.72 434.5,1140.5C 433.833,1139.83 433.167,1139.17 432.5,1138.5C 436.81,1134.95 441.81,1132.95 447.5,1132.5C 446.127,1115.53 445.127,1098.53 444.5,1081.5C 446.124,1081.64 447.29,1080.97 448,1079.5C 448.333,1079.83 448.667,1080.17 449,1080.5C 449.346,1078.15 450.513,1076.32 452.5,1075C 459.578,1072.9 466.578,1073.07 473.5,1075.5C 475.225,1092.79 476.225,1110.12 476.5,1127.5C 483.141,1126.61 489.808,1125.95 496.5,1125.5C 496.272,1110.47 496.772,1095.47 498,1080.5C 499.705,1079.24 501.372,1078.9 503,1079.5C 503.346,1077.15 504.513,1075.32 506.5,1074C 511.5,1073.33 516.5,1073.33 521.5,1074C 523.421,1074.36 525.088,1075.19 526.5,1076.5C 526.803,1091.47 526.803,1106.47 526.5,1121.5C 527.552,1121.35 528.552,1121.52 529.5,1122C 531.809,1125.26 534.309,1128.43 537,1131.5C 537.667,1137.5 537.667,1143.5 537,1149.5C 533.239,1151.72 529.073,1152.72 524.5,1152.5C 524.11,1167.52 523.277,1182.52 522,1197.5C 521.667,1195.83 521.333,1194.17 521,1192.5C 520.515,1198.47 518.515,1203.8 515,1208.5C 513.333,1205.83 511.667,1205.83 510,1208.5C 509,1207.17 508,1207.17 507,1208.5C 505.383,1207.15 504.216,1205.48 503.5,1203.5C 500.93,1206.16 499.43,1205.49 499,1201.5C 497.582,1186.22 497.082,1170.88 497.5,1155.5C 490.442,1155.2 483.442,1155.54 476.5,1156.5C 475.582,1165.59 474.082,1174.59 472,1183.5C 470.901,1189.68 468.734,1195.34 465.5,1200.5 Z"/></g>
<g><path style="opacity:1" fill="#8b241c" d="M 777.5,1175.5 C 777.666,1182.51 777.5,1189.51 777,1196.5C 775.957,1192.77 775.457,1193.11 775.5,1197.5C 775.438,1202.66 773.938,1207.33 771,1211.5C 768.899,1210.39 766.733,1210.39 764.5,1211.5C 762.617,1210.98 760.784,1210.31 759,1209.5C 717.945,1216.29 694.611,1198.95 689,1157.5C 687.114,1144.19 685.448,1130.86 684,1117.5C 682.923,1104.06 683.589,1090.73 686,1077.5C 688.602,1076.52 691.102,1075.36 693.5,1074C 700.959,1073.63 708.293,1074.46 715.5,1076.5C 714.393,1096.81 714.227,1117.15 715,1137.5C 714.71,1150.81 717.377,1163.48 723,1175.5C 730.765,1183.59 740.265,1186.59 751.5,1184.5C 750.194,1159.47 748.361,1134.47 746,1109.5C 745.333,1100.5 745.333,1091.5 746,1082.5C 749.504,1080.99 752.004,1078.49 753.5,1075C 760.881,1073.02 768.214,1073.19 775.5,1075.5C 776.083,1108.84 776.75,1142.17 777.5,1175.5 Z"/></g>
<g><path style="opacity:1" fill="#8b241c" d="M 851.5,1079.5 C 851.369,1080.24 851.536,1080.91 852,1081.5C 853.707,1079.96 855.207,1078.3 856.5,1076.5C 858.506,1075.49 860.506,1074.49 862.5,1073.5C 865.112,1075.64 868.112,1076.97 871.5,1077.5C 871.5,1079.5 871.5,1081.5 871.5,1083.5C 872.5,1083.5 873.5,1083.5 874.5,1083.5C 874.457,1088.6 872.957,1093.26 870,1097.5C 862.121,1109.55 853.288,1120.88 843.5,1131.5C 861.194,1148.24 870.194,1168.9 870.5,1193.5C 869.111,1197.89 867.445,1203.56 865.5,1210.5C 863.057,1210.43 860.557,1210.76 858,1211.5C 855.667,1211.42 853.834,1210.42 852.5,1208.5C 851.109,1209.64 849.776,1209.64 848.5,1208.5C 845.939,1198.2 843.439,1187.86 841,1177.5C 837.982,1165.32 830.482,1157.65 818.5,1154.5C 817.444,1170.28 814.277,1185.61 809,1200.5C 805.588,1204.64 801.754,1209.14 797.5,1214C 795.256,1216.3 793.59,1215.97 792.5,1213C 788.778,1213.65 786.612,1211.82 786,1207.5C 784.602,1206.95 783.268,1206.62 782,1206.5C 781.833,1205.5 781.667,1204.5 781.5,1203.5C 786.916,1189 789.75,1174 790,1158.5C 786.645,1156.81 784.311,1154.14 783,1150.5C 780.673,1144.41 780.173,1138.24 781.5,1132C 785.189,1131.15 788.856,1130.32 792.5,1129.5C 790.924,1113.2 790.424,1096.87 791,1080.5C 792.324,1079.12 793.657,1078.79 795,1079.5C 795.983,1077.55 797.15,1075.72 798.5,1074C 805.414,1073.19 812.248,1073.36 819,1074.5C 820.167,1086.78 821.333,1099.12 822.5,1111.5C 832.928,1101.41 842.595,1090.74 851.5,1079.5 Z"/></g>
<g><path style="opacity:1" fill="#af7571" d="M 412.5,1073.5 C 415.073,1073.15 417.406,1073.65 419.5,1075C 418.207,1075.49 416.873,1075.66 415.5,1075.5C 414.5,1074.83 413.5,1074.17 412.5,1073.5 Z"/></g>
<g><path style="opacity:1" fill="#8b231b" d="M 568.5,1188.5 C 567.51,1191.74 566.51,1195.07 565.5,1198.5C 564.751,1202.08 563.418,1205.42 561.5,1208.5C 558.522,1207.28 555.688,1207.62 553,1209.5C 551.833,1207.83 550.667,1206.17 549.5,1204.5C 547.184,1207.43 545.684,1207.09 545,1203.5C 542.703,1169.37 540.87,1135.2 539.5,1101C 539.906,1094.44 540.739,1087.94 542,1081.5C 545.297,1080.77 547.797,1078.93 549.5,1076C 556.612,1074.99 563.445,1075.83 570,1078.5C 569.635,1115.16 569.135,1151.83 568.5,1188.5 Z"/></g>
<g><path style="opacity:1" fill="#8b241c" d="M 909.5,1196.5 C 908.167,1196.5 907.5,1197.17 907.5,1198.5C 907.399,1203.81 905.733,1208.47 902.5,1212.5C 899.572,1212.1 896.572,1211.94 893.5,1212C 892.465,1208.39 890.798,1207.89 888.5,1210.5C 887.21,1208.34 886.376,1206.01 886,1203.5C 885.333,1197.5 884.667,1191.5 884,1185.5C 883.755,1157.98 882.921,1130.48 881.5,1103C 881.805,1095.79 882.472,1088.62 883.5,1081.5C 884.93,1081.58 886.264,1081.25 887.5,1080.5C 888.491,1078.68 889.824,1077.18 891.5,1076C 910.167,1075.33 928.833,1075.33 947.5,1076C 949.74,1076.98 952.073,1077.48 954.5,1077.5C 953.071,1104.18 953.238,1130.85 955,1157.5C 956.486,1164.14 958.819,1170.47 962,1176.5C 964.264,1179.43 967.098,1181.6 970.5,1183C 969.5,1183.33 968.5,1183.67 967.5,1184C 972.46,1186.15 977.127,1188.81 981.5,1192C 979.398,1193.73 979.065,1195.73 980.5,1198C 979.951,1201.38 977.951,1203.21 974.5,1203.5C 974.977,1204.48 975.643,1205.31 976.5,1206C 962.27,1209.16 950.437,1204.99 941,1193.5C 937.388,1188.61 934.555,1183.28 932.5,1177.5C 925.197,1176.5 917.863,1176.17 910.5,1176.5C 910.756,1183.22 910.423,1189.89 909.5,1196.5 Z"/></g>
<g><path style="opacity:1" fill="#8b241b" d="M 1052.5,1188.5 C 1051.51,1191.74 1050.51,1195.07 1049.5,1198.5C 1048.75,1202.08 1047.42,1205.42 1045.5,1208.5C 1042.52,1207.28 1039.69,1207.62 1037,1209.5C 1035.83,1207.83 1034.67,1206.17 1033.5,1204.5C 1031.18,1207.43 1029.68,1207.09 1029,1203.5C 1026.66,1168.71 1024.83,1133.87 1023.5,1099C 1023.63,1093.07 1024.46,1087.23 1026,1081.5C 1029.3,1080.77 1031.8,1078.93 1033.5,1076C 1040.61,1074.99 1047.45,1075.83 1054,1078.5C 1053.64,1115.16 1053.14,1151.83 1052.5,1188.5 Z"/></g>
<g><path style="opacity:1" fill="#d2b1af" d="M 856.5,1076.5 C 855.207,1078.3 853.707,1079.96 852,1081.5C 851.536,1080.91 851.369,1080.24 851.5,1079.5C 852.037,1076.26 853.704,1075.26 856.5,1076.5 Z"/></g>
<g><path style="opacity:1" fill="#b98886" d="M 501.5,1081.5 C 502.709,1083.43 502.542,1085.43 501,1087.5C 500.51,1085.45 500.677,1083.45 501.5,1081.5 Z"/></g>
<g><path style="opacity:1" fill="#ac6e6a" d="M 689.5,1079.5 C 690.333,1082.22 689.833,1084.88 688,1087.5C 687.955,1084.78 688.455,1082.11 689.5,1079.5 Z"/></g>
<g><path style="opacity:1" fill="#af7673" d="M 794.5,1083.5 C 795.764,1085.77 795.598,1088.11 794,1090.5C 793.444,1088.12 793.61,1085.78 794.5,1083.5 Z"/></g>
<g><path style="opacity:1" fill="#f7f4f4" d="M 912.5,1106.5 C 916.167,1106.5 919.833,1106.5 923.5,1106.5C 924.197,1119.5 924.864,1132.5 925.5,1145.5C 920.833,1145.5 916.167,1145.5 911.5,1145.5C 911.186,1132.42 911.52,1119.42 912.5,1106.5 Z"/></g>
<g><path style="opacity:0.974" fill="#0e191b" d="M 1103.5,1112.5 C 1108.83,1112.5 1114.17,1112.5 1119.5,1112.5C 1119.67,1121.17 1119.5,1129.84 1119,1138.5C 1117.93,1159.54 1107.43,1172.71 1087.5,1178C 1090.42,1174.76 1092.92,1171.26 1095,1167.5C 1095.81,1149.84 1096.31,1132.17 1096.5,1114.5C 1099.23,1114.83 1101.56,1114.16 1103.5,1112.5 Z M 1104.5,1120.5 C 1104.03,1133.5 1103.87,1146.5 1104,1159.5C 1107.06,1156.05 1109.06,1152.05 1110,1147.5C 1111.31,1138.55 1111.81,1129.55 1111.5,1120.5C 1109.17,1120.5 1106.83,1120.5 1104.5,1120.5 Z"/></g>
<g><path style="opacity:1" fill="#212b2d" d="M 916.5,1111.5 C 918.117,1112.59 918.95,1114.26 919,1116.5C 919.5,1124.49 919.666,1132.49 919.5,1140.5C 918.5,1140.5 917.5,1140.5 916.5,1140.5C 916.5,1130.83 916.5,1121.17 916.5,1111.5 Z"/></g>
<g><path style="opacity:1" fill="#697172" d="M 534.5,1109.5 C 535.806,1112.69 535.806,1116.02 534.5,1119.5C 533.893,1119.38 533.56,1119.04 533.5,1118.5C 534.477,1115.71 534.81,1112.71 534.5,1109.5 Z"/></g>
<g><path style="opacity:1" fill="#a8acad" d="M 574.5,1134.5 C 575.676,1148.35 575.509,1162.35 574,1176.5C 573.537,1162.49 573.704,1148.49 574.5,1134.5 Z"/></g>
<g><path style="opacity:1" fill="#878e8f" d="M 646.5,1137.5 C 646.666,1144.17 646.5,1150.84 646,1157.5C 645.283,1156.96 644.783,1156.29 644.5,1155.5C 645.167,1149.5 645.833,1143.5 646.5,1137.5 Z"/></g>
<g><path style="opacity:1" fill="#be9390" d="M 439.5,1156.5 C 446.395,1157.51 446.728,1158.18 440.5,1158.5C 440.167,1157.83 439.833,1157.17 439.5,1156.5 Z"/></g>
<g><path style="opacity:1" fill="#8f9596" d="M 1059.5,1156.5 C 1058.83,1162.83 1058.17,1169.17 1057.5,1175.5C 1057.1,1167.75 1057.6,1160.08 1059,1152.5C 1059.49,1153.79 1059.66,1155.13 1059.5,1156.5 Z"/></g>
<g><path style="opacity:1" fill="#172123" d="M 1059.5,1156.5 C 1059.84,1162.57 1060.67,1168.57 1062,1174.5C 1063.17,1175.67 1064.33,1176.83 1065.5,1178C 1070.94,1179.85 1076.6,1180.85 1082.5,1181C 1073.46,1181.46 1065.29,1184.3 1058,1189.5C 1057.5,1184.85 1057.33,1180.18 1057.5,1175.5C 1058.17,1169.17 1058.83,1162.83 1059.5,1156.5 Z"/></g>
<g><path style="opacity:1" fill="#182325" d="M 782.5,1160.5 C 783.5,1160.5 784.5,1160.5 785.5,1160.5C 783.191,1183.03 782.191,1183.03 782.5,1160.5 Z"/></g>
<g><path style="opacity:1" fill="#ae736f" d="M 1090.5,1158.5 C 1090.91,1162.05 1090.41,1165.38 1089,1168.5C 1088.72,1167.58 1088.22,1166.92 1087.5,1166.5C 1088.72,1163.85 1089.72,1161.18 1090.5,1158.5 Z"/></g>
<g><path style="opacity:1" fill="#8e9495" d="M 684.5,1160.5 C 683.833,1171.17 683.167,1181.83 682.5,1192.5C 682.333,1178.83 682.5,1165.16 683,1151.5C 683.502,1154.51 684.002,1157.51 684.5,1160.5 Z"/></g>
<g><path style="opacity:1" fill="#d1b4b3" d="M 777.5,1175.5 C 778.657,1183.66 778.823,1191.99 778,1200.5C 777.667,1200.83 777.333,1201.17 777,1201.5C 776.79,1199.94 776.29,1198.61 775.5,1197.5C 775.457,1193.11 775.957,1192.77 777,1196.5C 777.5,1189.51 777.666,1182.51 777.5,1175.5 Z"/></g>
<g><path style="opacity:1" fill="#ba8986" d="M 568.5,1188.5 C 568.5,1191.83 568.5,1195.17 568.5,1198.5C 567.5,1198.5 566.5,1198.5 565.5,1198.5C 566.51,1195.07 567.51,1191.74 568.5,1188.5 Z"/></g>
<g><path style="opacity:1" fill="#ba8986" d="M 1052.5,1188.5 C 1052.5,1191.83 1052.5,1195.17 1052.5,1198.5C 1051.5,1198.5 1050.5,1198.5 1049.5,1198.5C 1050.51,1195.07 1051.51,1191.74 1052.5,1188.5 Z"/></g>
<g><path style="opacity:1" fill="#ae7572" d="M 909.5,1196.5 C 909.662,1198.53 909.495,1200.53 909,1202.5C 908.79,1200.94 908.29,1199.61 907.5,1198.5C 907.5,1197.17 908.167,1196.5 909.5,1196.5 Z"/></g>
<g><path style="opacity:1" fill="#c0928e" d="M 602.5,1200.5 C 601.968,1202.63 601.135,1204.63 600,1206.5C 599.722,1205.58 599.222,1204.92 598.5,1204.5C 599.228,1202.49 600.062,1200.49 601,1198.5C 601.278,1199.42 601.778,1200.08 602.5,1200.5 Z"/></g>
<g><path style="opacity:1" fill="#c3928d" d="M 465.5,1200.5 C 463.948,1204.55 461.448,1207.88 458,1210.5C 457.536,1209.91 457.369,1209.24 457.5,1208.5C 460.191,1205.8 462.525,1202.8 464.5,1199.5C 465.107,1199.62 465.44,1199.96 465.5,1200.5 Z"/></g>
<g><path style="opacity:1" fill="#a8635d" d="M 1081.5,1210.5 C 1083.29,1209.38 1085.29,1209.21 1087.5,1210C 1086.5,1210.33 1085.5,1210.67 1084.5,1211C 1085.09,1211.46 1085.76,1211.63 1086.5,1211.5C 1083.7,1212.64 1080.7,1212.8 1077.5,1212C 1079.74,1211.92 1081.07,1211.42 1081.5,1210.5 Z"/></g>
</svg>
