<?xml version="1.0" encoding="UTF-8"?>
<!DOCTYPE svg PUBLIC "-//W3C//DTD SVG 1.1//EN" "http://www.w3.org/Graphics/SVG/1.1/DTD/svg11.dtd">
<svg xmlns="http://www.w3.org/2000/svg" version="1.1" width="1500px" height="1500px" style="shape-rendering:geometricPrecision; text-rendering:geometricPrecision; image-rendering:optimizeQuality; fill-rule:evenodd; clip-rule:evenodd" xmlns:xlink="http://www.w3.org/1999/xlink">
<g><path style="opacity:1" fill="#ba650b" d="M 584.5,227.5 C 585.833,227.5 587.167,227.5 588.5,227.5C 588.738,229.404 589.738,230.738 591.5,231.5C 592.674,232.514 593.34,233.847 593.5,235.5C 593.427,237.027 594.094,238.027 595.5,238.5C 595.5,238.833 595.5,239.167 595.5,239.5C 596.584,242.004 597.917,244.337 599.5,246.5C 599.837,250.836 601.504,254.503 604.5,257.5C 604.5,257.833 604.5,258.167 604.5,258.5C 606.264,263.713 607.764,269.047 609,274.5C 612.119,278.778 614.952,283.111 617.5,287.5C 617.229,289.38 617.896,290.713 619.5,291.5C 620.674,292.514 621.34,293.847 621.5,295.5C 622.108,298.406 623.441,300.74 625.5,302.5C 626.338,302.842 626.672,303.508 626.5,304.5C 628.062,308.25 629.896,311.917 632,315.5C 632.708,316.381 633.542,317.047 634.5,317.5C 635.338,317.842 635.672,318.508 635.5,319.5C 636.433,322.37 638.1,324.704 640.5,326.5C 644.71,331.759 648.376,337.426 651.5,343.5C 652.786,346.117 654.453,348.45 656.5,350.5C 658.446,351.035 659.446,352.368 659.5,354.5C 660.08,356.749 661.413,358.415 663.5,359.5C 663.561,363.071 665.227,365.404 668.5,366.5C 670.094,369.764 672.427,372.431 675.5,374.5C 675.738,376.404 676.738,377.738 678.5,378.5C 679.124,380.754 680.457,382.421 682.5,383.5C 684.43,387.1 687.097,390.1 690.5,392.5C 693.979,397.324 698.313,400.99 703.5,403.5C 705.19,403.856 706.19,404.856 706.5,406.5C 708.123,408.951 710.289,410.951 713,412.5C 713.188,414.061 712.355,414.728 710.5,414.5C 693.698,405.265 677.031,395.765 660.5,386C 657.961,383.63 655.628,381.13 653.5,378.5C 617.68,338.069 595.68,292.236 587.5,241C 580.203,264.219 571.703,287.053 562,309.5C 545.584,345.212 529.25,380.879 513,416.5C 508.193,429.357 503.527,442.357 499,455.5C 491.898,478.313 488.898,501.646 490,525.5C 491.225,530.507 492.559,535.507 494,540.5C 503.259,554.756 515.426,565.922 530.5,574C 531.684,575.145 531.684,576.312 530.5,577.5C 525.434,577.66 520.434,577.16 515.5,576C 495.871,569.907 479.538,558.74 466.5,542.5C 466.167,543.667 465.833,544.833 465.5,546C 467.974,566.128 468.974,586.295 468.5,606.5C 467.833,605.167 467.167,603.833 466.5,602.5C 465.833,598.018 465.166,593.684 464.5,589.5C 464.362,582.637 463.696,575.97 462.5,569.5C 462.125,563.991 461.458,558.658 460.5,553.5C 460.259,540.67 458.926,528.003 456.5,515.5C 456.171,509.463 456.504,503.463 457.5,497.5C 458.288,498.77 459.288,499.77 460.5,500.5C 461.487,503.146 462.487,505.812 463.5,508.5C 463.957,509.298 464.624,509.631 465.5,509.5C 468.189,512.52 470.856,515.52 473.5,518.5C 473.628,520.09 474.295,521.423 475.5,522.5C 477.071,524.415 479.071,525.415 481.5,525.5C 481.452,522.687 480.785,520.021 479.5,517.5C 480.107,515.225 480.441,512.891 480.5,510.5C 480.461,508.048 479.794,506.048 478.5,504.5C 478.5,503.5 478.5,502.5 478.5,501.5C 479.117,501.389 479.617,501.056 480,500.5C 480.731,490.261 482.564,480.261 485.5,470.5C 485.043,469.702 484.376,469.369 483.5,469.5C 484.491,465.254 485.825,461.254 487.5,457.5C 490.032,451.905 492.032,445.905 493.5,439.5C 495.151,437.598 495.484,435.598 494.5,433.5C 494.5,432.833 494.833,432.5 495.5,432.5C 498.23,427.368 500.73,422.035 503,416.5C 503.49,415.207 503.657,413.873 503.5,412.5C 507.309,406.767 509.975,400.433 511.5,393.5C 511.5,393.167 511.5,392.833 511.5,392.5C 515.152,388.192 517.485,383.192 518.5,377.5C 520.136,376.251 521.303,374.584 522,372.5C 523.09,369.061 524.256,365.727 525.5,362.5C 525.389,361.883 525.056,361.383 524.5,361C 526.426,360.578 527.426,359.411 527.5,357.5C 528.376,357.631 529.043,357.298 529.5,356.5C 534.706,345.086 540.206,333.752 546,322.5C 546.49,321.207 546.657,319.873 546.5,318.5C 548.123,314.6 550.289,310.933 553,307.5C 553.953,304.568 554.453,301.568 554.5,298.5C 554.5,298.167 554.5,297.833 554.5,297.5C 556.771,295.388 558.104,292.721 558.5,289.5C 561.636,283.227 564.803,276.894 568,270.5C 568.567,267.832 569.067,265.166 569.5,262.5C 569.5,262.167 569.5,261.833 569.5,261.5C 572.215,257.702 573.881,253.368 574.5,248.5C 576.397,246.302 577.397,243.636 577.5,240.5C 577.5,240.167 577.5,239.833 577.5,239.5C 579.723,236.856 581.389,233.856 582.5,230.5C 583.906,230.027 584.573,229.027 584.5,227.5 Z"/></g>
<g><path style="opacity:0.09" fill="#e3b999" d="M 588.5,227.5 C 590.446,228.035 591.446,229.368 591.5,231.5C 589.738,230.738 588.738,229.404 588.5,227.5 Z"/></g>
<g><path style="opacity:0.004" fill="#dbab8d" d="M 923.5,234.5 C 921.704,233.207 920.037,231.707 918.5,230C 916.402,229.322 914.402,229.489 912.5,230.5C 912.414,229.504 912.748,228.671 913.5,228C 918.781,227.108 922.115,229.274 923.5,234.5 Z"/></g>
<g><path style="opacity:0.259" fill="#e1b297" d="M 584.5,227.5 C 584.573,229.027 583.906,230.027 582.5,230.5C 582.427,228.973 583.094,227.973 584.5,227.5 Z"/></g>
<g><path style="opacity:1" fill="#bb660b" d="M 923.5,234.5 C 923.53,237.852 924.863,240.518 927.5,242.5C 927.473,247.597 929.14,251.93 932.5,255.5C 938.084,269.012 943.417,282.679 948.5,296.5C 949.393,300.613 951.06,304.28 953.5,307.5C 957.661,315.838 961.328,324.505 964.5,333.5C 965.672,337.178 967.339,340.511 969.5,343.5C 969.804,346.522 970.304,349.522 971,352.5C 972.948,354.85 974.781,357.184 976.5,359.5C 976.537,362.953 977.871,365.619 980.5,367.5C 981.399,371.624 983.066,375.291 985.5,378.5C 987.065,380.509 988.065,382.843 988.5,385.5C 990.146,392.112 992.813,398.112 996.5,403.5C 997.35,407.553 998.516,411.553 1000,415.5C 1000.38,416.056 1000.88,416.389 1001.5,416.5C 1001.41,419.152 1002.08,421.485 1003.5,423.5C 1004.97,427.735 1006.13,432.068 1007,436.5C 1007.38,437.942 1008.21,438.942 1009.5,439.5C 1010.99,442.583 1011.99,445.917 1012.5,449.5C 1011.88,453.302 1012.71,456.635 1015,459.5C 1015.2,462.797 1016.04,465.797 1017.5,468.5C 1017.86,472.509 1018.36,476.509 1019,480.5C 1019.28,481.416 1019.78,482.082 1020.5,482.5C 1020.5,482.833 1020.5,483.167 1020.5,483.5C 1020.34,485.527 1020.5,487.527 1021,489.5C 1021.42,490.756 1022.25,491.423 1023.5,491.5C 1023.5,492.167 1023.5,492.833 1023.5,493.5C 1022.27,494.152 1021.61,495.319 1021.5,497C 1022.54,502.97 1023.54,508.803 1024.5,514.5C 1024.5,514.833 1024.5,515.167 1024.5,515.5C 1022.17,517.996 1022,520.663 1024,523.5C 1027.95,519.554 1031.95,515.554 1036,511.5C 1036.48,510.552 1036.65,509.552 1036.5,508.5C 1038.92,506.092 1040.92,503.426 1042.5,500.5C 1044.19,499.473 1045.53,498.139 1046.5,496.5C 1046.33,497.492 1046.66,498.158 1047.5,498.5C 1045.64,509.58 1043.64,520.58 1041.5,531.5C 1040.74,533.74 1039.9,536.073 1039,538.5C 1037.7,539.085 1036.53,539.751 1035.5,540.5C 1029.85,548.149 1023.52,555.149 1016.5,561.5C 1008.36,567.236 999.691,571.903 990.5,575.5C 985.586,575.362 980.919,576.028 976.5,577.5C 974.5,577.5 972.5,577.5 970.5,577.5C 970.33,576.178 970.663,575.011 971.5,574C 1006.96,555.715 1020.12,526.882 1011,487.5C 1005.87,463.663 998.871,440.329 990,417.5C 975.198,383.232 959.865,349.232 944,315.5C 936.107,294.81 928.44,274.144 921,253.5C 920.83,247.472 920.33,241.472 919.5,235.5C 914.971,252.286 910.138,268.953 905,285.5C 895.822,309.853 883.489,332.52 868,353.5C 859.332,364.332 850.499,374.998 841.5,385.5C 823.599,395.122 805.932,405.289 788.5,416C 787.552,416.483 786.552,416.649 785.5,416.5C 785.5,415.167 785.5,413.833 785.5,412.5C 788.688,411.075 791.688,409.408 794.5,407.5C 797.455,405.878 800.122,403.878 802.5,401.5C 811.202,394.771 818.535,386.771 824.5,377.5C 827.645,374.54 830.312,371.207 832.5,367.5C 834.547,365.45 836.214,363.117 837.5,360.5C 839.9,358.704 841.567,356.37 842.5,353.5C 844.89,351.733 846.557,349.4 847.5,346.5C 848.906,346.027 849.573,345.027 849.5,343.5C 851.878,341.122 853.878,338.455 855.5,335.5C 855.75,333.326 856.75,331.659 858.5,330.5C 862.223,326.08 865.723,321.414 869,316.5C 869.692,315.563 869.525,314.897 868.5,314.5C 869.122,312.878 870.122,311.545 871.5,310.5C 874.839,307.165 877.172,303.165 878.5,298.5C 878.328,297.508 878.662,296.842 879.5,296.5C 882.883,292.078 885.55,287.078 887.5,281.5C 891.229,274.515 895.063,267.515 899,260.5C 899.494,258.866 899.66,257.199 899.5,255.5C 899.5,255.167 899.5,254.833 899.5,254.5C 900.496,254.586 901.329,254.252 902,253.5C 902.813,251.564 903.313,249.564 903.5,247.5C 907.4,243.7 909.733,239.033 910.5,233.5C 910.427,231.973 911.094,230.973 912.5,230.5C 914.402,229.489 916.402,229.322 918.5,230C 920.037,231.707 921.704,233.207 923.5,234.5 Z"/></g>
<g><path style="opacity:0.463" fill="#daac87" d="M 582.5,230.5 C 581.389,233.856 579.723,236.856 577.5,239.5C 577.889,235.716 579.556,232.716 582.5,230.5 Z"/></g>
<g><path style="opacity:0.176" fill="#e0b59c" d="M 593.5,235.5 C 594.906,235.973 595.573,236.973 595.5,238.5C 594.094,238.027 593.427,237.027 593.5,235.5 Z"/></g>
<g><path style="opacity:0.145" fill="#d49c6d" d="M 923.5,234.5 C 925.873,236.579 927.206,239.246 927.5,242.5C 924.863,240.518 923.53,237.852 923.5,234.5 Z"/></g>
<g><path style="opacity:0.396" fill="#c89260" d="M 910.5,233.5 C 909.733,239.033 907.4,243.7 903.5,247.5C 904.799,242.236 907.132,237.569 910.5,233.5 Z"/></g>
<g><path style="opacity:0.255" fill="#e0b594" d="M 595.5,239.5 C 598.112,241.052 599.445,243.386 599.5,246.5C 597.917,244.337 596.584,242.004 595.5,239.5 Z"/></g>
<g><path style="opacity:0.137" fill="#dfa77c" d="M 577.5,240.5 C 577.397,243.636 576.397,246.302 574.5,248.5C 574.903,245.514 575.903,242.848 577.5,240.5 Z"/></g>
<g><path style="opacity:0.588" fill="#d09563" d="M 927.5,242.5 C 929.734,246.522 931.401,250.856 932.5,255.5C 929.14,251.93 927.473,247.597 927.5,242.5 Z"/></g>
<g><path style="opacity:0.039" fill="#deb497" d="M 574.5,248.5 C 573.881,253.368 572.215,257.702 569.5,261.5C 570.204,256.71 571.871,252.377 574.5,248.5 Z"/></g>
<g><path style="opacity:0.075" fill="#cea882" d="M 903.5,247.5 C 903.313,249.564 902.813,251.564 902,253.5C 901.329,254.252 900.496,254.586 899.5,254.5C 900.079,251.669 901.412,249.336 903.5,247.5 Z"/></g>
<g><path style="opacity:0.459" fill="#d9a982" d="M 599.5,246.5 C 601.723,249.802 603.39,253.468 604.5,257.5C 601.504,254.503 599.837,250.836 599.5,246.5 Z"/></g>
<g><path style="opacity:1" fill="#df3e2a" d="M 654.5,386.5 C 659.276,398.671 661.942,411.338 662.5,424.5C 663.351,439.149 663.685,453.816 663.5,468.5C 661.919,487.409 656.419,505.075 647,521.5C 641.357,529.479 634.191,535.645 625.5,540C 622.232,541.213 618.899,541.546 615.5,541C 611.333,538.167 607.833,534.667 605,530.5C 589.488,504.142 579.655,475.809 575.5,445.5C 575.83,438.468 575.497,431.468 574.5,424.5C 573.893,424.624 573.56,424.957 573.5,425.5C 568.877,430.651 565.711,436.651 564,443.5C 562.036,469.172 566.036,493.839 576,517.5C 579.276,523.108 582.943,528.442 587,533.5C 593.211,539.842 600.378,544.508 608.5,547.5C 606.88,551.642 604.214,555.142 600.5,558C 596.595,560.756 592.595,563.256 588.5,565.5C 584.503,566.603 580.836,568.269 577.5,570.5C 575.142,570.253 573.142,570.919 571.5,572.5C 567.922,572.549 564.589,573.215 561.5,574.5C 553.326,576.638 544.993,576.971 536.5,575.5C 528.826,567.662 520.66,560.329 512,553.5C 504.984,546.468 500.318,538.134 498,528.5C 494.579,505.348 496.579,482.681 504,460.5C 506.987,452.173 509.987,443.84 513,435.5C 531.229,392.809 550.229,350.476 570,308.5C 576.326,293.19 581.659,277.523 586,261.5C 591.519,297.108 605.852,329.775 629,359.5C 636.691,369.355 645.191,378.355 654.5,386.5 Z"/></g>
<g><path style="opacity:1" fill="#df3e2b" d="M 967.5,576.5 C 940.057,578.555 916.39,570.055 896.5,551C 899.598,545.904 903.931,542.238 909.5,540C 922.034,528.435 930.034,514.269 933.5,497.5C 934.924,495.485 935.59,493.152 935.5,490.5C 936.413,483.526 937.08,476.526 937.5,469.5C 938.655,462.679 938.821,455.679 938,448.5C 937.768,447.263 937.268,446.263 936.5,445.5C 936.077,437.765 933.41,430.932 928.5,425C 927.552,424.517 926.552,424.351 925.5,424.5C 925.759,430.167 926.092,435.834 926.5,441.5C 924.178,473.46 915.345,503.46 900,531.5C 891.691,541.244 882.524,542.077 872.5,534C 858.817,521.978 849.65,507.145 845,489.5C 839.172,468.864 837.172,447.864 839,426.5C 840.683,414.849 842.183,403.182 843.5,391.5C 844.264,389.26 845.098,386.927 846,384.5C 881.936,352.301 905.269,312.635 916,265.5C 916.473,263.221 917.473,261.221 919,259.5C 920.907,271.46 923.907,283.127 928,294.5C 950.074,344.268 971.741,394.268 993,444.5C 1001.08,466.233 1005.58,488.733 1006.5,512C 1007.77,524.425 1004.77,535.592 997.5,545.5C 988.168,554.996 978.335,563.996 968,572.5C 967.51,573.793 967.343,575.127 967.5,576.5 Z"/></g>
<g><path style="opacity:0.031" fill="#d39e6e" d="M 569.5,262.5 C 569.067,265.166 568.567,267.832 568,270.5C 564.803,276.894 561.636,283.227 558.5,289.5C 561.215,279.999 564.882,270.999 569.5,262.5 Z"/></g>
<g><path style="opacity:0.996" fill="#d09868" d="M 604.5,258.5 C 609.012,268.016 613.345,277.682 617.5,287.5C 614.952,283.111 612.119,278.778 609,274.5C 607.764,269.047 606.264,263.713 604.5,258.5 Z"/></g>
<g><path style="opacity:0.702" fill="#cc9a6f" d="M 899.5,255.5 C 899.66,257.199 899.494,258.866 899,260.5C 895.063,267.515 891.229,274.515 887.5,281.5C 890.549,272.332 894.549,263.665 899.5,255.5 Z"/></g>
<g><path style="opacity:0.353" fill="#dbb09b" d="M 617.5,287.5 C 618.674,288.514 619.34,289.847 619.5,291.5C 617.896,290.713 617.229,289.38 617.5,287.5 Z"/></g>
<g><path style="opacity:0.82" fill="#cb976c" d="M 887.5,281.5 C 885.55,287.078 882.883,292.078 879.5,296.5C 881.422,290.984 884.088,285.984 887.5,281.5 Z"/></g>
<g><path style="opacity:0.165" fill="#d5a374" d="M 558.5,289.5 C 558.104,292.721 556.771,295.388 554.5,297.5C 555.279,294.455 556.613,291.789 558.5,289.5 Z"/></g>
<g><path style="opacity:0.373" fill="#d3a172" d="M 621.5,295.5 C 623.588,297.336 624.921,299.669 625.5,302.5C 623.441,300.74 622.108,298.406 621.5,295.5 Z"/></g>
<g><path style="opacity:0.322" fill="#d9a172" d="M 948.5,296.5 C 951.093,299.554 952.759,303.22 953.5,307.5C 951.06,304.28 949.393,300.613 948.5,296.5 Z"/></g>
<g><path style="opacity:0.196" fill="#d2a989" d="M 878.5,298.5 C 877.172,303.165 874.839,307.165 871.5,310.5C 873.074,305.979 875.408,301.979 878.5,298.5 Z"/></g>
<g><path style="opacity:0.58" fill="#cb8d56" d="M 554.5,298.5 C 554.453,301.568 553.953,304.568 553,307.5C 550.289,310.933 548.123,314.6 546.5,318.5C 546.523,316.073 547.023,313.74 548,311.5C 550.197,307.106 552.364,302.773 554.5,298.5 Z"/></g>
<g><path style="opacity:0.141" fill="#d5a581" d="M 626.5,304.5 C 629.916,308.323 632.582,312.657 634.5,317.5C 633.542,317.047 632.708,316.381 632,315.5C 629.896,311.917 628.062,308.25 626.5,304.5 Z"/></g>
<g><path style="opacity:0.333" fill="#d2ab8a" d="M 868.5,314.5 C 869.525,314.897 869.692,315.563 869,316.5C 865.723,321.414 862.223,326.08 858.5,330.5C 861.477,324.875 864.81,319.542 868.5,314.5 Z"/></g>
<g><path style="opacity:0.153" fill="#dbaa89" d="M 635.5,319.5 C 637.9,321.296 639.567,323.63 640.5,326.5C 638.1,324.704 636.433,322.37 635.5,319.5 Z"/></g>
<g><path style="opacity:1" fill="#f7f3ef" d="M 970.5,577.5 C 969.609,576.89 968.609,576.557 967.5,576.5C 967.343,575.127 967.51,573.793 968,572.5C 978.335,563.996 988.168,554.996 997.5,545.5C 1004.77,535.592 1007.77,524.425 1006.5,512C 1005.58,488.733 1001.08,466.233 993,444.5C 971.741,394.268 950.074,344.268 928,294.5C 923.907,283.127 920.907,271.46 919,259.5C 917.473,261.221 916.473,263.221 916,265.5C 905.269,312.635 881.936,352.301 846,384.5C 845.098,386.927 844.264,389.26 843.5,391.5C 843.975,388.918 843.308,386.918 841.5,385.5C 850.499,374.998 859.332,364.332 868,353.5C 883.489,332.52 895.822,309.853 905,285.5C 910.138,268.953 914.971,252.286 919.5,235.5C 920.33,241.472 920.83,247.472 921,253.5C 928.44,274.144 936.107,294.81 944,315.5C 959.865,349.232 975.198,383.232 990,417.5C 998.871,440.329 1005.87,463.663 1011,487.5C 1020.12,526.882 1006.96,555.715 971.5,574C 970.663,575.011 970.33,576.178 970.5,577.5 Z"/></g>
<g><path style="opacity:0.655" fill="#d59e71" d="M 546.5,318.5 C 546.657,319.873 546.49,321.207 546,322.5C 540.206,333.752 534.706,345.086 529.5,356.5C 529.043,357.298 528.376,357.631 527.5,357.5C 531.929,348.252 536.095,338.919 540,329.5C 542.179,325.802 544.346,322.136 546.5,318.5 Z"/></g>
<g><path style="opacity:0.231" fill="#d4ad87" d="M 855.5,335.5 C 853.878,338.455 851.878,341.122 849.5,343.5C 850.353,339.98 852.353,337.313 855.5,335.5 Z"/></g>
<g><path style="opacity:0.094" fill="#deb08c" d="M 964.5,333.5 C 967.166,336.164 968.832,339.497 969.5,343.5C 967.339,340.511 965.672,337.178 964.5,333.5 Z"/></g>
<g><path style="opacity:0.576" fill="#d9a781" d="M 651.5,343.5 C 654.364,345.023 656.031,347.357 656.5,350.5C 654.453,348.45 652.786,346.117 651.5,343.5 Z"/></g>
<g><path style="opacity:0.259" fill="#d3ad8c" d="M 849.5,343.5 C 849.573,345.027 848.906,346.027 847.5,346.5C 847.427,344.973 848.094,343.973 849.5,343.5 Z"/></g>
<g><path style="opacity:0.576" fill="#d2a988" d="M 847.5,346.5 C 846.557,349.4 844.89,351.733 842.5,353.5C 843.511,351.628 844.345,349.628 845,347.5C 845.671,346.748 846.504,346.414 847.5,346.5 Z"/></g>
<g><path style="opacity:0.996" fill="#d0915c" d="M 969.5,343.5 C 970.745,346.478 972.412,349.311 974.5,352C 975.871,354.319 976.538,356.819 976.5,359.5C 974.781,357.184 972.948,354.85 971,352.5C 970.304,349.522 969.804,346.522 969.5,343.5 Z"/></g>
<g><path style="opacity:0.137" fill="#deb998" d="M 659.5,354.5 C 661.587,355.585 662.92,357.251 663.5,359.5C 661.413,358.415 660.08,356.749 659.5,354.5 Z"/></g>
<g><path style="opacity:0.545" fill="#d2a57c" d="M 842.5,353.5 C 841.567,356.37 839.9,358.704 837.5,360.5C 838.433,357.63 840.1,355.296 842.5,353.5 Z"/></g>
<g><path style="opacity:0.541" fill="#d0a178" d="M 837.5,360.5 C 836.214,363.117 834.547,365.45 832.5,367.5C 833.01,364.326 834.677,361.992 837.5,360.5 Z"/></g>
<g><path style="opacity:0.933" fill="#c88c55" d="M 663.5,359.5 C 665.9,361.296 667.567,363.63 668.5,366.5C 665.227,365.404 663.561,363.071 663.5,359.5 Z"/></g>
<g><path style="opacity:0.976" fill="#d38e5d" d="M 976.5,359.5 C 978.771,361.612 980.104,364.279 980.5,367.5C 977.871,365.619 976.537,362.953 976.5,359.5 Z"/></g>
<g><path style="opacity:0.306" fill="#d6aa88" d="M 668.5,366.5 C 671.573,368.569 673.906,371.236 675.5,374.5C 672.427,372.431 670.094,369.764 668.5,366.5 Z"/></g>
<g><path style="opacity:0.42" fill="#c89e7d" d="M 832.5,367.5 C 830.312,371.207 827.645,374.54 824.5,377.5C 826.033,373.296 828.7,369.963 832.5,367.5 Z"/></g>
<g><path style="opacity:0.188" fill="#d79e74" d="M 980.5,367.5 C 983.11,370.632 984.777,374.299 985.5,378.5C 983.066,375.291 981.399,371.624 980.5,367.5 Z"/></g>
<g><path style="opacity:0.627" fill="#d8a883" d="M 525.5,362.5 C 524.256,365.727 523.09,369.061 522,372.5C 521.303,374.584 520.136,376.251 518.5,377.5C 520.067,372.039 522.4,367.039 525.5,362.5 Z"/></g>
<g><path style="opacity:0.306" fill="#d8ac8c" d="M 675.5,374.5 C 677.262,375.262 678.262,376.596 678.5,378.5C 676.738,377.738 675.738,376.404 675.5,374.5 Z"/></g>
<g><path style="opacity:0.004" fill="#ddb295" d="M 678.5,378.5 C 680.997,379.129 682.33,380.796 682.5,383.5C 680.457,382.421 679.124,380.754 678.5,378.5 Z"/></g>
<g><path style="opacity:0.729" fill="#d6a072" d="M 518.5,377.5 C 517.485,383.192 515.152,388.192 511.5,392.5C 513.067,387.039 515.4,382.039 518.5,377.5 Z"/></g>
<g><path style="opacity:1" fill="#fcfbfb" d="M 653.5,378.5 C 655.628,381.13 657.961,383.63 660.5,386C 677.031,395.765 693.698,405.265 710.5,414.5C 718.55,419.192 726.883,423.358 735.5,427C 739.06,428.237 742.727,428.737 746.5,428.5C 750.182,428.665 753.848,428.499 757.5,428C 759.852,427.76 761.852,426.927 763.5,425.5C 771.558,424.042 778.892,421.042 785.5,416.5C 786.552,416.649 787.552,416.483 788.5,416C 805.932,405.289 823.599,395.122 841.5,385.5C 843.308,386.918 843.975,388.918 843.5,391.5C 842.183,403.182 840.683,414.849 839,426.5C 837.172,447.864 839.172,468.864 845,489.5C 849.65,507.145 858.817,521.978 872.5,534C 882.524,542.077 891.691,541.244 900,531.5C 915.345,503.46 924.178,473.46 926.5,441.5C 926.092,435.834 925.759,430.167 925.5,424.5C 926.552,424.351 927.552,424.517 928.5,425C 933.41,430.932 936.077,437.765 936.5,445.5C 937.224,453.479 937.558,461.479 937.5,469.5C 937.08,476.526 936.413,483.526 935.5,490.5C 934.076,492.515 933.41,494.848 933.5,497.5C 930.034,514.269 922.034,528.435 909.5,540C 903.931,542.238 899.598,545.904 896.5,551C 916.39,570.055 940.057,578.555 967.5,576.5C 968.609,576.557 969.609,576.89 970.5,577.5C 972.5,577.5 974.5,577.5 976.5,577.5C 981.453,577.877 986.119,577.211 990.5,575.5C 999.691,571.903 1008.36,567.236 1016.5,561.5C 1018.89,560.627 1020.89,559.127 1022.5,557C 1024.13,556.506 1025.8,556.34 1027.5,556.5C 1028.25,552.807 1029.58,552.807 1031.5,556.5C 1030.75,559.777 1030.25,563.11 1030,566.5C 1023.72,572.779 1016.72,579.779 1009,587.5C 1006.44,593.054 1002.78,597.721 998,601.5C 992.902,608.03 988.569,615.03 985,622.5C 976.894,631.776 967.728,639.776 957.5,646.5C 956.614,647.325 956.281,648.325 956.5,649.5C 950.071,652.02 943.571,654.353 937,656.5C 936.329,655.748 935.496,655.414 934.5,655.5C 928.09,656.019 921.757,657.019 915.5,658.5C 907.218,659.386 899.218,661.053 891.5,663.5C 865.163,670.668 840.996,682.335 819,698.5C 818.36,700.265 818.527,701.932 819.5,703.5C 820.263,704.268 821.263,704.768 822.5,705C 820.616,705.216 818.949,705.883 817.5,707C 819.107,706.981 820.774,706.815 822.5,706.5C 822.563,712.811 820.73,718.478 817,723.5C 816.211,725.712 816.378,727.712 817.5,729.5C 788.39,769.582 776.223,814.582 781,864.5C 781.71,865.973 782.876,866.64 784.5,866.5C 785.281,862.348 787.281,858.848 790.5,856C 798.167,849 805.833,842 813.5,835C 822.538,827.478 832.538,821.478 843.5,817C 856.132,811.792 868.799,806.792 881.5,802C 890.899,796.884 900.066,791.384 909,785.5C 912.763,786.929 915.596,789.429 917.5,793C 923.075,793.419 928.408,792.419 933.5,790C 944.833,782.333 956.167,774.667 967.5,767C 974.012,762.313 980.012,757.146 985.5,751.5C 986.117,751.611 986.617,751.944 987,752.5C 987.333,751.167 987.667,749.833 988,748.5C 988.897,751.49 989.731,754.49 990.5,757.5C 990.005,763.937 989.339,770.603 988.5,777.5C 985.167,779.468 984.167,782.135 985.5,785.5C 978.168,809.005 964.168,827.505 943.5,841C 933.556,846.801 923.556,852.301 913.5,857.5C 910.254,858.054 907.254,859.054 904.5,860.5C 899.923,861.61 895.256,862.443 890.5,863C 888.16,864.641 885.827,866.141 883.5,867.5C 876.23,870.325 868.896,873.159 861.5,876C 842.916,885.915 827.416,899.415 815,916.5C 807.09,931.855 802.256,948.188 800.5,965.5C 798.946,969.567 798.28,973.9 798.5,978.5C 797.419,981.627 796.753,984.96 796.5,988.5C 794.79,999.207 788.79,1006.21 778.5,1009.5C 764.242,1011.3 749.909,1011.96 735.5,1011.5C 725.388,1010.7 717.221,1006.36 711,998.5C 708.695,992.619 706.695,986.619 705,980.5C 702.908,967.585 700.074,954.919 696.5,942.5C 696.067,939.834 695.567,937.168 695,934.5C 694.292,933.619 693.458,932.953 692.5,932.5C 685.24,916.529 674.907,902.695 661.5,891C 657.7,889.021 654.366,886.521 651.5,883.5C 649.879,881.058 647.546,879.725 644.5,879.5C 638.636,877.066 632.97,874.399 627.5,871.5C 625.824,869.166 623.491,868.166 620.5,868.5C 617.374,866.01 613.708,864.677 609.5,864.5C 605.03,863.565 600.697,862.232 596.5,860.5C 594.165,857.835 591.165,856.502 587.5,856.5C 555.197,844.364 531.697,822.697 517,791.5C 516.325,786.351 514.159,782.018 510.5,778.5C 508.91,782.036 508.41,785.703 509,789.5C 514.182,803.678 522.182,816.011 533,826.5C 545.818,841.301 560.984,852.801 578.5,861C 581.667,862.167 584.833,863.333 588,864.5C 588.667,865.167 588.667,865.833 588,866.5C 584.533,870.12 581.7,874.12 579.5,878.5C 577.755,880.033 576.755,882.033 576.5,884.5C 575.962,886.117 575.629,887.784 575.5,889.5C 574.71,890.609 574.21,891.942 574,893.5C 573.501,899.491 573.334,905.491 573.5,911.5C 573.259,913.898 573.926,915.898 575.5,917.5C 576.705,920.234 578.205,922.901 580,925.5C 584.399,929.409 588.899,933.076 593.5,936.5C 591.118,937.546 588.785,937.546 586.5,936.5C 579.851,932.193 573.184,927.859 566.5,923.5C 533.516,896.022 505.35,864.356 482,828.5C 477.457,820.073 472.957,811.74 468.5,803.5C 463.607,792.126 458.94,780.793 454.5,769.5C 448.697,756.081 444.697,742.081 442.5,727.5C 442.283,723.295 441.617,719.295 440.5,715.5C 438.836,700.538 437.336,685.538 436,670.5C 435.5,655.837 435.333,641.17 435.5,626.5C 437.078,621.417 437.745,616.084 437.5,610.5C 439.459,604.25 440.126,597.584 439.5,590.5C 440.752,575.656 443.085,560.99 446.5,546.5C 448.177,542.455 448.844,538.122 448.5,533.5C 449.092,530.873 449.425,528.206 449.5,525.5C 451.04,523.162 451.706,520.495 451.5,517.5C 451.735,511.151 452.235,504.817 453,498.5C 453.383,497.944 453.883,497.611 454.5,497.5C 455.167,503.5 455.833,509.5 456.5,515.5C 458.926,528.003 460.259,540.67 460.5,553.5C 460.073,559.114 460.74,564.447 462.5,569.5C 462.294,576.396 462.961,583.063 464.5,589.5C 465.166,593.684 465.833,598.018 466.5,602.5C 467.167,603.833 467.833,605.167 468.5,606.5C 468.974,586.295 467.974,566.128 465.5,546C 465.833,544.833 466.167,543.667 466.5,542.5C 479.538,558.74 495.871,569.907 515.5,576C 520.434,577.16 525.434,577.66 530.5,577.5C 532.315,576.37 534.315,575.704 536.5,575.5C 544.993,576.971 553.326,576.638 561.5,574.5C 565.122,574.678 568.456,574.011 571.5,572.5C 573.142,570.919 575.142,570.253 577.5,570.5C 581.907,570.125 585.574,568.458 588.5,565.5C 592.595,563.256 596.595,560.756 600.5,558C 604.214,555.142 606.88,551.642 608.5,547.5C 600.378,544.508 593.211,539.842 587,533.5C 582.943,528.442 579.276,523.108 576,517.5C 566.036,493.839 562.036,469.172 564,443.5C 565.711,436.651 568.877,430.651 573.5,425.5C 574.167,432.167 574.833,438.833 575.5,445.5C 579.655,475.809 589.488,504.142 605,530.5C 607.833,534.667 611.333,538.167 615.5,541C 618.899,541.546 622.232,541.213 625.5,540C 634.191,535.645 641.357,529.479 647,521.5C 656.419,505.075 661.919,487.409 663.5,468.5C 664.166,462.509 664.5,456.343 664.5,450C 664.709,441.275 664.042,432.775 662.5,424.5C 661.942,411.338 659.276,398.671 654.5,386.5C 654.057,383.376 652.39,381.043 649.5,379.5C 650.689,378.571 652.022,378.238 653.5,378.5 Z"/></g>
<g><path style="opacity:0.184" fill="#dcac8a" d="M 682.5,383.5 C 686.588,385.254 689.255,388.254 690.5,392.5C 687.097,390.1 684.43,387.1 682.5,383.5 Z"/></g>
<g><path style="opacity:0.055" fill="#d3a986" d="M 690.5,392.5 C 695.132,395.798 699.466,399.464 703.5,403.5C 698.313,400.99 693.979,397.324 690.5,392.5 Z"/></g>
<g><path style="opacity:0.318" fill="#dda783" d="M 988.5,385.5 C 990.136,386.749 991.303,388.416 992,390.5C 993.657,394.804 995.157,399.137 996.5,403.5C 992.813,398.112 990.146,392.112 988.5,385.5 Z"/></g>
<g><path style="opacity:0.549" fill="#cda07e" d="M 824.5,377.5 C 818.535,386.771 811.202,394.771 802.5,401.5C 809.807,393.615 817.141,385.615 824.5,377.5 Z"/></g>
<g><path style="opacity:1" fill="#f7f3ef" d="M 653.5,378.5 C 652.022,378.238 650.689,378.571 649.5,379.5C 652.39,381.043 654.057,383.376 654.5,386.5C 645.191,378.355 636.691,369.355 629,359.5C 605.852,329.775 591.519,297.108 586,261.5C 581.659,277.523 576.326,293.19 570,308.5C 550.229,350.476 531.229,392.809 513,435.5C 509.987,443.84 506.987,452.173 504,460.5C 496.579,482.681 494.579,505.348 498,528.5C 500.318,538.134 504.984,546.468 512,553.5C 520.66,560.329 528.826,567.662 536.5,575.5C 534.315,575.704 532.315,576.37 530.5,577.5C 531.684,576.312 531.684,575.145 530.5,574C 515.426,565.922 503.259,554.756 494,540.5C 492.559,535.507 491.225,530.507 490,525.5C 488.898,501.646 491.898,478.313 499,455.5C 503.527,442.357 508.193,429.357 513,416.5C 529.25,380.879 545.584,345.212 562,309.5C 571.703,287.053 580.203,264.219 587.5,241C 595.68,292.236 617.68,338.069 653.5,378.5 Z"/></g>
<g><path style="opacity:0.51" fill="#d19a6b" d="M 511.5,393.5 C 509.975,400.433 507.309,406.767 503.5,412.5C 505.025,405.567 507.691,399.233 511.5,393.5 Z"/></g>
<g><path style="opacity:0.333" fill="#d8a87f" d="M 802.5,401.5 C 800.122,403.878 797.455,405.878 794.5,407.5C 796.288,404.385 798.954,402.385 802.5,401.5 Z"/></g>
<g><path style="opacity:0.412" fill="#d7a174" d="M 996.5,403.5 C 998.938,407.403 1000.6,411.736 1001.5,416.5C 1000.88,416.389 1000.38,416.056 1000,415.5C 998.516,411.553 997.35,407.553 996.5,403.5 Z"/></g>
<g><path style="opacity:0.176" fill="#d09764" d="M 503.5,412.5 C 503.657,413.873 503.49,415.207 503,416.5C 500.73,422.035 498.23,427.368 495.5,432.5C 497.215,425.336 499.881,418.669 503.5,412.5 Z"/></g>
<g><path style="opacity:0.584" fill="#cc9665" d="M 1001.5,416.5 C 1002.92,418.515 1003.59,420.848 1003.5,423.5C 1002.08,421.485 1001.41,419.152 1001.5,416.5 Z"/></g>
<g><path style="opacity:0.988" fill="#c79749" d="M 784.5,412.5 C 784.833,412.5 785.167,412.5 785.5,412.5C 785.5,413.833 785.5,415.167 785.5,416.5C 778.892,421.042 771.558,424.042 763.5,425.5C 762.761,425.631 762.094,425.464 761.5,425C 769.272,422.693 776.606,419.526 783.5,415.5C 784.386,414.675 784.719,413.675 784.5,412.5 Z"/></g>
<g><path style="opacity:0.537" fill="#d1a162" d="M 706.5,406.5 C 711.657,408.914 716.324,412.081 720.5,416C 726.902,417.906 732.902,420.573 738.5,424C 740.134,424.494 741.801,424.66 743.5,424.5C 744.5,425.833 745.5,427.167 746.5,428.5C 742.727,428.737 739.06,428.237 735.5,427C 726.883,423.358 718.55,419.192 710.5,414.5C 712.355,414.728 713.188,414.061 713,412.5C 710.289,410.951 708.123,408.951 706.5,406.5 Z"/></g>
<g><path style="opacity:0.051" fill="#d4a176" d="M 1003.5,423.5 C 1007.13,428.112 1009.13,433.446 1009.5,439.5C 1008.21,438.942 1007.38,437.942 1007,436.5C 1006.13,432.068 1004.97,427.735 1003.5,423.5 Z"/></g>
<g><path style="opacity:0.482" fill="#d4ab7d" d="M 784.5,412.5 C 784.719,413.675 784.386,414.675 783.5,415.5C 776.606,419.526 769.272,422.693 761.5,425C 762.094,425.464 762.761,425.631 763.5,425.5C 761.852,426.927 759.852,427.76 757.5,428C 753.848,428.499 750.182,428.665 746.5,428.5C 745.5,427.167 744.5,425.833 743.5,424.5C 747.78,425.54 752.113,425.706 756.5,425C 766.356,421.886 775.69,417.719 784.5,412.5 Z"/></g>
<g><path style="opacity:0.129" fill="#ce9469" d="M 494.5,433.5 C 495.484,435.598 495.151,437.598 493.5,439.5C 493.196,438.85 492.863,438.183 492.5,437.5C 493.63,436.378 494.297,435.044 494.5,433.5 Z"/></g>
<g><path style="opacity:0.361" fill="#cb905c" d="M 493.5,439.5 C 492.032,445.905 490.032,451.905 487.5,457.5C 488.688,451.767 490.188,446.1 492,440.5C 492.383,439.944 492.883,439.611 493.5,439.5 Z"/></g>
<g><path style="opacity:1" fill="#f0bcb1" d="M 573.5,425.5 C 573.56,424.957 573.893,424.624 574.5,424.5C 575.497,431.468 575.83,438.468 575.5,445.5C 574.833,438.833 574.167,432.167 573.5,425.5 Z"/></g>
<g><path style="opacity:1" fill="#e1665a" d="M 662.5,424.5 C 664.042,432.775 664.709,441.275 664.5,450C 664.5,456.343 664.166,462.509 663.5,468.5C 663.685,453.816 663.351,439.149 662.5,424.5 Z"/></g>
<g><path style="opacity:1" fill="#e27368" d="M 936.5,445.5 C 937.268,446.263 937.768,447.263 938,448.5C 938.821,455.679 938.655,462.679 937.5,469.5C 937.558,461.479 937.224,453.479 936.5,445.5 Z"/></g>
<g><path style="opacity:0.133" fill="#d19461" d="M 1012.5,449.5 C 1013.56,450.6 1014.39,451.934 1015,453.5C 1016.16,458.453 1016.99,463.453 1017.5,468.5C 1016.04,465.797 1015.2,462.797 1015,459.5C 1012.71,456.635 1011.88,453.302 1012.5,449.5 Z"/></g>
<g><path style="opacity:0.561" fill="#d09869" d="M 1017.5,468.5 C 1019.13,472.911 1020.13,477.578 1020.5,482.5C 1019.78,482.082 1019.28,481.416 1019,480.5C 1018.36,476.509 1017.86,472.509 1017.5,468.5 Z"/></g>
<g><path style="opacity:0.188" fill="#e7b198" d="M 1054.5,492.5 C 1053.83,492.167 1053.17,491.833 1052.5,491.5C 1051.79,489.158 1050.46,488.825 1048.5,490.5C 1049.61,486.971 1051.44,486.638 1054,489.5C 1054.48,490.448 1054.65,491.448 1054.5,492.5 Z"/></g>
<g><path style="opacity:0.008" fill="#daa07f" d="M 1020.5,483.5 C 1021.12,483.611 1021.62,483.944 1022,484.5C 1022.29,486.92 1022.79,489.254 1023.5,491.5C 1022.25,491.423 1021.42,490.756 1021,489.5C 1020.5,487.527 1020.34,485.527 1020.5,483.5 Z"/></g>
<g><path style="opacity:0.098" fill="#f2b097" d="M 1048.5,490.5 C 1048.34,492.153 1047.67,493.486 1046.5,494.5C 1046.23,492.62 1046.9,491.287 1048.5,490.5 Z"/></g>
<g><path style="opacity:0.035" fill="#e68b63" d="M 1052.5,491.5 C 1053.17,491.833 1053.83,492.167 1054.5,492.5C 1055.4,493.209 1055.74,494.209 1055.5,495.5C 1054.54,497.265 1054.21,499.265 1054.5,501.5C 1053.68,498.316 1053.01,494.983 1052.5,491.5 Z"/></g>
<g><path style="opacity:0.882" fill="#d98c58" d="M 452.5,486.5 C 453.386,485.224 454.386,485.224 455.5,486.5C 457.568,491.038 459.235,495.705 460.5,500.5C 459.288,499.77 458.288,498.77 457.5,497.5C 456.504,503.463 456.171,509.463 456.5,515.5C 455.833,509.5 455.167,503.5 454.5,497.5C 457.427,493.137 456.76,489.471 452.5,486.5 Z"/></g>
<g><path style="opacity:1" fill="#e8867d" d="M 935.5,490.5 C 935.59,493.152 934.924,495.485 933.5,497.5C 933.41,494.848 934.076,492.515 935.5,490.5 Z"/></g>
<g><path style="opacity:0.757" fill="#c38149" d="M 483.5,469.5 C 484.376,469.369 485.043,469.702 485.5,470.5C 482.564,480.261 480.731,490.261 480,500.5C 479.617,501.056 479.117,501.389 478.5,501.5C 479.734,490.763 481.401,480.096 483.5,469.5 Z"/></g>
<g><path style="opacity:0.945" fill="#c9884a" d="M 1023.5,493.5 C 1024.71,500.549 1025.04,507.549 1024.5,514.5C 1023.54,508.803 1022.54,502.97 1021.5,497C 1021.61,495.319 1022.27,494.152 1023.5,493.5 Z"/></g>
<g><path style="opacity:0.086" fill="#e3b796" d="M 1046.5,494.5 C 1046.5,495.167 1046.5,495.833 1046.5,496.5C 1045.53,498.139 1044.19,499.473 1042.5,500.5C 1043.3,498.034 1044.63,496.034 1046.5,494.5 Z"/></g>
<g><path style="opacity:0.114" fill="#ebb6a3" d="M 1055.5,495.5 C 1056.17,499.167 1056.83,502.833 1057.5,506.5C 1056.83,506.5 1056.17,506.5 1055.5,506.5C 1055.78,504.585 1055.45,502.919 1054.5,501.5C 1054.21,499.265 1054.54,497.265 1055.5,495.5 Z"/></g>
<g><path style="opacity:0.895" fill="#bf7937" d="M 478.5,504.5 C 479.794,506.048 480.461,508.048 480.5,510.5C 480.441,512.891 480.107,515.225 479.5,517.5C 480.785,520.021 481.452,522.687 481.5,525.5C 479.071,525.415 477.071,524.415 475.5,522.5C 474.295,521.423 473.628,520.09 473.5,518.5C 474.962,519.458 476.295,520.624 477.5,522C 478.332,522.688 478.998,522.521 479.5,521.5C 478.546,515.896 478.212,510.229 478.5,504.5 Z"/></g>
<g><path style="opacity:0.086" fill="#c2874c" d="M 460.5,500.5 C 462.723,503.144 464.389,506.144 465.5,509.5C 464.624,509.631 463.957,509.298 463.5,508.5C 462.487,505.812 461.487,503.146 460.5,500.5 Z"/></g>
<g><path style="opacity:1" fill="#f7591b" d="M 1052.5,491.5 C 1053.01,494.983 1053.68,498.316 1054.5,501.5C 1055.45,502.919 1055.78,504.585 1055.5,506.5C 1056.14,510.675 1057.14,514.675 1058.5,518.5C 1061.84,542.219 1065.51,565.886 1069.5,589.5C 1069.19,593.042 1069.52,596.375 1070.5,599.5C 1071.03,607.321 1071.7,614.988 1072.5,622.5C 1072.5,638.833 1072.5,655.167 1072.5,671.5C 1072.17,671.5 1071.83,671.5 1071.5,671.5C 1071.67,655.83 1071.5,640.163 1071,624.5C 1070.57,616.767 1069.74,609.101 1068.5,601.5C 1067.5,601.5 1066.5,601.5 1065.5,601.5C 1065.5,603.833 1065.5,606.167 1065.5,608.5C 1064.52,605.375 1064.19,602.042 1064.5,598.5C 1064.23,593.972 1063.56,589.639 1062.5,585.5C 1062.5,584.833 1062.5,584.167 1062.5,583.5C 1062.74,577.169 1061.74,571.169 1059.5,565.5C 1059.5,564.167 1059.5,562.833 1059.5,561.5C 1059.14,555.918 1058.14,550.585 1056.5,545.5C 1056.5,544.167 1056.5,542.833 1056.5,541.5C 1055.91,535.963 1054.91,530.63 1053.5,525.5C 1051.68,515.611 1050.35,505.611 1049.5,495.5C 1048.57,496.357 1047.91,497.357 1047.5,498.5C 1046.66,498.158 1046.33,497.492 1046.5,496.5C 1046.5,495.833 1046.5,495.167 1046.5,494.5C 1047.67,493.486 1048.34,492.153 1048.5,490.5C 1050.46,488.825 1051.79,489.158 1052.5,491.5 Z"/></g>
<g><path style="opacity:0.004" fill="#b8c8e9" d="M 1032.5,508.5 C 1035,508.511 1035.17,509.178 1033,510.5C 1032.54,509.906 1032.37,509.239 1032.5,508.5 Z"/></g>
<g><path style="opacity:0.169" fill="#eb8a65" d="M 1055.5,506.5 C 1056.17,506.5 1056.83,506.5 1057.5,506.5C 1057.83,510.5 1058.17,514.5 1058.5,518.5C 1057.14,514.675 1056.14,510.675 1055.5,506.5 Z"/></g>
<g><path style="opacity:0.094" fill="#eb9b7c" d="M 447.5,499.5 C 445.788,510.069 443.455,520.403 440.5,530.5C 441.35,522.098 442.683,513.765 444.5,505.5C 445.06,503.179 446.06,501.179 447.5,499.5 Z"/></g>
<g><path style="opacity:0.004" fill="#cccde2" d="M 1031.5,513.5 C 1030.47,513.103 1030.31,512.437 1031,511.5C 1031.46,512.094 1031.63,512.761 1031.5,513.5 Z"/></g>
<g><path style="opacity:0.4" fill="#cd9265" d="M 1036.5,508.5 C 1036.65,509.552 1036.48,510.552 1036,511.5C 1031.95,515.554 1027.95,519.554 1024,523.5C 1022,520.663 1022.17,517.996 1024.5,515.5C 1024.34,517.527 1024.5,519.527 1025,521.5C 1027,518.669 1029.17,516.003 1031.5,513.5C 1033.53,512.139 1035.19,510.473 1036.5,508.5 Z"/></g>
<g><path style="opacity:1" fill="#fb5226" d="M 452.5,486.5 C 456.76,489.471 457.427,493.137 454.5,497.5C 453.883,497.611 453.383,497.944 453,498.5C 452.235,504.817 451.735,511.151 451.5,517.5C 450.232,519.905 449.565,522.572 449.5,525.5C 449.425,528.206 449.092,530.873 448.5,533.5C 447.437,537.639 446.77,541.972 446.5,546.5C 443.085,560.99 440.752,575.656 439.5,590.5C 438.187,596.959 437.521,603.626 437.5,610.5C 436.194,615.616 435.527,620.949 435.5,626.5C 435.333,641.17 435.5,655.837 436,670.5C 437.336,685.538 438.836,700.538 440.5,715.5C 440.198,719.79 440.864,723.79 442.5,727.5C 444.697,742.081 448.697,756.081 454.5,769.5C 454.357,771.262 454.691,772.929 455.5,774.5C 455.023,775.478 454.357,776.311 453.5,777C 454.449,777.617 455.282,777.451 456,776.5C 456.167,777.667 456.333,778.833 456.5,780C 456.392,781.681 455.725,782.848 454.5,783.5C 451.708,776.795 449.041,770.128 446.5,763.5C 438.757,744.434 434.424,724.434 433.5,703.5C 432.038,689.666 430.372,675.999 428.5,662.5C 428.399,655.124 427.732,647.79 426.5,640.5C 427.827,630.545 428.493,620.545 428.5,610.5C 430.045,609.77 430.878,608.437 431,606.5C 431.789,604.288 431.622,602.288 430.5,600.5C 430.5,599.5 430.5,598.5 430.5,597.5C 432.22,595.342 433.053,592.675 433,589.5C 433.097,581.079 433.93,572.745 435.5,564.5C 435.48,563.274 435.147,562.274 434.5,561.5C 434.833,559.5 435.167,557.5 435.5,555.5C 437.311,553.615 438.478,551.281 439,548.5C 439.757,542.851 440.257,537.184 440.5,531.5C 440.5,531.167 440.5,530.833 440.5,530.5C 443.455,520.403 445.788,510.069 447.5,499.5C 448.013,495.771 448.846,492.104 450,488.5C 450.417,487.244 451.25,486.577 452.5,486.5 Z"/></g>
<g><path style="opacity:1" fill="#f8b59e" d="M 451.5,517.5 C 451.706,520.495 451.04,523.162 449.5,525.5C 449.565,522.572 450.232,519.905 451.5,517.5 Z"/></g>
<g><path style="opacity:1" fill="#f4ad89" d="M 1053.5,525.5 C 1054.91,530.63 1055.91,535.963 1056.5,541.5C 1054.23,536.549 1053.23,531.216 1053.5,525.5 Z"/></g>
<g><path style="opacity:1" fill="#f5c9b7" d="M 448.5,533.5 C 448.844,538.122 448.177,542.455 446.5,546.5C 446.77,541.972 447.437,537.639 448.5,533.5 Z"/></g>
<g><path style="opacity:0.067" fill="#e7a182" d="M 1058.5,518.5 C 1059.67,522.109 1060.83,525.776 1062,529.5C 1065.29,549.588 1068.46,569.588 1071.5,589.5C 1070.83,589.5 1070.17,589.5 1069.5,589.5C 1065.51,565.886 1061.84,542.219 1058.5,518.5 Z"/></g>
<g><path style="opacity:0.043" fill="#ebb59e" d="M 438.5,544.5 C 438.405,546.786 437.738,548.786 436.5,550.5C 436.025,547.918 436.692,545.918 438.5,544.5 Z"/></g>
<g><path style="opacity:1" fill="#fbfaf9" d="M 1053.5,525.5 C 1053.23,531.216 1054.23,536.549 1056.5,541.5C 1056.5,542.833 1056.5,544.167 1056.5,545.5C 1056.24,551.194 1057.24,556.527 1059.5,561.5C 1059.5,562.833 1059.5,564.167 1059.5,565.5C 1059.74,571.184 1060.24,576.851 1061,582.5C 1061.38,583.056 1061.88,583.389 1062.5,583.5C 1062.5,584.167 1062.5,584.833 1062.5,585.5C 1062.16,590.122 1062.82,594.455 1064.5,598.5C 1064.19,602.042 1064.52,605.375 1065.5,608.5C 1067.05,632.199 1066.72,655.866 1064.5,679.5C 1062.83,682.507 1062.16,685.84 1062.5,689.5C 1062.5,692.833 1062.5,696.167 1062.5,699.5C 1061.14,705.31 1060.14,711.31 1059.5,717.5C 1058.72,722.484 1058.06,727.484 1057.5,732.5C 1047.49,766.687 1033.65,799.354 1016,830.5C 999.154,854.844 980.654,877.844 960.5,899.5C 952.792,906.543 944.792,913.21 936.5,919.5C 934.482,918.825 932.816,917.659 931.5,916C 931.905,915.055 932.572,914.388 933.5,914C 932.207,913.51 930.873,913.343 929.5,913.5C 929.5,911.833 929.5,910.167 929.5,908.5C 930.521,896.416 927.688,885.416 921,875.5C 917.985,872.317 914.818,869.317 911.5,866.5C 912.283,864.712 913.616,863.712 915.5,863.5C 932.48,856.376 947.813,846.543 961.5,834C 967.996,826.504 974.829,819.337 982,812.5C 987.235,804.37 991.069,795.704 993.5,786.5C 995.5,781.167 993.833,779.5 988.5,781.5C 987.488,782.872 986.488,784.205 985.5,785.5C 984.167,782.135 985.167,779.468 988.5,777.5C 989.339,770.603 990.005,763.937 990.5,757.5C 989.731,754.49 988.897,751.49 988,748.5C 987.667,749.833 987.333,751.167 987,752.5C 986.617,751.944 986.117,751.611 985.5,751.5C 992.104,739.292 998.437,726.959 1004.5,714.5C 1006.98,713.313 1007.98,711.313 1007.5,708.5C 1015.41,691.025 1022.25,673.025 1028,654.5C 1029.99,646.597 1030.65,638.597 1030,630.5C 1023.38,625.238 1015.88,622.238 1007.5,621.5C 1003.85,621.743 1001.02,623.41 999,626.5C 990.325,644.842 977.158,659.009 959.5,669C 939.861,678.587 919.195,685.253 897.5,689C 876.802,694.518 857.135,702.518 838.5,713C 831.051,717.952 824.051,723.452 817.5,729.5C 816.378,727.712 816.211,725.712 817,723.5C 820.73,718.478 822.563,712.811 822.5,706.5C 820.774,706.815 819.107,706.981 817.5,707C 818.949,705.883 820.616,705.216 822.5,705C 821.263,704.768 820.263,704.268 819.5,703.5C 831.058,697.561 843.058,692.394 855.5,688C 879.955,681.71 904.288,675.044 928.5,668C 931,666.167 933.5,664.333 936,662.5C 936.833,659.829 936.333,657.496 934.5,655.5C 935.496,655.414 936.329,655.748 937,656.5C 943.571,654.353 950.071,652.02 956.5,649.5C 956.281,648.325 956.614,647.325 957.5,646.5C 967.728,639.776 976.894,631.776 985,622.5C 988.569,615.03 992.902,608.03 998,601.5C 1002.78,597.721 1006.44,593.054 1009,587.5C 1016.72,579.779 1023.72,572.779 1030,566.5C 1030.25,563.11 1030.75,559.777 1031.5,556.5C 1029.58,552.807 1028.25,552.807 1027.5,556.5C 1025.8,556.34 1024.13,556.506 1022.5,557C 1020.89,559.127 1018.89,560.627 1016.5,561.5C 1023.52,555.149 1029.85,548.149 1035.5,540.5C 1036.46,542.265 1036.79,544.265 1036.5,546.5C 1034.87,552.928 1034.21,559.595 1034.5,566.5C 1034.5,567.5 1034.5,568.5 1034.5,569.5C 1032.82,573.545 1032.16,577.878 1032.5,582.5C 1030.59,591.098 1030.25,599.765 1031.5,608.5C 1033.45,603.705 1034.95,598.705 1036,593.5C 1039.85,573.022 1041.68,552.355 1041.5,531.5C 1043.64,520.58 1045.64,509.58 1047.5,498.5C 1047.91,497.357 1048.57,496.357 1049.5,495.5C 1050.35,505.611 1051.68,515.611 1053.5,525.5 Z"/></g>
<g><path style="opacity:0.049" fill="#f26d49" d="M 440.5,531.5 C 440.257,537.184 439.757,542.851 439,548.5C 438.478,551.281 437.311,553.615 435.5,555.5C 435.366,553.708 435.699,552.042 436.5,550.5C 437.738,548.786 438.405,546.786 438.5,544.5C 438.438,539.924 439.105,535.591 440.5,531.5 Z"/></g>
<g><path style="opacity:1" fill="#f7c2a5" d="M 1056.5,545.5 C 1058.14,550.585 1059.14,555.918 1059.5,561.5C 1057.24,556.527 1056.24,551.194 1056.5,545.5 Z"/></g>
<g><path style="opacity:1" fill="#d2a48e" d="M 1036.5,546.5 C 1036.6,553.386 1035.94,560.053 1034.5,566.5C 1034.21,559.595 1034.87,552.928 1036.5,546.5 Z"/></g>
<g><path style="opacity:1" fill="#e8ccb2" d="M 460.5,553.5 C 461.458,558.658 462.125,563.991 462.5,569.5C 460.74,564.447 460.073,559.114 460.5,553.5 Z"/></g>
<g><path style="opacity:1" fill="#ecbfbc" d="M 588.5,565.5 C 585.574,568.458 581.907,570.125 577.5,570.5C 580.836,568.269 584.503,566.603 588.5,565.5 Z"/></g>
<g><path style="opacity:0.184" fill="#ed9d8d" d="M 434.5,561.5 C 435.147,562.274 435.48,563.274 435.5,564.5C 433.93,572.745 433.097,581.079 433,589.5C 433.053,592.675 432.22,595.342 430.5,597.5C 431.307,585.433 432.64,573.433 434.5,561.5 Z"/></g>
<g><path style="opacity:1" fill="#e89990" d="M 571.5,572.5 C 568.456,574.011 565.122,574.678 561.5,574.5C 564.589,573.215 567.922,572.549 571.5,572.5 Z"/></g>
<g><path style="opacity:1" fill="#dcc6b0" d="M 990.5,575.5 C 986.119,577.211 981.453,577.877 976.5,577.5C 980.919,576.028 985.586,575.362 990.5,575.5 Z"/></g>
<g><path style="opacity:1" fill="#d2b8ad" d="M 1034.5,569.5 C 1034.23,574.028 1033.56,578.361 1032.5,582.5C 1032.16,577.878 1032.82,573.545 1034.5,569.5 Z"/></g>
<g><path style="opacity:1" fill="#ca7651" d="M 1041.5,531.5 C 1041.68,552.355 1039.85,573.022 1036,593.5C 1034.95,598.705 1033.45,603.705 1031.5,608.5C 1030.25,599.765 1030.59,591.098 1032.5,582.5C 1033.56,578.361 1034.23,574.028 1034.5,569.5C 1034.5,568.5 1034.5,567.5 1034.5,566.5C 1035.94,560.053 1036.6,553.386 1036.5,546.5C 1036.79,544.265 1036.46,542.265 1035.5,540.5C 1036.53,539.751 1037.7,539.085 1039,538.5C 1039.9,536.073 1040.74,533.74 1041.5,531.5 Z"/></g>
<g><path style="opacity:1" fill="#fad8c7" d="M 1059.5,565.5 C 1061.74,571.169 1062.74,577.169 1062.5,583.5C 1061.88,583.389 1061.38,583.056 1061,582.5C 1060.24,576.851 1059.74,571.184 1059.5,565.5 Z"/></g>
<g><path style="opacity:1" fill="#e1cab1" d="M 462.5,569.5 C 463.696,575.97 464.362,582.637 464.5,589.5C 462.961,583.063 462.294,576.396 462.5,569.5 Z"/></g>
<g><path style="opacity:0.043" fill="#ed7a46" d="M 1069.5,589.5 C 1070.17,589.5 1070.83,589.5 1071.5,589.5C 1071.5,591.167 1071.5,592.833 1071.5,594.5C 1070.55,595.919 1070.22,597.585 1070.5,599.5C 1069.52,596.375 1069.19,593.042 1069.5,589.5 Z"/></g>
<g><path style="opacity:1" fill="#f6b593" d="M 1062.5,585.5 C 1063.56,589.639 1064.23,593.972 1064.5,598.5C 1062.82,594.455 1062.16,590.122 1062.5,585.5 Z"/></g>
<g><path style="opacity:1" fill="#f3c09e" d="M 616.5,595.5 C 603.919,594.924 591.586,596.258 579.5,599.5C 582.021,596.536 585.354,595.203 589.5,595.5C 598.664,594.384 607.664,594.384 616.5,595.5 Z"/></g>
<g><path style="opacity:1" fill="#f96611" d="M 918.5,597.5 C 920.936,598.871 923.603,599.871 926.5,600.5C 928.297,601.73 930.297,602.396 932.5,602.5C 933.833,604.5 935.5,606.167 937.5,607.5C 938.965,609.546 938.632,611.38 936.5,613C 933.28,613.32 930.28,612.82 927.5,611.5C 925.485,610.076 923.152,609.41 920.5,609.5C 907.051,605.082 893.384,604.415 879.5,607.5C 875.673,607.752 872.34,609.085 869.5,611.5C 859.56,617.027 853.227,625.36 850.5,636.5C 849.5,636.5 848.5,636.5 847.5,636.5C 846.593,629.229 848.093,622.562 852,616.5C 859.637,605.184 870.137,598.351 883.5,596C 895.254,595.103 906.921,595.603 918.5,597.5 Z"/></g>
<g><path style="opacity:1" fill="#f3ba99" d="M 918.5,597.5 C 921.716,597.345 924.383,598.345 926.5,600.5C 923.603,599.871 920.936,598.871 918.5,597.5 Z"/></g>
<g><path style="opacity:0.067" fill="#e9a28c" d="M 1071.5,594.5 C 1072.47,603.75 1072.81,613.083 1072.5,622.5C 1071.7,614.988 1071.03,607.321 1070.5,599.5C 1070.22,597.585 1070.55,595.919 1071.5,594.5 Z"/></g>
<g><path style="opacity:1" fill="#e8b48d" d="M 932.5,602.5 C 935.167,603.167 936.833,604.833 937.5,607.5C 935.5,606.167 933.833,604.5 932.5,602.5 Z"/></g>
<g><path style="opacity:1" fill="#fad2c8" d="M 439.5,590.5 C 440.126,597.584 439.459,604.25 437.5,610.5C 437.521,603.626 438.187,596.959 439.5,590.5 Z"/></g>
<g><path style="opacity:0.196" fill="#e39e8d" d="M 430.5,600.5 C 431.622,602.288 431.789,604.288 431,606.5C 430.878,608.437 430.045,609.77 428.5,610.5C 428.155,606.885 428.822,603.552 430.5,600.5 Z"/></g>
<g><path style="opacity:1" fill="#f69a62" d="M 920.5,609.5 C 923.152,609.41 925.485,610.076 927.5,611.5C 924.848,611.59 922.515,610.924 920.5,609.5 Z"/></g>
<g><path style="opacity:1" fill="#f3cbb0" d="M 879.5,607.5 C 876.66,609.915 873.327,611.248 869.5,611.5C 872.34,609.085 875.673,607.752 879.5,607.5 Z"/></g>
<g><path style="opacity:1" fill="#edb691" d="M 566.5,605.5 C 564.91,608.455 565.243,611.122 567.5,613.5C 565.11,613.315 564.11,611.982 564.5,609.5C 564.34,607.645 565.007,606.312 566.5,605.5 Z"/></g>
<g><path style="opacity:1" fill="#f76817" d="M 616.5,595.5 C 631.174,598.095 643.007,605.428 652,617.5C 655.85,623.63 656.35,629.964 653.5,636.5C 648.57,622.904 639.237,613.57 625.5,608.5C 625.082,607.778 624.416,607.278 623.5,607C 612.989,604.928 602.655,605.095 592.5,607.5C 584.093,609.352 575.759,611.352 567.5,613.5C 565.243,611.122 564.91,608.455 566.5,605.5C 570.245,602.126 574.578,600.126 579.5,599.5C 591.586,596.258 603.919,594.924 616.5,595.5 Z"/></g>
<g><path style="opacity:1" fill="#f6decb" d="M 625.5,608.5 C 614.538,607.568 603.538,607.235 592.5,607.5C 602.655,605.095 612.989,604.928 623.5,607C 624.416,607.278 625.082,607.778 625.5,608.5 Z"/></g>
<g><path style="opacity:1" fill="#f3a68d" d="M 437.5,610.5 C 437.745,616.084 437.078,621.417 435.5,626.5C 435.527,620.949 436.194,615.616 437.5,610.5 Z"/></g>
<g><path style="opacity:1" fill="#e23b2e" d="M 1007.5,708.5 C 1006.51,710.456 1005.51,712.456 1004.5,714.5C 998.437,726.959 992.104,739.292 985.5,751.5C 980.012,757.146 974.012,762.313 967.5,767C 956.167,774.667 944.833,782.333 933.5,790C 928.408,792.419 923.075,793.419 917.5,793C 915.596,789.429 912.763,786.929 909,785.5C 900.066,791.384 890.899,796.884 881.5,802C 868.799,806.792 856.132,811.792 843.5,817C 832.538,821.478 822.538,827.478 813.5,835C 805.833,842 798.167,849 790.5,856C 787.281,858.848 785.281,862.348 784.5,866.5C 782.876,866.64 781.71,865.973 781,864.5C 776.223,814.582 788.39,769.582 817.5,729.5C 824.051,723.452 831.051,717.952 838.5,713C 857.135,702.518 876.802,694.518 897.5,689C 919.195,685.253 939.861,678.587 959.5,669C 977.158,659.009 990.325,644.842 999,626.5C 1001.02,623.41 1003.85,621.743 1007.5,621.5C 1015.88,622.238 1023.38,625.238 1030,630.5C 1030.65,638.597 1029.99,646.597 1028,654.5C 1022.25,673.025 1015.41,691.025 1007.5,708.5 Z"/></g>
<g><path style="opacity:1" fill="#e23b2e" d="M 562.5,678.5 C 565.145,680.31 568.145,681.31 571.5,681.5C 596.491,687.75 621.158,695.25 645.5,704C 660.448,708.94 672.615,717.774 682,730.5C 690.871,742.902 698.204,756.235 704,770.5C 713.179,802.274 717.679,834.607 717.5,867.5C 705.261,850.765 690.261,836.931 672.5,826C 652.286,816.481 631.952,807.147 611.5,798C 605.156,794.496 599.156,790.496 593.5,786C 592.167,785.333 590.833,785.333 589.5,786C 584.852,792.663 578.519,794.996 570.5,793C 556.459,784.312 543.126,774.646 530.5,764C 519.587,753.338 510.753,741.171 504,727.5C 496.568,709.646 488.902,691.979 481,674.5C 478.018,664.91 475.184,655.243 472.5,645.5C 471.949,642.193 471.616,638.86 471.5,635.5C 472.167,628.805 475.833,624.638 482.5,623C 490.274,620.757 496.441,622.923 501,629.5C 511.335,650.168 527.169,665.001 548.5,674C 553.19,675.504 557.857,677.004 562.5,678.5 Z"/></g>
<g><path style="opacity:1" fill="#e87973" d="M 471.5,635.5 C 471.616,638.86 471.949,642.193 472.5,645.5C 470.469,642.292 470.135,638.959 471.5,635.5 Z"/></g>
<g><path style="opacity:1" fill="#93150b" d="M 478.5,637.5 C 487.215,647.391 496.215,657.225 505.5,667C 503.196,666.427 501.029,665.26 499,663.5C 491.548,655.227 484.714,646.56 478.5,637.5 Z"/></g>
<g><path style="opacity:1" fill="#fa6310" d="M 599.5,661.5 C 601.838,663.04 604.505,663.706 607.5,663.5C 608.167,663.5 608.833,663.5 609.5,663.5C 614.559,664.405 619.559,665.739 624.5,667.5C 632.367,671.173 640.367,674.673 648.5,678C 656.5,682.667 664.5,687.333 672.5,692C 675.052,694.853 677.885,697.353 681,699.5C 681.49,700.793 681.657,702.127 681.5,703.5C 679.073,703.477 676.74,702.977 674.5,702C 653.737,690.079 631.403,682.746 607.5,680C 592.241,675.917 577.741,670.084 564,662.5C 563.157,658.173 564.99,656.173 569.5,656.5C 579.524,658.169 589.524,659.835 599.5,661.5 Z"/></g>
<g><path style="opacity:1" fill="#f96a0f" d="M 934.5,655.5 C 936.333,657.496 936.833,659.829 936,662.5C 933.5,664.333 931,666.167 928.5,668C 904.288,675.044 879.955,681.71 855.5,688C 843.058,692.394 831.058,697.561 819.5,703.5C 818.527,701.932 818.36,700.265 819,698.5C 840.996,682.335 865.163,670.668 891.5,663.5C 894.187,663.664 896.854,663.497 899.5,663C 904.974,661.503 910.307,660.003 915.5,658.5C 921.757,657.019 928.09,656.019 934.5,655.5 Z"/></g>
<g><path style="opacity:1" fill="#f29c70" d="M 599.5,661.5 C 602.428,661.565 605.095,662.232 607.5,663.5C 604.505,663.706 601.838,663.04 599.5,661.5 Z"/></g>
<g><path style="opacity:1" fill="#f18b4a" d="M 915.5,658.5 C 910.307,660.003 904.974,661.503 899.5,663C 896.854,663.497 894.187,663.664 891.5,663.5C 899.218,661.053 907.218,659.386 915.5,658.5 Z"/></g>
<g><path style="opacity:1" fill="#f4d3b5" d="M 609.5,663.5 C 615.174,662.844 620.174,664.177 624.5,667.5C 619.559,665.739 614.559,664.405 609.5,663.5 Z"/></g>
<g><path style="opacity:1" fill="#762c18" d="M 1018.5,634.5 C 1019.59,634.62 1020.25,635.287 1020.5,636.5C 1015.38,647.897 1008.38,658.064 999.5,667C 998.833,667.667 998.167,667.667 997.5,667C 1007.42,657.97 1014.42,647.137 1018.5,634.5 Z"/></g>
<g><path style="opacity:1" fill="#ecb9b3" d="M 562.5,678.5 C 564.696,678.59 566.863,678.923 569,679.5C 570.376,679.684 571.209,680.351 571.5,681.5C 568.145,681.31 565.145,680.31 562.5,678.5 Z"/></g>
<g><path style="opacity:0.016" fill="#e89074" d="M 428.5,662.5 C 430.372,675.999 432.038,689.666 433.5,703.5C 432.833,702.5 432.167,701.5 431.5,700.5C 428.852,688.121 427.852,675.455 428.5,662.5 Z"/></g>
<g><path style="opacity:1" fill="#f3c4b1" d="M 1064.5,679.5 C 1064.84,683.16 1064.17,686.493 1062.5,689.5C 1062.16,685.84 1062.83,682.507 1064.5,679.5 Z"/></g>
<g><path style="opacity:1" fill="#f6491d" d="M 1071.5,671.5 C 1069.3,693.779 1065.63,715.779 1060.5,737.5C 1058.27,736.599 1057.27,734.933 1057.5,732.5C 1058.06,727.484 1058.72,722.484 1059.5,717.5C 1061.6,711.82 1062.6,705.82 1062.5,699.5C 1062.5,696.167 1062.5,692.833 1062.5,689.5C 1064.17,686.493 1064.84,683.16 1064.5,679.5C 1066.72,655.866 1067.05,632.199 1065.5,608.5C 1065.5,606.167 1065.5,603.833 1065.5,601.5C 1066.5,601.5 1067.5,601.5 1068.5,601.5C 1069.74,609.101 1070.57,616.767 1071,624.5C 1071.5,640.163 1071.67,655.83 1071.5,671.5 Z"/></g>
<g><path style="opacity:1" fill="#f27151" d="M 1062.5,699.5 C 1062.6,705.82 1061.6,711.82 1059.5,717.5C 1060.14,711.31 1061.14,705.31 1062.5,699.5 Z"/></g>
<g><path style="opacity:1" fill="#1d3134" d="M 908.5,709.5 C 919.187,709.168 929.854,709.501 940.5,710.5C 940.987,711.446 941.32,712.446 941.5,713.5C 937.139,721.558 933.305,729.892 930,738.5C 927.279,748.997 923.946,759.33 920,769.5C 919.167,770.333 918.333,771.167 917.5,772C 913.152,772.573 908.819,773.24 904.5,774C 881.566,782.283 857.9,788.449 833.5,792.5C 833.178,790.278 833.845,788.444 835.5,787C 862.468,779.439 889.468,771.939 916.5,764.5C 919.826,756.15 922.326,747.484 924,738.5C 926.201,732.432 929.201,726.765 933,721.5C 933.72,719.888 933.554,718.388 932.5,717C 912.032,717.067 891.699,718.733 871.5,722C 863.144,725.015 855.811,729.682 849.5,736C 833.533,753.635 817.199,770.969 800.5,788C 799.034,788.635 797.7,789.469 796.5,790.5C 796.167,790 795.833,789.5 795.5,789C 813.341,764.155 833.675,741.489 856.5,721C 860.888,718.139 865.554,715.806 870.5,714C 883.185,711.383 895.852,709.883 908.5,709.5 Z"/></g>
<g><path style="opacity:1" fill="#e7a6a2" d="M 1007.5,708.5 C 1007.98,711.313 1006.98,713.313 1004.5,714.5C 1005.51,712.456 1006.51,710.456 1007.5,708.5 Z"/></g>
<g><path style="opacity:1" fill="#a83933" d="M 619.5,712.5 C 625.993,712.718 632.327,713.884 638.5,716C 639.056,716.383 639.389,716.883 639.5,717.5C 632.724,715.787 626.057,714.121 619.5,712.5 Z"/></g>
<g><path style="opacity:1" fill="#1b3134" d="M 961.5,706.5 C 962.833,706.5 964.167,706.5 965.5,706.5C 965.245,709.016 964.411,711.35 963,713.5C 951.985,730.546 942.652,748.546 935,767.5C 933.285,770.397 930.785,771.731 927.5,771.5C 927.337,769.143 927.503,766.81 928,764.5C 935.226,742.802 946.393,723.468 961.5,706.5 Z"/></g>
<g><path style="opacity:1" fill="#f3825d" d="M 440.5,715.5 C 441.617,719.295 442.283,723.295 442.5,727.5C 440.864,723.79 440.198,719.79 440.5,715.5 Z"/></g>
<g><path style="opacity:1" fill="#59312d" d="M 912.5,723.5 C 915.962,722.518 919.629,722.185 923.5,722.5C 923.784,724.415 923.451,726.081 922.5,727.5C 922.5,726.167 922.5,724.833 922.5,723.5C 919.167,723.5 915.833,723.5 912.5,723.5 Z"/></g>
<g><path style="opacity:1" fill="#82322e" d="M 912.5,723.5 C 907.694,724.593 902.694,725.259 897.5,725.5C 902.234,723.855 907.234,723.189 912.5,723.5 Z"/></g>
<g><path style="opacity:1" fill="#173034" d="M 590.5,724.5 C 596.312,725.577 602.312,726.243 608.5,726.5C 615.98,727.956 623.646,729.123 631.5,730C 634.726,730.885 637.726,732.219 640.5,734C 654.752,747.916 667.919,762.749 680,778.5C 685.316,782.649 690.149,787.315 694.5,792.5C 694.167,792.833 693.833,793.167 693.5,793.5C 677.127,787.308 660.794,781.142 644.5,775C 633.816,772.166 623.149,769.666 612.5,767.5C 608.702,766.132 604.702,765.132 600.5,764.5C 596.077,762.839 591.911,760.505 588,757.5C 584.813,746.076 581.647,734.742 578.5,723.5C 582.519,723.646 586.519,723.979 590.5,724.5 Z"/></g>
<g><path style="opacity:1" fill="#173134" d="M 912.5,723.5 C 915.833,723.5 919.167,723.5 922.5,723.5C 922.5,724.833 922.5,726.167 922.5,727.5C 918.645,737.57 915.478,747.904 913,758.5C 909.754,760.688 906.254,762.354 902.5,763.5C 897.562,764.231 892.895,765.565 888.5,767.5C 867.643,773.44 846.643,778.94 825.5,784C 819.878,787.977 813.878,791.143 807.5,793.5C 812.604,784.876 819.104,777.21 827,770.5C 836.671,757.018 847.837,744.851 860.5,734C 863.891,731.814 867.558,730.314 871.5,729.5C 875.36,729.192 879.026,728.525 882.5,727.5C 887.306,726.407 892.306,725.741 897.5,725.5C 902.694,725.259 907.694,724.593 912.5,723.5 Z"/></g>
<g><path style="opacity:1" fill="#1d3134" d="M 536.5,705.5 C 538.903,705.393 540.736,706.393 542,708.5C 548.333,717.5 554.667,726.5 561,735.5C 565.297,746.412 569.963,757.079 575,767.5C 575.495,769.473 575.662,771.473 575.5,773.5C 573.801,773.66 572.134,773.494 570.5,773C 561.83,758.158 554.33,742.658 548,726.5C 543.615,719.723 539.781,712.723 536.5,705.5 Z"/></g>
<g><path style="opacity:1" fill="#75322b" d="M 882.5,727.5 C 879.026,728.525 875.36,729.192 871.5,729.5C 874.845,727.783 878.511,727.116 882.5,727.5 Z"/></g>
<g><path style="opacity:0.047" fill="#e69988" d="M 1071.5,671.5 C 1071.83,671.5 1072.17,671.5 1072.5,671.5C 1072.58,681.905 1071.75,692.238 1070,702.5C 1067.46,714.375 1065.13,726.375 1063,738.5C 1062.8,740.32 1061.97,741.653 1060.5,742.5C 1060.5,740.833 1060.5,739.167 1060.5,737.5C 1065.63,715.779 1069.3,693.779 1071.5,671.5 Z"/></g>
<g><path style="opacity:0.118" fill="#eaaf9e" d="M 431.5,700.5 C 432.167,701.5 432.833,702.5 433.5,703.5C 434.424,724.434 438.757,744.434 446.5,763.5C 446.5,764.833 446.5,766.167 446.5,767.5C 445.883,767.389 445.383,767.056 445,766.5C 442.299,757.015 439.299,747.681 436,738.5C 433.842,725.905 432.342,713.238 431.5,700.5 Z"/></g>
<g><path style="opacity:1" fill="#9f352c" d="M 902.5,763.5 C 898.195,765.746 893.529,767.08 888.5,767.5C 892.895,765.565 897.562,764.231 902.5,763.5 Z"/></g>
<g><path style="opacity:1" fill="#1c3034" d="M 619.5,712.5 C 626.057,714.121 632.724,715.787 639.5,717.5C 642.93,718.714 646.264,720.214 649.5,722C 655.709,728.041 661.709,734.208 667.5,740.5C 677.525,753.358 687.359,766.358 697,779.5C 697.494,781.134 697.66,782.801 697.5,784.5C 692.469,782.883 688.303,779.883 685,775.5C 674.681,762.185 664.015,749.185 653,736.5C 648.246,732.231 643.413,728.231 638.5,724.5C 636.095,723.232 633.428,722.565 630.5,722.5C 622.49,719.999 614.157,718.666 605.5,718.5C 592.512,717.626 579.512,716.959 566.5,716.5C 566.343,717.873 566.51,719.207 567,720.5C 570.039,724.945 572.706,729.612 575,734.5C 577.654,743.777 580.321,753.11 583,762.5C 584.129,764.141 585.629,765.141 587.5,765.5C 592.126,767.832 597.126,769.165 602.5,769.5C 608.054,771.239 613.721,772.572 619.5,773.5C 621.515,774.924 623.848,775.59 626.5,775.5C 636.178,777.72 645.844,780.387 655.5,783.5C 657.515,784.924 659.848,785.59 662.5,785.5C 672.891,789.215 672.724,791.215 662,791.5C 652.526,789.908 643.026,788.408 633.5,787C 628.541,786.054 623.875,784.554 619.5,782.5C 615.702,781.132 611.702,780.132 607.5,779.5C 598.899,777.133 590.399,774.466 582,771.5C 575.489,755.827 568.823,740.16 562,724.5C 559.027,720.026 555.86,715.693 552.5,711.5C 552.709,710.914 553.043,710.414 553.5,710C 575.57,709.513 597.57,710.346 619.5,712.5 Z"/></g>
<g><path style="opacity:1" fill="#b9332a" d="M 600.5,764.5 C 604.702,765.132 608.702,766.132 612.5,767.5C 609.626,767.549 606.792,767.216 604,766.5C 601.422,766.682 600.922,767.682 602.5,769.5C 597.126,769.165 592.126,767.832 587.5,765.5C 591.76,766.585 596.094,767.252 600.5,767.5C 600.5,766.5 600.5,765.5 600.5,764.5 Z"/></g>
<g><path style="opacity:1" fill="#ad3229" d="M 590.5,724.5 C 596.75,724.184 602.75,724.85 608.5,726.5C 602.312,726.243 596.312,725.577 590.5,724.5 Z"/></g>
<g><path style="opacity:1" fill="#653331" d="M 630.5,722.5 C 633.428,722.565 636.095,723.232 638.5,724.5C 635.505,724.706 632.838,724.04 630.5,722.5 Z"/></g>
<g><path style="opacity:1" fill="#4f3435" d="M 605.5,718.5 C 614.157,718.666 622.49,719.999 630.5,722.5C 622.006,721.472 613.673,720.139 605.5,718.5 Z"/></g>
<g><path style="opacity:0.035" fill="#e47967" d="M 1055.5,761.5 C 1055.48,763.927 1054.98,766.26 1054,768.5C 1050.86,774.775 1048.03,781.109 1045.5,787.5C 1045.5,786.833 1045.17,786.5 1044.5,786.5C 1047.52,779.288 1050.35,771.955 1053,764.5C 1053.38,763.058 1054.21,762.058 1055.5,761.5 Z"/></g>
<g><path style="opacity:1" fill="#8f2f2b" d="M 619.5,773.5 C 622.228,773.171 624.562,773.837 626.5,775.5C 623.848,775.59 621.515,774.924 619.5,773.5 Z"/></g>
<g><path style="opacity:1" fill="#6c3330" d="M 607.5,779.5 C 611.702,780.132 615.702,781.132 619.5,782.5C 615.098,782.692 611.098,781.692 607.5,779.5 Z"/></g>
<g><path style="opacity:1" fill="#8e312a" d="M 655.5,783.5 C 658.152,783.41 660.485,784.076 662.5,785.5C 659.848,785.59 657.515,784.924 655.5,783.5 Z"/></g>
<g><path style="opacity:1" fill="#f44738" d="M 454.5,769.5 C 458.94,780.793 463.607,792.126 468.5,803.5C 467.417,803.461 466.417,803.127 465.5,802.5C 463.501,798.573 461.667,793.907 460,788.5C 459.667,788.167 459.333,787.833 459,787.5C 458.722,788.416 458.222,789.082 457.5,789.5C 456.123,787.711 455.123,785.711 454.5,783.5C 455.725,782.848 456.392,781.681 456.5,780C 456.333,778.833 456.167,777.667 456,776.5C 455.282,777.451 454.449,777.617 453.5,777C 454.357,776.311 455.023,775.478 455.5,774.5C 454.691,772.929 454.357,771.262 454.5,769.5 Z"/></g>
<g><path style="opacity:1" fill="#db9f77" d="M 988.5,781.5 C 993.833,779.5 995.5,781.167 993.5,786.5C 994.167,782.5 992.5,780.833 988.5,781.5 Z"/></g>
<g><path style="opacity:1" fill="#f34d25" d="M 1057.5,732.5 C 1057.27,734.933 1058.27,736.599 1060.5,737.5C 1060.5,739.167 1060.5,740.833 1060.5,742.5C 1058.95,748.958 1057.28,755.291 1055.5,761.5C 1054.21,762.058 1053.38,763.058 1053,764.5C 1050.35,771.955 1047.52,779.288 1044.5,786.5C 1024.24,831.087 996.241,870.087 960.5,903.5C 959.646,902.368 959.646,901.035 960.5,899.5C 980.654,877.844 999.154,854.844 1016,830.5C 1033.65,799.354 1047.49,766.687 1057.5,732.5 Z"/></g>
<g><path style="opacity:0.012" fill="#e9a699" d="M 1044.5,786.5 C 1045.17,786.5 1045.5,786.833 1045.5,787.5C 1043.69,792.468 1041.85,797.468 1040,802.5C 1028.21,823.288 1015.21,843.288 1001,862.5C 990.696,875.303 979.863,887.637 968.5,899.5C 962.102,905.667 955.436,911.334 948.5,916.5C 952.5,912.167 956.5,907.833 960.5,903.5C 996.241,870.087 1024.24,831.087 1044.5,786.5 Z"/></g>
<g><path style="opacity:1" fill="#cb381b" d="M 988.5,781.5 C 992.5,780.833 994.167,782.5 993.5,786.5C 991.069,795.704 987.235,804.37 982,812.5C 974.829,819.337 967.996,826.504 961.5,834C 947.813,846.543 932.48,856.376 915.5,863.5C 917.019,860.723 916.352,858.723 913.5,857.5C 923.556,852.301 933.556,846.801 943.5,841C 964.168,827.505 978.168,809.005 985.5,785.5C 986.488,784.205 987.488,782.872 988.5,781.5 Z"/></g>
<g><path style="opacity:0.306" fill="#eba09b" d="M 446.5,763.5 C 449.041,770.128 451.708,776.795 454.5,783.5C 455.123,785.711 456.123,787.711 457.5,789.5C 463.697,804.895 471.197,819.561 480,833.5C 489.02,846.884 498.52,859.884 508.5,872.5C 480.48,842.077 459.813,807.077 446.5,767.5C 446.5,766.167 446.5,764.833 446.5,763.5 Z"/></g>
<g><path style="opacity:1" fill="#eab8ab" d="M 587.5,856.5 C 591.165,856.502 594.165,857.835 596.5,860.5C 593.088,859.925 590.088,858.592 587.5,856.5 Z"/></g>
<g><path style="opacity:1" fill="#cb2d17" d="M 587.5,856.5 C 590.088,858.592 593.088,859.925 596.5,860.5C 600.697,862.232 605.03,863.565 609.5,864.5C 612.939,866.204 616.605,867.538 620.5,868.5C 622.509,870.065 624.843,871.065 627.5,871.5C 632.97,874.399 638.636,877.066 644.5,879.5C 646.566,881.199 648.9,882.532 651.5,883.5C 654.366,886.521 657.7,889.021 661.5,891C 674.907,902.695 685.24,916.529 692.5,932.5C 693.267,936.149 694.6,939.482 696.5,942.5C 700.074,954.919 702.908,967.585 705,980.5C 706.695,986.619 708.695,992.619 711,998.5C 717.221,1006.36 725.388,1010.7 735.5,1011.5C 747.66,1012.66 759.993,1012.83 772.5,1012C 774.723,1011.43 776.723,1010.6 778.5,1009.5C 788.79,1006.21 794.79,999.207 796.5,988.5C 798.402,985.663 799.069,982.329 798.5,978.5C 800.177,974.455 800.844,970.122 800.5,965.5C 802.256,948.188 807.09,931.855 815,916.5C 827.416,899.415 842.916,885.915 861.5,876C 868.896,873.159 876.23,870.325 883.5,867.5C 890.727,865.616 897.727,863.282 904.5,860.5C 907.254,859.054 910.254,858.054 913.5,857.5C 916.352,858.723 917.019,860.723 915.5,863.5C 913.616,863.712 912.283,864.712 911.5,866.5C 914.818,869.317 917.985,872.317 921,875.5C 927.688,885.416 930.521,896.416 929.5,908.5C 927.39,920.853 920.723,930.02 909.5,936C 887.303,943.289 865.636,951.956 844.5,962C 838.892,965.276 833.558,968.943 828.5,973C 821.264,980.813 814.264,988.813 807.5,997C 802.933,1001.4 797.933,1005.23 792.5,1008.5C 779.535,1013.61 766.035,1015.61 752,1014.5C 737.295,1015.55 723.128,1013.55 709.5,1008.5C 707.036,1006.43 704.369,1004.6 701.5,1003C 692.539,992.038 682.872,981.704 672.5,972C 658.389,963.946 644.056,956.446 629.5,949.5C 627.485,948.076 625.152,947.41 622.5,947.5C 612.611,944.426 602.945,940.759 593.5,936.5C 588.899,933.076 584.399,929.409 580,925.5C 578.205,922.901 576.705,920.234 575.5,917.5C 575.483,915.435 575.15,913.435 574.5,911.5C 574.549,904.151 574.882,896.817 575.5,889.5C 575.629,887.784 575.962,886.117 576.5,884.5C 578.245,882.967 579.245,880.967 579.5,878.5C 581.7,874.12 584.533,870.12 588,866.5C 588.667,865.833 588.667,865.167 588,864.5C 584.833,863.333 581.667,862.167 578.5,861C 560.984,852.801 545.818,841.301 533,826.5C 522.182,816.011 514.182,803.678 509,789.5C 508.41,785.703 508.91,782.036 510.5,778.5C 514.159,782.018 516.325,786.351 517,791.5C 531.697,822.697 555.197,844.364 587.5,856.5 Z"/></g>
<g><path style="opacity:1" fill="#e4cabf" d="M 904.5,860.5 C 897.727,863.282 890.727,865.616 883.5,867.5C 885.827,866.141 888.16,864.641 890.5,863C 895.256,862.443 899.923,861.61 904.5,860.5 Z"/></g>
<g><path style="opacity:1" fill="#e6b3a8" d="M 609.5,864.5 C 613.708,864.677 617.374,866.01 620.5,868.5C 616.605,867.538 612.939,866.204 609.5,864.5 Z"/></g>
<g><path style="opacity:1" fill="#dea599" d="M 620.5,868.5 C 623.491,868.166 625.824,869.166 627.5,871.5C 624.843,871.065 622.509,870.065 620.5,868.5 Z"/></g>
<g><path style="opacity:1" fill="#f23a2d" d="M 468.5,803.5 C 472.957,811.74 477.457,820.073 482,828.5C 505.35,864.356 533.516,896.022 566.5,923.5C 566.577,924.75 567.244,925.583 568.5,926C 568,926.5 567.5,927 567,927.5C 566.184,926.177 565.017,925.511 563.5,925.5C 562.609,924.89 561.609,924.557 560.5,924.5C 559.415,922.413 557.749,921.08 555.5,920.5C 551.793,915.792 547.46,911.792 542.5,908.5C 530.773,896.776 519.44,884.776 508.5,872.5C 498.52,859.884 489.02,846.884 480,833.5C 471.197,819.561 463.697,804.895 457.5,789.5C 458.222,789.082 458.722,788.416 459,787.5C 459.333,787.833 459.667,788.167 460,788.5C 461.667,793.907 463.501,798.573 465.5,802.5C 466.417,803.127 467.417,803.461 468.5,803.5 Z"/></g>
<g><path style="opacity:1" fill="#e5aea2" d="M 644.5,879.5 C 647.546,879.725 649.879,881.058 651.5,883.5C 648.9,882.532 646.566,881.199 644.5,879.5 Z"/></g>
<g><path style="opacity:1" fill="#d9897e" d="M 579.5,878.5 C 579.245,880.967 578.245,882.967 576.5,884.5C 576.755,882.033 577.755,880.033 579.5,878.5 Z"/></g>
<g><path style="opacity:0.024" fill="#eeb3cc" d="M 519.5,887.5 C 519.5,888.167 519.833,888.5 520.5,888.5C 520.5,889.167 520.833,889.5 521.5,889.5C 521.611,891.648 520.944,891.981 519.5,890.5C 518.224,889.386 518.224,888.386 519.5,887.5 Z"/></g>
<g><path style="opacity:1" fill="#d75d4d" d="M 575.5,889.5 C 574.882,896.817 574.549,904.151 574.5,911.5C 574.167,911.5 573.833,911.5 573.5,911.5C 573.334,905.491 573.501,899.491 574,893.5C 574.21,891.942 574.71,890.609 575.5,889.5 Z"/></g>
<g><path style="opacity:0.486" fill="#e7a6a1" d="M 508.5,872.5 C 519.44,884.776 530.773,896.776 542.5,908.5C 535.221,902.558 528.221,896.225 521.5,889.5C 520.833,889.5 520.5,889.167 520.5,888.5C 519.833,888.5 519.5,888.167 519.5,887.5C 515.422,882.762 511.756,877.762 508.5,872.5 Z"/></g>
<g><path style="opacity:0.016" fill="#b5d2c5" d="M 539.5,909.5 C 541.337,909.639 541.67,910.306 540.5,911.5C 539.702,911.043 539.369,910.376 539.5,909.5 Z"/></g>
<g><path style="opacity:0.016" fill="#e99a99" d="M 542.5,908.5 C 547.46,911.792 551.793,915.792 555.5,920.5C 551.878,918.476 548.544,915.976 545.5,913C 543.859,911.871 542.859,910.371 542.5,908.5 Z"/></g>
<g><path style="opacity:1" fill="#e5a297" d="M 573.5,911.5 C 573.833,911.5 574.167,911.5 574.5,911.5C 575.15,913.435 575.483,915.435 575.5,917.5C 573.926,915.898 573.259,913.898 573.5,911.5 Z"/></g>
<g><path style="opacity:0.357" fill="#eea2a0" d="M 555.5,920.5 C 557.749,921.08 559.415,922.413 560.5,924.5C 558.251,923.92 556.585,922.587 555.5,920.5 Z"/></g>
<g><path style="opacity:0.004" fill="#eac1c0" d="M 935.5,929.5 C 936.773,930.077 936.773,930.743 935.5,931.5C 934.537,931.03 934.537,930.363 935.5,929.5 Z"/></g>
<g><path style="opacity:0.173" fill="#df9b86" d="M 560.5,924.5 C 561.609,924.557 562.609,924.89 563.5,925.5C 568.772,929.433 573.772,933.767 578.5,938.5C 576.22,937.36 573.886,936.193 571.5,935C 568.768,931.604 565.435,928.937 561.5,927C 560.748,926.329 560.414,925.496 560.5,924.5 Z"/></g>
<g><path style="opacity:1" fill="#ebbbb3" d="M 692.5,932.5 C 693.458,932.953 694.292,933.619 695,934.5C 695.567,937.168 696.067,939.834 696.5,942.5C 694.6,939.482 693.267,936.149 692.5,932.5 Z"/></g>
<g><path style="opacity:1" fill="#e88981" d="M 762.5,941.5 C 755.798,941.336 749.131,941.669 742.5,942.5C 746.034,940.952 749.867,940.286 754,940.5C 757.021,940.502 759.854,940.836 762.5,941.5 Z"/></g>
<g><path style="opacity:1" fill="#e04e15" d="M 960.5,899.5 C 959.646,901.035 959.646,902.368 960.5,903.5C 956.5,907.833 952.5,912.167 948.5,916.5C 936.106,925.381 924.106,934.881 912.5,945C 907.746,948.044 902.746,950.544 897.5,952.5C 898.72,950.718 899.386,948.718 899.5,946.5C 901.989,946.759 903.656,945.759 904.5,943.5C 909.605,940.108 914.938,936.941 920.5,934C 925.717,928.916 931.051,924.083 936.5,919.5C 944.792,913.21 952.792,906.543 960.5,899.5 Z"/></g>
<g><path style="opacity:0.004" fill="#b8cdf3" d="M 584.5,944.5 C 584.489,947.001 583.822,947.168 582.5,945C 583.094,944.536 583.761,944.369 584.5,944.5 Z"/></g>
<g><path style="opacity:1" fill="#f03d2f" d="M 762.5,941.5 C 772.945,946.417 777.612,954.417 776.5,965.5C 776.875,962.603 776.375,959.937 775,957.5C 774.911,961.028 774.244,964.362 773,967.5C 771.527,965.993 769.693,965.326 767.5,965.5C 763.111,965.923 758.778,966.59 754.5,967.5C 745.846,966.226 737.18,966.226 728.5,967.5C 728.662,965.473 728.495,963.473 728,961.5C 727.502,964.817 727.335,968.15 727.5,971.5C 726.778,971.082 726.278,970.416 726,969.5C 725.493,962.497 726.826,955.83 730,949.5C 733.102,945.2 737.269,942.867 742.5,942.5C 749.131,941.669 755.798,941.336 762.5,941.5 Z"/></g>
<g><path style="opacity:0.275" fill="#da8d77" d="M 948.5,916.5 C 948.631,917.239 948.464,917.906 948,918.5C 943.021,921.317 938.854,924.984 935.5,929.5C 926.162,935.841 917.162,942.675 908.5,950C 905.039,952.066 901.373,953.566 897.5,954.5C 897.5,953.833 897.5,953.167 897.5,952.5C 902.746,950.544 907.746,948.044 912.5,945C 924.106,934.881 936.106,925.381 948.5,916.5 Z"/></g>
<g><path style="opacity:1" fill="#d76b5c" d="M 622.5,947.5 C 625.152,947.41 627.485,948.076 629.5,949.5C 626.848,949.59 624.515,948.924 622.5,947.5 Z"/></g>
<g><path style="opacity:1" fill="#f6f0eb" d="M 586.5,936.5 C 588.785,937.546 591.118,937.546 593.5,936.5C 602.945,940.759 612.611,944.426 622.5,947.5C 624.515,948.924 626.848,949.59 629.5,949.5C 644.056,956.446 658.389,963.946 672.5,972C 682.872,981.704 692.539,992.038 701.5,1003C 704.369,1004.6 707.036,1006.43 709.5,1008.5C 707.123,1009.67 704.79,1009.34 702.5,1007.5C 694.489,1001.14 686.822,994.31 679.5,987C 658.098,970.966 634.765,958.633 609.5,950C 601.441,945.978 593.775,941.478 586.5,936.5 Z"/></g>
<g><path style="opacity:0.094" fill="#dca692" d="M 578.5,938.5 C 587.421,943.121 595.754,948.454 603.5,954.5C 596.734,951.087 590.401,947.753 584.5,944.5C 582.194,942.861 580.194,940.861 578.5,938.5 Z"/></g>
<g><path style="opacity:0.012" fill="#b0cbf8" d="M 599.5,955.5 C 599.897,954.475 600.563,954.308 601.5,955C 600.906,955.464 600.239,955.631 599.5,955.5 Z"/></g>
<g><path style="opacity:1" fill="#d55916" d="M 566.5,923.5 C 573.184,927.859 579.851,932.193 586.5,936.5C 593.775,941.478 601.441,945.978 609.5,950C 634.765,958.633 658.098,970.966 679.5,987C 686.822,994.31 694.489,1001.14 702.5,1007.5C 702.631,1008.24 702.464,1008.91 702,1009.5C 699.226,1007.45 696.393,1007.11 693.5,1008.5C 692.18,1007.06 690.514,1006.39 688.5,1006.5C 687.5,1004.83 686.167,1003.5 684.5,1002.5C 679.395,997.897 674.395,993.064 669.5,988C 667.922,986.906 666.255,986.072 664.5,985.5C 661.677,983.177 659.01,980.677 656.5,978C 654.146,977.153 651.812,976.32 649.5,975.5C 649.631,974.624 649.298,973.957 648.5,973.5C 634.133,966.569 619.466,960.235 604.5,954.5C 604.167,954.5 603.833,954.5 603.5,954.5C 595.754,948.454 587.421,943.121 578.5,938.5C 573.772,933.767 568.772,929.433 563.5,925.5C 565.017,925.511 566.184,926.177 567,927.5C 567.5,927 568,926.5 568.5,926C 567.244,925.583 566.577,924.75 566.5,923.5 Z"/></g>
<g><path style="opacity:1" fill="#f6f1ec" d="M 929.5,908.5 C 929.5,910.167 929.5,911.833 929.5,913.5C 930.873,913.343 932.207,913.51 933.5,914C 932.572,914.388 931.905,915.055 931.5,916C 932.816,917.659 934.482,918.825 936.5,919.5C 931.051,924.083 925.717,928.916 920.5,934C 914.938,936.941 909.605,940.108 904.5,943.5C 885.657,952.13 866.657,960.63 847.5,969C 841.892,972.276 836.558,975.943 831.5,980C 820.963,991.587 808.963,1001.25 795.5,1009C 794.251,1009.74 793.251,1009.57 792.5,1008.5C 797.933,1005.23 802.933,1001.4 807.5,997C 814.264,988.813 821.264,980.813 828.5,973C 833.558,968.943 838.892,965.276 844.5,962C 865.636,951.956 887.303,943.289 909.5,936C 920.723,930.02 927.39,920.853 929.5,908.5 Z"/></g>
<g><path style="opacity:0.094" fill="#db9f86" d="M 604.5,954.5 C 619.466,960.235 634.133,966.569 648.5,973.5C 649.298,973.957 649.631,974.624 649.5,975.5C 636.465,970.154 623.465,964.654 610.5,959C 608.369,957.53 606.369,956.03 604.5,954.5 Z"/></g>
<g><path style="opacity:1" fill="#f23b18" d="M 776.5,965.5 C 776.966,971.19 774.966,975.69 770.5,979C 757.5,979.667 744.5,979.667 731.5,979C 729.506,976.842 728.172,974.342 727.5,971.5C 727.335,968.15 727.502,964.817 728,961.5C 728.495,963.473 728.662,965.473 728.5,967.5C 737.18,966.226 745.846,966.226 754.5,967.5C 758.778,966.59 763.111,965.923 767.5,965.5C 769.693,965.326 771.527,965.993 773,967.5C 774.244,964.362 774.911,961.028 775,957.5C 776.375,959.937 776.875,962.603 776.5,965.5 Z"/></g>
<g><path style="opacity:1" fill="#d06555" d="M 800.5,965.5 C 800.844,970.122 800.177,974.455 798.5,978.5C 798.28,973.9 798.946,969.567 800.5,965.5 Z"/></g>
<g><path style="opacity:1" fill="#d15b48" d="M 798.5,978.5 C 799.069,982.329 798.402,985.663 796.5,988.5C 796.753,984.96 797.419,981.627 798.5,978.5 Z"/></g>
<g><path style="opacity:0.004" fill="#accdf5" d="M 671.5,994.5 C 672.289,994.783 672.956,995.283 673.5,996C 672.184,996.528 671.517,996.028 671.5,994.5 Z"/></g>
<g><path style="opacity:0.035" fill="#e0a691" d="M 664.5,985.5 C 666.255,986.072 667.922,986.906 669.5,988C 674.395,993.064 679.395,997.897 684.5,1002.5C 682.059,1001.44 679.725,1000.11 677.5,998.5C 672.94,994.388 668.606,990.055 664.5,985.5 Z"/></g>
<g><path style="opacity:0.263" fill="#d4a385" d="M 897.5,954.5 C 895.906,955.983 894.24,957.483 892.5,959C 882.923,962.125 873.59,965.791 864.5,970C 859.5,973.503 854.166,976.503 848.5,979C 837.842,987.992 827.509,997.325 817.5,1007C 800.91,1018.11 782.576,1023.27 762.5,1022.5C 775.822,1020.49 789.155,1017.65 802.5,1014C 808.337,1010.58 814.004,1006.92 819.5,1003C 828.553,992.947 838.553,983.947 849.5,976C 857.291,972.185 864.958,968.185 872.5,964C 881.019,961.108 889.353,957.941 897.5,954.5 Z"/></g>
<g><path style="opacity:1" fill="#c46111" d="M 904.5,943.5 C 903.656,945.759 901.989,946.759 899.5,946.5C 899.386,948.718 898.72,950.718 897.5,952.5C 897.5,953.167 897.5,953.833 897.5,954.5C 889.353,957.941 881.019,961.108 872.5,964C 864.958,968.185 857.291,972.185 849.5,976C 838.553,983.947 828.553,992.947 819.5,1003C 814.004,1006.92 808.337,1010.58 802.5,1014C 789.155,1017.65 775.822,1020.49 762.5,1022.5C 754.512,1023.68 746.512,1023.68 738.5,1022.5C 728.17,1020.07 717.504,1017.9 706.5,1016C 702.964,1014.21 699.297,1012.71 695.5,1011.5C 694.833,1011.5 694.5,1011.17 694.5,1010.5C 694.167,1009.83 693.833,1009.17 693.5,1008.5C 696.393,1007.11 699.226,1007.45 702,1009.5C 702.464,1008.91 702.631,1008.24 702.5,1007.5C 704.79,1009.34 707.123,1009.67 709.5,1008.5C 723.128,1013.55 737.295,1015.55 752,1014.5C 766.035,1015.61 779.535,1013.61 792.5,1008.5C 793.251,1009.57 794.251,1009.74 795.5,1009C 808.963,1001.25 820.963,991.587 831.5,980C 836.558,975.943 841.892,972.276 847.5,969C 866.657,960.63 885.657,952.13 904.5,943.5 Z"/></g>
<g><path style="opacity:0.259" fill="#d59c82" d="M 688.5,1006.5 C 690.514,1006.39 692.18,1007.06 693.5,1008.5C 693.833,1009.17 694.167,1009.83 694.5,1010.5C 691.802,1010.16 689.802,1008.82 688.5,1006.5 Z"/></g>
<g><path style="opacity:1" fill="#ebcbc5" d="M 778.5,1009.5 C 776.723,1010.6 774.723,1011.43 772.5,1012C 759.993,1012.83 747.66,1012.66 735.5,1011.5C 749.909,1011.96 764.242,1011.3 778.5,1009.5 Z"/></g>
<g><path style="opacity:0.349" fill="#cc9875" d="M 695.5,1011.5 C 699.297,1012.71 702.964,1014.21 706.5,1016C 717.504,1017.9 728.17,1020.07 738.5,1022.5C 724.479,1021.47 710.812,1018.64 697.5,1014C 696.619,1013.29 695.953,1012.46 695.5,1011.5 Z"/></g>
<g><path style="opacity:0.922" fill="#e33e31" d="M 661.5,1051.5 C 667.273,1050.75 670.607,1053.42 671.5,1059.5C 674.642,1059.8 676.809,1061.47 678,1064.5C 678.785,1062.71 679.951,1061.21 681.5,1060C 686.297,1057.79 691.297,1056.29 696.5,1055.5C 701.507,1056.2 706.507,1057.04 711.5,1058C 717.193,1058.36 720.193,1061.36 720.5,1067C 719.362,1087.81 719.195,1108.65 720,1129.5C 720.395,1138.87 722.395,1147.87 726,1156.5C 730.438,1161.7 735.938,1163.37 742.5,1161.5C 740.81,1139.52 738.977,1117.52 737,1095.5C 735.958,1085.36 736.625,1075.36 739,1065.5C 742.478,1063.35 745.645,1060.85 748.5,1058C 757.867,1055.16 767.2,1055.5 776.5,1059C 778.487,1060.32 779.654,1062.15 780,1064.5C 780.333,1067.83 780.667,1071.17 781,1074.5C 781.211,1066.95 784.711,1061.45 791.5,1058C 800.4,1055.11 809.4,1054.78 818.5,1057C 820.667,1057.83 822.167,1059.33 823,1061.5C 824.057,1069.46 824.723,1077.46 825,1085.5C 832.147,1076.72 839.647,1068.22 847.5,1060C 851.843,1058.49 856.176,1056.99 860.5,1055.5C 864.136,1057.32 867.802,1059.15 871.5,1061C 873.487,1062.32 874.654,1064.15 875,1066.5C 878.314,1063.18 882.148,1060.68 886.5,1059C 904.82,1057.75 923.153,1057.41 941.5,1058C 946.017,1058.26 950.351,1059.26 954.5,1061C 957.931,1064.22 959.265,1068.22 958.5,1073C 957.42,1094.82 957.253,1116.66 958,1138.5C 958.745,1146.07 961.078,1153.07 965,1159.5C 967.921,1161.71 971.088,1163.55 974.5,1165C 976.336,1168.26 979.003,1170.59 982.5,1172C 985.668,1175.13 986.001,1178.46 983.5,1182C 983.616,1183.27 983.949,1184.6 984.5,1186C 982.167,1189.67 979.833,1193.33 977.5,1197C 960.538,1201.63 946.038,1197.47 934,1184.5C 930.46,1179.92 927.294,1175.09 924.5,1170C 922.833,1169.83 921.167,1169.67 919.5,1169.5C 917.359,1169.61 915.525,1170.28 914,1171.5C 915.609,1183.89 912.109,1194.39 903.5,1203C 900.417,1204.1 897.251,1204.93 894,1205.5C 890.031,1203.47 885.865,1201.97 881.5,1201C 879.951,1199.79 878.785,1198.29 878,1196.5C 876.355,1190.61 875.355,1184.61 875,1178.5C 875.261,1186.71 872.928,1194.05 868,1200.5C 866.355,1202.66 864.188,1204 861.5,1204.5C 858.244,1204.19 854.911,1204.03 851.5,1204C 848.56,1202.85 845.56,1201.85 842.5,1201C 841.213,1199.59 840.046,1198.09 839,1196.5C 836.333,1185.83 833.667,1175.17 831,1164.5C 829.214,1159.05 826.214,1154.38 822,1150.5C 820.06,1163.87 816.727,1176.87 812,1189.5C 810.587,1192.66 808.92,1195.66 807,1198.5C 803.481,1201 799.981,1203.5 796.5,1206C 794.541,1206.93 792.541,1207.76 790.5,1208.5C 786.956,1206.46 783.289,1204.63 779.5,1203C 778.213,1201.59 777.046,1200.09 776,1198.5C 773.84,1202.92 770.506,1204.25 766,1202.5C 764.559,1203.26 763.059,1203.93 761.5,1204.5C 755.884,1201.69 749.884,1201.02 743.5,1202.5C 709.044,1203.02 688.544,1186.35 682,1152.5C 681.888,1164.21 681.221,1175.88 680,1187.5C 676.602,1196.23 670.269,1201.23 661,1202.5C 649.179,1200.01 638.679,1194.84 629.5,1187C 623,1180.5 616.5,1174 610,1167.5C 608.219,1174.73 606.553,1182.06 605,1189.5C 604.275,1191.95 603.275,1194.28 602,1196.5C 598.535,1198.96 595.369,1201.8 592.5,1205C 583.217,1206.53 575.384,1203.69 569,1196.5C 568.529,1194.75 567.862,1193.09 567,1191.5C 566.332,1195.5 564.165,1198.33 560.5,1200C 556.729,1200.54 553.229,1201.04 550,1201.5C 547.218,1199.41 544.051,1198.24 540.5,1198C 536.154,1193.82 533.987,1188.66 534,1182.5C 533.014,1169.85 532.347,1157.18 532,1144.5C 530.644,1145.38 529.144,1145.71 527.5,1145.5C 527.858,1159.25 527.025,1172.92 525,1186.5C 522.752,1189.33 520.752,1192.33 519,1195.5C 517.213,1197.96 514.879,1199.62 512,1200.5C 508.988,1200.38 505.821,1200.21 502.5,1200C 500.112,1198.14 497.446,1196.81 494.5,1196C 489.83,1191.19 487.663,1185.36 488,1178.5C 487.5,1168.51 487.334,1158.51 487.5,1148.5C 484.5,1148.5 481.5,1148.5 478.5,1148.5C 478.231,1164.13 474.398,1178.8 467,1192.5C 464.167,1195.33 461.333,1198.17 458.5,1201C 453.382,1201.92 448.049,1202.59 442.5,1203C 438.912,1200.62 435.412,1198.12 432,1195.5C 431.445,1191.93 430.278,1188.26 428.5,1184.5C 430.131,1179.24 432.297,1174.24 435,1169.5C 436.893,1163.69 437.393,1157.86 436.5,1152C 433.353,1150.2 430.187,1148.37 427,1146.5C 420.345,1175.49 402.512,1193.66 373.5,1201C 362.735,1203.31 352.068,1202.98 341.5,1200C 337.717,1196.22 334.717,1191.88 332.5,1187C 332.837,1184.25 333.004,1181.42 333,1178.5C 334.633,1175.32 335.966,1171.99 337,1168.5C 338.8,1166.68 340.966,1165.52 343.5,1165C 352.737,1163.96 361.737,1161.96 370.5,1159C 374.255,1157.41 377.255,1154.91 379.5,1151.5C 354.708,1142.54 339.208,1125.21 333,1099.5C 330.238,1087.5 330.571,1075.5 334,1063.5C 336.145,1059.01 339.645,1056.51 344.5,1056C 366.5,1055.33 388.5,1055.33 410.5,1056C 413.956,1056.18 417.289,1056.85 420.5,1058C 429.469,1066.95 431.636,1077.45 427,1089.5C 422.4,1093.7 416.9,1095.87 410.5,1096C 399.813,1096.29 389.146,1096.79 378.5,1097.5C 379.4,1101.58 381.4,1105.08 384.5,1108C 387.833,1109.67 391.167,1111.33 394.5,1113C 402.5,1113.33 410.5,1113.67 418.5,1114C 421.872,1114.56 424.705,1116.06 427,1118.5C 430.027,1116.88 433.194,1115.55 436.5,1114.5C 436.833,1113 437.167,1111.5 437.5,1110C 436.098,1098.87 435.098,1087.7 434.5,1076.5C 434.482,1073.08 434.982,1069.74 436,1066.5C 446.676,1056.23 459.176,1053.39 473.5,1058C 475.049,1059.21 476.215,1060.71 477,1062.5C 478.536,1077.48 479.702,1092.48 480.5,1107.5C 482.262,1107.64 483.929,1107.31 485.5,1106.5C 486.394,1094.84 487.227,1083.17 488,1071.5C 488.511,1069.12 489.178,1066.79 490,1064.5C 502.484,1053.56 515.817,1052.56 530,1061.5C 530.988,1064.42 531.654,1067.42 532,1070.5C 536.506,1061.99 543.672,1057.65 553.5,1057.5C 560.298,1057.65 566.632,1059.32 572.5,1062.5C 575.104,1059.36 578.438,1057.53 582.5,1057C 593.131,1054.8 603.464,1055.8 613.5,1060C 614.667,1061.17 615.833,1062.33 617,1063.5C 618.617,1083.59 623.284,1102.92 631,1121.5C 633.935,1127.43 637.268,1133.09 641,1138.5C 641.584,1118.81 642.584,1099.14 644,1079.5C 646.486,1071.89 648.819,1064.22 651,1056.5C 651.833,1055.67 652.667,1054.83 653.5,1054C 656.376,1053.74 659.043,1052.91 661.5,1051.5 Z M 870.5,1092.5 C 872.095,1101.28 872.929,1110.28 873,1119.5C 873.566,1138.84 873.899,1158.17 874,1177.5C 873.326,1154.62 865.159,1134.96 849.5,1118.5C 857.282,1110.39 864.282,1101.73 870.5,1092.5 Z"/></g>
<g><path style="opacity:0.928" fill="#e33e31" d="M 1073.5,1054.5 C 1077.82,1055.04 1082.15,1055.54 1086.5,1056C 1089.45,1056.81 1092.11,1058.14 1094.5,1060C 1103.83,1060.67 1113.17,1060.67 1122.5,1060C 1127.32,1056.35 1132.82,1054.51 1139,1054.5C 1143.87,1055.13 1148.7,1055.96 1153.5,1057C 1157.34,1058.84 1159.68,1061.84 1160.5,1066C 1159.53,1081.14 1158.7,1096.31 1158,1111.5C 1158.09,1134.55 1151.76,1155.55 1139,1174.5C 1122.56,1192.64 1102.06,1202.64 1077.5,1204.5C 1070.92,1202.38 1064.25,1200.54 1057.5,1199C 1054.27,1197.44 1052.1,1194.94 1051,1191.5C 1050.39,1194.55 1048.89,1197.05 1046.5,1199C 1037.29,1203.08 1028.79,1201.58 1021,1194.5C 1019.38,1190.67 1018.38,1186.67 1018,1182.5C 1016.63,1151.97 1015.13,1121.47 1013.5,1091C 1014.31,1084.17 1015.14,1077.34 1016,1070.5C 1020.51,1061.99 1027.67,1057.65 1037.5,1057.5C 1044.3,1057.65 1050.63,1059.32 1056.5,1062.5C 1060.24,1060.92 1063.57,1058.76 1066.5,1056C 1069.04,1055.81 1071.37,1055.31 1073.5,1054.5 Z M 1090.5,1160.5 C 1091.8,1159.12 1092.63,1157.45 1093,1155.5C 1094.17,1138.18 1095,1120.85 1095.5,1103.5C 1101.83,1102.83 1108.17,1102.17 1114.5,1101.5C 1116.54,1116.21 1115.04,1130.54 1110,1144.5C 1105.16,1151.84 1098.66,1157.17 1090.5,1160.5 Z M 1056.5,1159.5 C 1059.04,1164.18 1063.04,1166.68 1068.5,1167C 1064.66,1168.05 1060.99,1169.55 1057.5,1171.5C 1056.51,1167.55 1056.18,1163.55 1056.5,1159.5 Z"/></g>
<g><path style="opacity:1" fill="#fefcfb" d="M 599.5,1185.5 C 598.778,1185.08 598.278,1184.42 598,1183.5C 596.864,1185.74 596.03,1188.08 595.5,1190.5C 594.306,1194.36 591.973,1197.36 588.5,1199.5C 587.065,1197.6 585.398,1197.27 583.5,1198.5C 580.435,1197.6 578.602,1195.6 578,1192.5C 576.667,1193.83 575.333,1193.83 574,1192.5C 575.107,1172.87 575.94,1153.21 576.5,1133.5C 575.169,1111.85 574.169,1090.18 573.5,1068.5C 575.201,1068.03 576.701,1068.03 578,1068.5C 578.5,1065.33 580.333,1063.5 583.5,1063C 589.833,1062.33 596.167,1062.33 602.5,1063C 605.454,1063.91 608.287,1065.07 611,1066.5C 612.989,1093.47 620.989,1118.47 635,1141.5C 639,1146.17 643,1150.83 647,1155.5C 647.784,1138.17 648.284,1120.84 648.5,1103.5C 649.29,1102.39 649.79,1101.06 650,1099.5C 651.087,1101.93 651.587,1101.6 651.5,1098.5C 651.419,1089.8 651.919,1081.13 653,1072.5C 653.729,1067.98 655.063,1063.65 657,1059.5C 659.589,1064.94 661.255,1064.6 662,1058.5C 663.377,1062.26 664.377,1061.93 665,1057.5C 666.074,1061.3 667.408,1064.97 669,1068.5C 669.284,1066.11 670.284,1065.45 672,1066.5C 673.106,1071.77 673.773,1077.1 674,1082.5C 674.333,1093.83 674.667,1105.17 675,1116.5C 675.925,1139.87 675.592,1163.2 674,1186.5C 669.505,1195.33 662.672,1197.83 653.5,1194C 633.527,1183.36 617.36,1168.53 605,1149.5C 603.584,1161.58 601.75,1173.58 599.5,1185.5 Z"/></g>
<g><path style="opacity:1" fill="#fefcfc" d="M 1087.5,1146.5 C 1086.66,1148.84 1085.66,1151.18 1084.5,1153.5C 1083.84,1156.82 1082.18,1159.49 1079.5,1161.5C 1077.28,1160.9 1075.11,1160.57 1073,1160.5C 1072.37,1162.99 1071.54,1162.99 1070.5,1160.5C 1067.72,1160.05 1065.22,1159.05 1063,1157.5C 1061.21,1133.37 1059.71,1109.2 1058.5,1085C 1058.9,1079.49 1059.4,1073.99 1060,1068.5C 1061.44,1066.95 1063.27,1066.12 1065.5,1066C 1066.07,1064.79 1066.74,1063.63 1067.5,1062.5C 1075,1060.84 1082.33,1061.34 1089.5,1064C 1090.34,1065.01 1090.67,1066.18 1090.5,1067.5C 1101.17,1067.67 1111.84,1067.5 1122.5,1067C 1124.39,1066.03 1126.39,1065.36 1128.5,1065C 1129.17,1064 1129.83,1063 1130.5,1062C 1137.98,1060.99 1145.31,1061.49 1152.5,1063.5C 1153.43,1087.92 1152.27,1112.25 1149,1136.5C 1139.4,1176.77 1113.9,1196.94 1072.5,1197C 1074.17,1196.67 1075.83,1196.33 1077.5,1196C 1071.36,1195.79 1065.36,1194.79 1059.5,1193C 1059.04,1192.59 1058.71,1192.09 1058.5,1191.5C 1059.31,1190.78 1059.98,1189.95 1060.5,1189C 1057.26,1184.52 1058.26,1181.52 1063.5,1180C 1062.17,1179.33 1060.83,1178.67 1059.5,1178C 1059.83,1177.67 1060.17,1177.33 1060.5,1177C 1073.47,1173.59 1086.13,1169.26 1098.5,1164C 1110.98,1157.23 1118.15,1146.73 1120,1132.5C 1121.28,1120.2 1121.78,1107.87 1121.5,1095.5C 1110.78,1094.89 1100.28,1095.89 1090,1098.5C 1088.65,1114.47 1087.82,1130.47 1087.5,1146.5 Z M 1090.5,1160.5 C 1098.66,1157.17 1105.16,1151.84 1110,1144.5C 1115.04,1130.54 1116.54,1116.21 1114.5,1101.5C 1108.17,1102.17 1101.83,1102.83 1095.5,1103.5C 1095,1120.85 1094.17,1138.18 1093,1155.5C 1092.63,1157.45 1091.8,1159.12 1090.5,1160.5 Z"/></g>
<g><path style="opacity:1" fill="#fefcfc" d="M 341.5,1062.5 C 366.502,1062.33 391.502,1062.5 416.5,1063C 416.833,1063.33 417.167,1063.67 417.5,1064C 416.167,1064.33 414.833,1064.67 413.5,1065C 420.456,1065.96 423.79,1069.96 423.5,1077C 422.181,1080.26 421.181,1083.6 420.5,1087C 416.389,1088.89 412.056,1089.89 407.5,1090C 395.134,1090.23 382.801,1090.73 370.5,1091.5C 371.525,1105.72 378.859,1114.89 392.5,1119C 400.833,1119.33 409.167,1119.67 417.5,1120C 426.455,1152.45 415.122,1176.12 383.5,1191C 371.555,1195.34 359.221,1196.67 346.5,1195C 347.833,1194.67 349.167,1194.33 350.5,1194C 345.745,1193.22 342.079,1190.89 339.5,1187C 340.545,1185.05 340.545,1183.05 339.5,1181C 339.834,1178.83 340.834,1176.99 342.5,1175.5C 341.674,1174.55 341.508,1173.55 342,1172.5C 350.006,1170.22 358.172,1168.39 366.5,1167C 376.854,1164.64 384.188,1158.64 388.5,1149C 388.355,1148.23 388.022,1147.56 387.5,1147C 359.512,1139.34 343.012,1121.18 338,1092.5C 336.627,1082.07 337.794,1072.07 341.5,1062.5 Z"/></g>
<g><path style="opacity:1" fill="#fefcfc" d="M 462.5,1187.5 C 461.778,1187.08 461.278,1186.42 461,1185.5C 458.665,1188.67 456.165,1191.67 453.5,1194.5C 450.156,1195.51 446.823,1196.51 443.5,1197.5C 443.67,1196.18 443.337,1195.01 442.5,1194C 440.939,1193.68 439.772,1192.85 439,1191.5C 438.667,1191.83 438.333,1192.17 438,1192.5C 437.242,1190.23 437.409,1188.06 438.5,1186C 437.552,1185.52 436.552,1185.35 435.5,1185.5C 438.187,1179.43 440.353,1173.1 442,1166.5C 443.09,1159.86 443.923,1153.19 444.5,1146.5C 442.167,1146.5 439.833,1146.5 437.5,1146.5C 437.5,1145.5 437.5,1144.5 437.5,1143.5C 435.063,1143.24 432.729,1142.58 430.5,1141.5C 429.371,1138.01 428.704,1134.68 428.5,1131.5C 429.313,1130.19 430.313,1129.02 431.5,1128C 428.833,1126.33 428.833,1124.67 431.5,1123C 435.716,1121.32 440.049,1120.15 444.5,1119.5C 443.401,1106.34 442.401,1093.18 441.5,1080C 441.833,1076.5 442.167,1073 442.5,1069.5C 443.736,1068.75 445.07,1068.42 446.5,1068.5C 446.561,1065.27 448.228,1063.44 451.5,1063C 457.167,1062.33 462.833,1062.33 468.5,1063C 469.416,1063.37 470.25,1063.87 471,1064.5C 472.577,1081.13 473.411,1097.79 473.5,1114.5C 480.136,1113.55 486.803,1112.89 493.5,1112.5C 493.068,1097.77 493.568,1083.11 495,1068.5C 498.638,1068.15 501.138,1066.32 502.5,1063C 509.986,1062.04 517.32,1062.54 524.5,1064.5C 524.007,1079.16 523.674,1093.83 523.5,1108.5C 524.552,1108.35 525.552,1108.52 526.5,1109C 528.887,1112.27 531.387,1115.44 534,1118.5C 534.667,1124.5 534.667,1130.5 534,1136.5C 533.228,1137.85 532.061,1138.68 530.5,1139C 527.518,1139.5 524.518,1139.66 521.5,1139.5C 521.747,1154.58 520.914,1169.58 519,1184.5C 518.667,1183.17 518.333,1181.83 518,1180.5C 517.34,1185.48 515.34,1189.82 512,1193.5C 509.81,1190.75 508.143,1191.08 507,1194.5C 506.395,1192.52 505.395,1192.19 504,1193.5C 502.667,1192.17 501.333,1190.83 500,1189.5C 498.286,1190.93 496.953,1190.59 496,1188.5C 494.97,1184.23 494.303,1179.89 494,1175.5C 493.5,1164.51 493.333,1153.51 493.5,1142.5C 486.578,1142.19 479.744,1142.52 473,1143.5C 472.862,1159.03 469.362,1173.7 462.5,1187.5 Z"/></g>
<g><path style="opacity:1" fill="#fefcfc" d="M 690.5,1062.5 C 695.179,1062.33 699.845,1062.5 704.5,1063C 707.571,1063.15 710.404,1063.98 713,1065.5C 712.102,1087.84 712.436,1110.17 714,1132.5C 714.686,1142.27 717.019,1151.6 721,1160.5C 728.54,1168.18 737.707,1171.18 748.5,1169.5C 747.538,1141.78 745.872,1114.12 743.5,1086.5C 743.667,1080.83 743.833,1075.17 744,1069.5C 745.584,1068.14 747.418,1067.47 749.5,1067.5C 749.137,1065.09 750.137,1063.59 752.5,1063C 759.314,1062.01 765.98,1062.51 772.5,1064.5C 774.967,1105.13 775.801,1145.79 775,1186.5C 774.667,1184.17 774.333,1181.83 774,1179.5C 774.412,1186.13 772.745,1192.13 769,1197.5C 766.697,1195.16 764.197,1195.16 761.5,1197.5C 760.449,1196.12 759.116,1195.12 757.5,1194.5C 734.664,1200.55 715.164,1195.22 699,1178.5C 693.963,1170.09 690.296,1161.09 688,1151.5C 682.358,1124.38 680.691,1097.04 683,1069.5C 683.309,1068.23 683.809,1067.07 684.5,1066C 686.706,1065.02 688.706,1063.86 690.5,1062.5 Z"/></g>
<g><path style="opacity:1" fill="#fefcfc" d="M 850.5,1066.5 C 849.697,1067.42 849.53,1068.42 850,1069.5C 851.376,1068.29 852.542,1066.96 853.5,1065.5C 855.506,1064.49 857.506,1063.49 859.5,1062.5C 861.003,1063.52 862.503,1064.52 864,1065.5C 864.772,1065.36 865.439,1065.02 866,1064.5C 867.936,1066.81 868.769,1069.47 868.5,1072.5C 869.833,1072.5 871.167,1072.5 872.5,1072.5C 871.306,1079.56 868.473,1085.89 864,1091.5C 856.731,1101.27 848.898,1110.61 840.5,1119.5C 861.431,1138.11 870.264,1161.44 867,1189.5C 866.667,1187.17 866.333,1184.83 866,1182.5C 865.94,1187.39 864.94,1192.06 863,1196.5C 859.647,1196.32 856.48,1196.65 853.5,1197.5C 851.884,1196.88 850.551,1195.88 849.5,1194.5C 848.109,1195.64 846.776,1195.64 845.5,1194.5C 842.179,1185.07 839.679,1175.4 838,1165.5C 835.545,1153.21 828.378,1145.21 816.5,1141.5C 815.244,1157.79 811.577,1173.46 805.5,1188.5C 804.883,1188.39 804.383,1188.06 804,1187.5C 802.558,1189.39 801.391,1191.39 800.5,1193.5C 797.499,1196.33 794.333,1199 791,1201.5C 788.973,1198.76 786.14,1197.43 782.5,1197.5C 782.5,1195.83 782.5,1194.17 782.5,1192.5C 781.167,1192.5 779.833,1192.5 778.5,1192.5C 782.328,1177.73 785.328,1162.73 787.5,1147.5C 787.135,1144.64 785.469,1143.14 782.5,1143C 778.227,1136.08 776.394,1128.58 777,1120.5C 780.587,1118.58 784.42,1117.58 788.5,1117.5C 787.77,1101.5 787.604,1085.5 788,1069.5C 790.525,1066.98 793.358,1064.81 796.5,1063C 803.218,1062.21 809.884,1062.37 816.5,1063.5C 817.633,1075.49 818.633,1087.49 819.5,1099.5C 829.899,1089.6 839.399,1078.94 848,1067.5C 848.671,1066.75 849.504,1066.41 850.5,1066.5 Z"/></g>
<g><path style="opacity:1" fill="#fefcfc" d="M 565.5,1180.5 C 564.883,1180.39 564.383,1180.06 564,1179.5C 562.991,1181.02 562.491,1182.69 562.5,1184.5C 561.818,1188.2 560.318,1191.53 558,1194.5C 557.311,1193.64 556.478,1192.98 555.5,1192.5C 553.795,1194.3 551.962,1194.97 550,1194.5C 548.649,1192.98 547.149,1191.65 545.5,1190.5C 544.808,1191.03 544.308,1191.69 544,1192.5C 542.473,1190.78 541.473,1188.78 541,1186.5C 539.012,1154.2 537.512,1121.87 536.5,1089.5C 536.364,1083.06 537.031,1076.73 538.5,1070.5C 541.596,1069.23 544.263,1067.39 546.5,1065C 551.5,1064.33 556.5,1064.33 561.5,1065C 563.888,1065.3 566.055,1066.14 568,1067.5C 566.931,1105.15 566.098,1142.82 565.5,1180.5 Z"/></g>
<g><path style="opacity:1" fill="#fefcfc" d="M 907.5,1179.5 C 905.273,1181.23 904.273,1183.56 904.5,1186.5C 904.165,1190.86 902.499,1194.53 899.5,1197.5C 897.518,1196.03 895.852,1196.36 894.5,1198.5C 891.308,1198.14 889.141,1196.47 888,1193.5C 887.085,1194.33 886.419,1195.33 886,1196.5C 884.748,1195 883.748,1193.33 883,1191.5C 882.552,1186.47 881.886,1181.47 881,1176.5C 879.924,1148.51 879.091,1120.51 878.5,1092.5C 878.432,1085.11 878.932,1077.78 880,1070.5C 881.699,1069.59 883.533,1069.26 885.5,1069.5C 885.297,1067.61 885.963,1066.11 887.5,1065C 907.167,1064.33 926.833,1064.33 946.5,1065C 948.025,1066.01 949.692,1066.51 951.5,1066.5C 951.045,1092.88 951.545,1119.21 953,1145.5C 953.897,1157.37 959.73,1165.54 970.5,1170C 969.833,1170.33 969.167,1170.67 968.5,1171C 972.336,1173.08 976.003,1175.42 979.5,1178C 977.82,1178.35 976.82,1179.35 976.5,1181C 977.3,1182.79 977.634,1184.45 977.5,1186C 975.725,1187.44 973.725,1188.44 971.5,1189C 973.957,1190.51 973.957,1191.85 971.5,1193C 958.027,1194.18 946.86,1189.68 938,1179.5C 934.454,1174.24 931.288,1168.74 928.5,1163C 921.508,1162.5 914.508,1162.33 907.5,1162.5C 907.5,1168.17 907.5,1173.83 907.5,1179.5 Z"/></g>
<g><path style="opacity:1" fill="#fefcfc" d="M 1049.5,1180.5 C 1048.88,1180.39 1048.38,1180.06 1048,1179.5C 1046.99,1181.02 1046.49,1182.69 1046.5,1184.5C 1045.82,1188.2 1044.32,1191.53 1042,1194.5C 1041.31,1193.64 1040.48,1192.98 1039.5,1192.5C 1037.8,1194.3 1035.96,1194.97 1034,1194.5C 1032.65,1192.98 1031.15,1191.65 1029.5,1190.5C 1028.81,1191.03 1028.31,1191.69 1028,1192.5C 1026.47,1190.78 1025.47,1188.78 1025,1186.5C 1023.01,1154.2 1021.51,1121.87 1020.5,1089.5C 1020.36,1083.06 1021.03,1076.73 1022.5,1070.5C 1025.6,1069.23 1028.26,1067.39 1030.5,1065C 1035.5,1064.33 1040.5,1064.33 1045.5,1065C 1047.89,1065.3 1050.06,1066.14 1052,1067.5C 1050.93,1105.15 1050.1,1142.82 1049.5,1180.5 Z"/></g>
<g><path style="opacity:1" fill="#eb7c74" d="M 853.5,1065.5 C 852.542,1066.96 851.376,1068.29 850,1069.5C 849.53,1068.42 849.697,1067.42 850.5,1066.5C 851.105,1064.52 852.105,1064.19 853.5,1065.5 Z"/></g>
<g><path style="opacity:1" fill="#f6c4c1" d="M 651.5,1098.5 C 651.587,1101.6 651.087,1101.93 650,1099.5C 649.79,1101.06 649.29,1102.39 648.5,1103.5C 648.413,1096.46 648.913,1089.46 650,1082.5C 650.173,1088.02 650.673,1093.35 651.5,1098.5 Z"/></g>
<g><path style="opacity:1" fill="#e96a5e" d="M 909.5,1095.5 C 912.962,1094.52 916.629,1094.19 920.5,1094.5C 920.5,1096.17 920.5,1097.83 920.5,1099.5C 919.566,1098.43 919.232,1097.1 919.5,1095.5C 916.167,1095.5 912.833,1095.5 909.5,1095.5 Z"/></g>
<g><path style="opacity:0.961" fill="#e44133" d="M 909.5,1095.5 C 912.833,1095.5 916.167,1095.5 919.5,1095.5C 919.232,1097.1 919.566,1098.43 920.5,1099.5C 921.027,1110.51 921.694,1121.51 922.5,1132.5C 917.833,1132.5 913.167,1132.5 908.5,1132.5C 908.171,1119.99 908.505,1107.66 909.5,1095.5 Z"/></g>
<g><path style="opacity:1" fill="#f6c8c5" d="M 1087.5,1146.5 C 1087.89,1149.72 1087.39,1152.72 1086,1155.5C 1085.72,1154.58 1085.22,1153.92 1084.5,1153.5C 1085.66,1151.18 1086.66,1148.84 1087.5,1146.5 Z"/></g>
<g><path style="opacity:1" fill="#f1aaa6" d="M 565.5,1180.5 C 565.5,1181.83 565.5,1183.17 565.5,1184.5C 564.5,1184.5 563.5,1184.5 562.5,1184.5C 562.491,1182.69 562.991,1181.02 564,1179.5C 564.383,1180.06 564.883,1180.39 565.5,1180.5 Z"/></g>
<g><path style="opacity:1" fill="#f1aaa6" d="M 1049.5,1180.5 C 1049.5,1181.83 1049.5,1183.17 1049.5,1184.5C 1048.5,1184.5 1047.5,1184.5 1046.5,1184.5C 1046.49,1182.69 1046.99,1181.02 1048,1179.5C 1048.38,1180.06 1048.88,1180.39 1049.5,1180.5 Z"/></g>
<g><path style="opacity:1" fill="#f6bfbb" d="M 907.5,1179.5 C 907.649,1182.61 907.149,1185.61 906,1188.5C 905.722,1187.58 905.222,1186.92 904.5,1186.5C 904.273,1183.56 905.273,1181.23 907.5,1179.5 Z"/></g>
<g><path style="opacity:1" fill="#f7c5c2" d="M 599.5,1185.5 C 598.97,1187.92 598.136,1190.26 597,1192.5C 596.722,1191.58 596.222,1190.92 595.5,1190.5C 596.03,1188.08 596.864,1185.74 598,1183.5C 598.278,1184.42 598.778,1185.08 599.5,1185.5 Z"/></g>
<g><path style="opacity:1" fill="#f5b0aa" d="M 462.5,1187.5 C 461.094,1190.41 459.094,1192.91 456.5,1195C 455.251,1195.74 454.251,1195.57 453.5,1194.5C 456.165,1191.67 458.665,1188.67 461,1185.5C 461.278,1186.42 461.778,1187.08 462.5,1187.5 Z"/></g>
<g><path style="opacity:1" fill="#f6bab5" d="M 805.5,1188.5 C 804.495,1192.12 802.495,1194.62 799.5,1196C 800.252,1195.33 800.586,1194.5 800.5,1193.5C 801.391,1191.39 802.558,1189.39 804,1187.5C 804.383,1188.06 804.883,1188.39 805.5,1188.5 Z"/></g>
</svg>
